solid OpenSCAD_Model
  facet normal 0 0.9781476 -0.20791154
    outer loop
      vertex -12 11.7325325 -2.1062734
      vertex -12 11.792297 -1.8251016
      vertex 8 11.792297 -1.8251016
    endloop
  endfacet
  facet normal 0 0.9781476 -0.20791154
    outer loop
      vertex -12 11.7325325 -2.1062734
      vertex 8 11.792297 -1.8251016
      vertex 8 11.7325325 -2.1062734
    endloop
  endfacet
  facet normal 0 1 0
    outer loop
      vertex -12 11.7325325 -2.3937266
      vertex -12 11.7325325 -2.1062734
      vertex 8 11.7325325 -2.1062734
    endloop
  endfacet
  facet normal 0 1 0
    outer loop
      vertex -12 11.7325325 -2.3937266
      vertex 8 11.7325325 -2.1062734
      vertex 8 11.7325325 -2.3937266
    endloop
  endfacet
  facet normal 0 0.9781476 0.20791154
    outer loop
      vertex -12 11.7325325 -2.3937266
      vertex 8 11.7325325 -2.3937266
      vertex -12 11.792297 -2.6748984
    endloop
  endfacet
  facet normal 0 1 0
    outer loop
      vertex -12 11.7325325 10.806273
      vertex -12 11.7325325 11.093726
      vertex -4.1000004 11.7325325 11.093726
    endloop
  endfacet
  facet normal 0 0.9781476 0.20791154
    outer loop
      vertex -12 11.7325325 10.806273
      vertex -4.1000004 11.7325325 10.806273
      vertex -12 11.792297 10.525102
    endloop
  endfacet
  facet normal 0 1 0
    outer loop
      vertex -12 11.7325325 10.806273
      vertex -4.1000004 11.7325325 11.093726
      vertex -4.1000004 11.7325325 10.806273
    endloop
  endfacet
  facet normal 0 0.9781476 -0.20791154
    outer loop
      vertex -12 11.7325325 11.093726
      vertex -12 11.792297 11.374898
      vertex -4.1000004 11.792297 11.374898
    endloop
  endfacet
  facet normal 0 0.9781476 -0.20791154
    outer loop
      vertex -12 11.7325325 11.093726
      vertex -4.1000004 11.792297 11.374898
      vertex -4.1000004 11.7325325 11.093726
    endloop
  endfacet
  facet normal 0 0.9135444 -0.40673894
    outer loop
      vertex -12 11.792297 -1.8251016
      vertex -12 11.909216 -1.5625
      vertex 8 11.909216 -1.5625
    endloop
  endfacet
  facet normal 0 0.9135444 -0.40673894
    outer loop
      vertex -12 11.792297 -1.8251016
      vertex 8 11.909216 -1.5625
      vertex 8 11.792297 -1.8251016
    endloop
  endfacet
  facet normal 0 0.9781476 0.20791154
    outer loop
      vertex -12 11.792297 -2.6748984
      vertex 8 11.7325325 -2.3937266
      vertex 8 11.792297 -2.6748984
    endloop
  endfacet
  facet normal 0 0.9135444 0.40673894
    outer loop
      vertex -12 11.792297 -2.6748984
      vertex 8 11.792297 -2.6748984
      vertex -12 11.909216 -2.9375
    endloop
  endfacet
  facet normal 0 0.9781476 0.20791154
    outer loop
      vertex -12 11.792297 10.525102
      vertex -4.1000004 11.7325325 10.806273
      vertex -4.1000004 11.792297 10.525102
    endloop
  endfacet
  facet normal 0 0.9135446 0.40673864
    outer loop
      vertex -12 11.792297 10.525102
      vertex -4.1000004 11.792297 10.525102
      vertex -12 11.909216 10.2625
    endloop
  endfacet
  facet normal 0 0.9135446 -0.40673864
    outer loop
      vertex -12 11.792297 11.374898
      vertex -12 11.909216 11.6375
      vertex -4.1000004 11.909216 11.6375
    endloop
  endfacet
  facet normal 0 0.9135446 -0.40673864
    outer loop
      vertex -12 11.792297 11.374898
      vertex -4.1000004 11.909216 11.6375
      vertex -4.1000004 11.792297 11.374898
    endloop
  endfacet
  facet normal 0 0.8090173 -0.58778477
    outer loop
      vertex -12 11.909216 -1.5625
      vertex -12 12.0781765 -1.3299454
      vertex 8 12.0781765 -1.3299454
    endloop
  endfacet
  facet normal 0 0.8090173 -0.58778477
    outer loop
      vertex -12 11.909216 -1.5625
      vertex 8 12.0781765 -1.3299454
      vertex 8 11.909216 -1.5625
    endloop
  endfacet
  facet normal 0 0.9135444 0.40673894
    outer loop
      vertex -12 11.909216 -2.9375
      vertex 8 11.792297 -2.6748984
      vertex 8 11.909216 -2.9375
    endloop
  endfacet
  facet normal 0 0.8090172 0.587785
    outer loop
      vertex -12 11.909216 -2.9375
      vertex 8 11.909216 -2.9375
      vertex -12 12.0781765 -3.1700544
    endloop
  endfacet
  facet normal 0 0.9135446 0.40673864
    outer loop
      vertex -12 11.909216 10.2625
      vertex -4.1000004 11.792297 10.525102
      vertex -4.1000004 11.909216 10.2625
    endloop
  endfacet
  facet normal 0 0.8090172 0.587785
    outer loop
      vertex -12 11.909216 10.2625
      vertex -4.1000004 11.909216 10.2625
      vertex -12 12.0781765 10.029945
    endloop
  endfacet
  facet normal 0 0.8090172 -0.587785
    outer loop
      vertex -12 11.909216 11.6375
      vertex -12 12.0781765 11.870054
      vertex -4.1000004 12.0781765 11.870054
    endloop
  endfacet
  facet normal 0 0.8090172 -0.587785
    outer loop
      vertex -12 11.909216 11.6375
      vertex -4.1000004 12.0781765 11.870054
      vertex -4.1000004 11.909216 11.6375
    endloop
  endfacet
  facet normal 0 0.669131 -0.74314445
    outer loop
      vertex -12 12.0781765 -1.3299454
      vertex -12 12.291796 -1.1376016
      vertex 8 12.291796 -1.1376016
    endloop
  endfacet
  facet normal 0 0.669131 -0.74314445
    outer loop
      vertex -12 12.0781765 -1.3299454
      vertex 8 12.291796 -1.1376016
      vertex 8 12.0781765 -1.3299454
    endloop
  endfacet
  facet normal 0 0.8090172 0.587785
    outer loop
      vertex -12 12.0781765 -3.1700544
      vertex 8 11.909216 -2.9375
      vertex 8 12.0781765 -3.1700544
    endloop
  endfacet
  facet normal 0 0.6691312 0.7431443
    outer loop
      vertex -12 12.0781765 -3.1700544
      vertex 8 12.0781765 -3.1700544
      vertex -12 12.291796 -3.3623984
    endloop
  endfacet
  facet normal 0 0.8090172 0.587785
    outer loop
      vertex -12 12.0781765 10.029945
      vertex -4.1000004 11.909216 10.2625
      vertex -4.1000004 12.0781765 10.029945
    endloop
  endfacet
  facet normal 0 0.6691308 0.7431447
    outer loop
      vertex -12 12.0781765 10.029945
      vertex -4.1000004 12.0781765 10.029945
      vertex -12 12.291796 9.837602
    endloop
  endfacet
  facet normal 0 0.6691308 -0.7431447
    outer loop
      vertex -12 12.0781765 11.870054
      vertex -12 12.291796 12.062398
      vertex -4.1000004 12.291796 12.062398
    endloop
  endfacet
  facet normal 0 0.6691308 -0.7431447
    outer loop
      vertex -12 12.0781765 11.870054
      vertex -4.1000004 12.291796 12.062398
      vertex -4.1000004 12.0781765 11.870054
    endloop
  endfacet
  facet normal 0 0.5000005 -0.8660251
    outer loop
      vertex -12 12.291796 -1.1376016
      vertex -12 12.540737 -0.993875
      vertex 8 12.540737 -0.993875
    endloop
  endfacet
  facet normal -1 0 0
    outer loop
      vertex -12 12.291796 -1.1376016
      vertex -12 13 2.75
      vertex -12 12.540737 -0.993875
    endloop
  endfacet
  facet normal 0 0.5000005 -0.8660251
    outer loop
      vertex -12 12.291796 -1.1376016
      vertex 8 12.540737 -0.993875
      vertex 8 12.291796 -1.1376016
    endloop
  endfacet
  facet normal -1 0 0
    outer loop
      vertex -12 12.291796 -3.3623984
      vertex -12 12.540737 -3.506125
      vertex -12 13 -5.75
    endloop
  endfacet
  facet normal 0 0.6691312 0.7431443
    outer loop
      vertex -12 12.291796 -3.3623984
      vertex 8 12.0781765 -3.1700544
      vertex 8 12.291796 -3.3623984
    endloop
  endfacet
  facet normal 0 0.5000005 0.8660251
    outer loop
      vertex -12 12.291796 -3.3623984
      vertex 8 12.291796 -3.3623984
      vertex -12 12.540737 -3.506125
    endloop
  endfacet
  facet normal 0 0.5000024 -0.866024
    outer loop
      vertex -12 12.291796 12.062398
      vertex -12 12.540737 12.206125
      vertex -4.1000004 12.540737 12.206125
    endloop
  endfacet
  facet normal 0 0.5000024 -0.866024
    outer loop
      vertex -12 12.291796 12.062398
      vertex -4.1000004 12.540737 12.206125
      vertex -4.1000004 12.291796 12.062398
    endloop
  endfacet
  facet normal 0 0.6691308 0.7431447
    outer loop
      vertex -12 12.291796 9.837602
      vertex -4.1000004 12.0781765 10.029945
      vertex -4.1000004 12.291796 9.837602
    endloop
  endfacet
  facet normal 0 0.5000024 0.866024
    outer loop
      vertex -12 12.291796 9.837602
      vertex -4.1000004 12.291796 9.837602
      vertex -12 12.540737 9.693874
    endloop
  endfacet
  facet normal 0 0.30901632 -0.9510567
    outer loop
      vertex -12 12.540737 -0.993875
      vertex -12 12.814122 -0.90504706
      vertex 8 12.814122 -0.90504706
    endloop
  endfacet
  facet normal -1 0 0
    outer loop
      vertex -12 12.540737 -0.993875
      vertex -12 13 2.75
      vertex -12 12.814122 -0.90504706
    endloop
  endfacet
  facet normal 0 0.30901632 -0.9510567
    outer loop
      vertex -12 12.540737 -0.993875
      vertex 8 12.814122 -0.90504706
      vertex 8 12.540737 -0.993875
    endloop
  endfacet
  facet normal -1 0 0
    outer loop
      vertex -12 12.540737 -3.506125
      vertex -12 12.814122 -3.594953
      vertex -12 13 -5.75
    endloop
  endfacet
  facet normal 0 0.5000005 0.8660251
    outer loop
      vertex -12 12.540737 -3.506125
      vertex 8 12.291796 -3.3623984
      vertex 8 12.540737 -3.506125
    endloop
  endfacet
  facet normal 0 0.30901667 0.9510566
    outer loop
      vertex -12 12.540737 -3.506125
      vertex 8 12.540737 -3.506125
      vertex -12 12.814122 -3.594953
    endloop
  endfacet
  facet normal 0 0.30901366 -0.9510576
    outer loop
      vertex -12 12.540737 12.206125
      vertex -12 12.814122 12.294952
      vertex -4.1000004 12.814122 12.294952
    endloop
  endfacet
  facet normal 0 0.30901366 -0.9510576
    outer loop
      vertex -12 12.540737 12.206125
      vertex -4.1000004 12.814122 12.294952
      vertex -4.1000004 12.540737 12.206125
    endloop
  endfacet
  facet normal 0 0.5000024 0.866024
    outer loop
      vertex -12 12.540737 9.693874
      vertex -4.1000004 12.291796 9.837602
      vertex -4.1000004 12.540737 9.693874
    endloop
  endfacet
  facet normal 0 0.30901366 0.9510576
    outer loop
      vertex -12 12.540737 9.693874
      vertex -4.1000004 12.540737 9.693874
      vertex -12 12.814122 9.605047
    endloop
  endfacet
  facet normal -1 0 0
    outer loop
      vertex -12 12.814122 -0.90504706
      vertex -12 13 2.75
      vertex -12 13.1 -0.875
    endloop
  endfacet
  facet normal 0 0.10452864 -0.99452186
    outer loop
      vertex -12 12.814122 -0.90504706
      vertex -12 13.1 -0.875
      vertex 8 13.1 -0.875
    endloop
  endfacet
  facet normal 0 0.10452864 -0.99452186
    outer loop
      vertex -12 12.814122 -0.90504706
      vertex 8 13.1 -0.875
      vertex 8 12.814122 -0.90504706
    endloop
  endfacet
  facet normal -1 0 0
    outer loop
      vertex -12 12.814122 -3.594953
      vertex -12 13.1 -3.625
      vertex -12 13 -5.75
    endloop
  endfacet
  facet normal 0 0.30901667 0.9510566
    outer loop
      vertex -12 12.814122 -3.594953
      vertex 8 12.540737 -3.506125
      vertex 8 12.814122 -3.594953
    endloop
  endfacet
  facet normal 0 0.10452823 0.9945219
    outer loop
      vertex -12 12.814122 -3.594953
      vertex 8 12.814122 -3.594953
      vertex -12 13.1 -3.625
    endloop
  endfacet
  facet normal 0 0.10452987 -0.99452174
    outer loop
      vertex -12 12.814122 12.294952
      vertex -12 13.1 12.325
      vertex -4.1000004 13.1 12.325
    endloop
  endfacet
  facet normal 0 0.10452987 -0.99452174
    outer loop
      vertex -12 12.814122 12.294952
      vertex -4.1000004 13.1 12.325
      vertex -4.1000004 12.814122 12.294952
    endloop
  endfacet
  facet normal -1 0 0
    outer loop
      vertex -12 12.814122 9.605047
      vertex -12 13.1 9.575
      vertex -12 13 8.625
    endloop
  endfacet
  facet normal 0 0.30901366 0.9510576
    outer loop
      vertex -12 12.814122 9.605047
      vertex -4.1000004 12.540737 9.693874
      vertex -4.1000004 12.814122 9.605047
    endloop
  endfacet
  facet normal 0 0.10452987 0.99452174
    outer loop
      vertex -12 12.814122 9.605047
      vertex -4.1000004 12.814122 9.605047
      vertex -12 13.1 9.575
    endloop
  endfacet
  facet normal -1 0 0
    outer loop
      vertex -12 13 -11.625
      vertex -12 13 -8.375
      vertex -12 16.5 -12.7
    endloop
  endfacet
  facet normal 0 -1 0
    outer loop
      vertex -12 13 -11.625
      vertex 12 13 -11.625
      vertex -12 13 -8.375
    endloop
  endfacet
  facet normal 0 0 1
    outer loop
      vertex -12 13 -11.625
      vertex 12 9 -11.625
      vertex 12 13 -11.625
    endloop
  endfacet
  facet normal -1 0 0
    outer loop
      vertex -12 13 -5.75
      vertex -12 13.1 -3.625
      vertex -12 13.385879 -3.594953
    endloop
  endfacet
  facet normal -1 0 0
    outer loop
      vertex -12 13 -5.75
      vertex -12 13.385879 -3.594953
      vertex -12 13.659264 -3.506125
    endloop
  endfacet
  facet normal -1 0 0
    outer loop
      vertex -12 13 -5.75
      vertex -12 13.659264 -3.506125
      vertex -12 13.908205 -3.3623984
    endloop
  endfacet
  facet normal -1 0 0
    outer loop
      vertex -12 13 -5.75
      vertex -12 13.908205 -3.3623984
      vertex -12 14.121824 -3.1700544
    endloop
  endfacet
  facet normal -1 0 0
    outer loop
      vertex -12 13 -5.75
      vertex -12 14.121824 -3.1700544
      vertex -12 16.5 -12.7
    endloop
  endfacet
  facet normal 0 -1 0
    outer loop
      vertex -12 13 -5.75
      vertex 12 13 -7.25
      vertex 12 13 -5.75
    endloop
  endfacet
  facet normal -1 0 0
    outer loop
      vertex -12 13 -7.25
      vertex -12 13 -5.75
      vertex -12 16.5 -12.7
    endloop
  endfacet
  facet normal 0 -1 0
    outer loop
      vertex -12 13 -7.25
      vertex 12 13 -7.25
      vertex -12 13 -5.75
    endloop
  endfacet
  facet normal 0 0 1
    outer loop
      vertex -12 13 -7.25
      vertex 12 9 -7.25
      vertex 12 13 -7.25
    endloop
  endfacet
  facet normal -1 0 0
    outer loop
      vertex -12 13 -8.375
      vertex -12 13 -7.25
      vertex -12 16.5 -12.7
    endloop
  endfacet
  facet normal 0 -1 0
    outer loop
      vertex -12 13 -8.375
      vertex 12 13 -11.625
      vertex 12 13 -8.375
    endloop
  endfacet
  facet normal -1 0 0
    outer loop
      vertex -12 13 2.75
      vertex -12 13 4.25
      vertex -12 16.5 12.7
    endloop
  endfacet
  facet normal -1 0 0
    outer loop
      vertex -12 13 2.75
      vertex -12 13.385879 -0.90504706
      vertex -12 13.1 -0.875
    endloop
  endfacet
  facet normal -1 0 0
    outer loop
      vertex -12 13 2.75
      vertex -12 13.659264 -0.993875
      vertex -12 13.385879 -0.90504706
    endloop
  endfacet
  facet normal -1 0 0
    outer loop
      vertex -12 13 2.75
      vertex -12 13.908205 -1.1376016
      vertex -12 13.659264 -0.993875
    endloop
  endfacet
  facet normal -1 0 0
    outer loop
      vertex -12 13 2.75
      vertex -12 14.121824 -1.3299454
      vertex -12 13.908205 -1.1376016
    endloop
  endfacet
  facet normal -1 0 0
    outer loop
      vertex -12 13 2.75
      vertex -12 16.5 12.7
      vertex -12 14.121824 -1.3299454
    endloop
  endfacet
  facet normal 0 -1 0
    outer loop
      vertex -12 13 2.75
      vertex 12 13 2.75
      vertex -12 13 4.25
    endloop
  endfacet
  facet normal 0 0 1
    outer loop
      vertex -12 13 2.75
      vertex 12 9 2.75
      vertex 12 13 2.75
    endloop
  endfacet
  facet normal -1 0 0
    outer loop
      vertex -12 13 4.25
      vertex -12 13 5.375
      vertex -12 14.407703 10.525102
    endloop
  endfacet
  facet normal -1 0 0
    outer loop
      vertex -12 13 4.25
      vertex -12 14.407703 10.525102
      vertex -12 16.5 12.7
    endloop
  endfacet
  facet normal 0 -1 0
    outer loop
      vertex -12 13 4.25
      vertex 12 13 2.75
      vertex 12 13 4.25
    endloop
  endfacet
  facet normal -1 0 0
    outer loop
      vertex -12 13 5.375
      vertex -12 13 8.625
      vertex -12 13.659264 9.693874
    endloop
  endfacet
  facet normal -1 0 0
    outer loop
      vertex -12 13 5.375
      vertex -12 13.659264 9.693874
      vertex -12 13.908205 9.837602
    endloop
  endfacet
  facet normal -1 0 0
    outer loop
      vertex -12 13 5.375
      vertex -12 13.908205 9.837602
      vertex -12 14.121824 10.029945
    endloop
  endfacet
  facet normal -1 0 0
    outer loop
      vertex -12 13 5.375
      vertex -12 14.121824 10.029945
      vertex -12 14.290785 10.2625
    endloop
  endfacet
  facet normal -1 0 0
    outer loop
      vertex -12 13 5.375
      vertex -12 14.290785 10.2625
      vertex -12 14.407703 10.525102
    endloop
  endfacet
  facet normal 0 -1 0
    outer loop
      vertex -12 13 5.375
      vertex 12 13 5.375
      vertex -12 13 8.625
    endloop
  endfacet
  facet normal 0 0 1
    outer loop
      vertex -12 13 5.375
      vertex 12 9 5.375
      vertex 12 13 5.375
    endloop
  endfacet
  facet normal -1 0 0
    outer loop
      vertex -12 13 8.625
      vertex -12 13.1 9.575
      vertex -12 13.385879 9.605047
    endloop
  endfacet
  facet normal -1 0 0
    outer loop
      vertex -12 13 8.625
      vertex -12 13.385879 9.605047
      vertex -12 13.659264 9.693874
    endloop
  endfacet
  facet normal 0 -1 0
    outer loop
      vertex -12 13 8.625
      vertex 12 13 5.375
      vertex 12 13 8.625
    endloop
  endfacet
  facet normal 0 -0.10452864 -0.99452186
    outer loop
      vertex -12 13.1 -0.875
      vertex -12 13.385879 -0.90504706
      vertex 8 13.385879 -0.90504706
    endloop
  endfacet
  facet normal 0 -0.10452864 -0.99452186
    outer loop
      vertex -12 13.1 -0.875
      vertex 8 13.385879 -0.90504706
      vertex 8 13.1 -0.875
    endloop
  endfacet
  facet normal 0 0.10452823 0.9945219
    outer loop
      vertex -12 13.1 -3.625
      vertex 8 12.814122 -3.594953
      vertex 8 13.1 -3.625
    endloop
  endfacet
  facet normal 0 -0.10452823 0.9945219
    outer loop
      vertex -12 13.1 -3.625
      vertex 8 13.1 -3.625
      vertex -12 13.385879 -3.594953
    endloop
  endfacet
  facet normal 0 -0.10452987 -0.99452174
    outer loop
      vertex -12 13.1 12.325
      vertex -12 13.385879 12.294952
      vertex -4.1000004 13.385879 12.294952
    endloop
  endfacet
  facet normal -1 0 0
    outer loop
      vertex -12 13.1 12.325
      vertex -12 16.5 12.7
      vertex -12 13.385879 12.294952
    endloop
  endfacet
  facet normal 0 -0.10452987 -0.99452174
    outer loop
      vertex -12 13.1 12.325
      vertex -4.1000004 13.385879 12.294952
      vertex -4.1000004 13.1 12.325
    endloop
  endfacet
  facet normal 0 0.10452987 0.99452174
    outer loop
      vertex -12 13.1 9.575
      vertex -4.1000004 12.814122 9.605047
      vertex -4.1000004 13.1 9.575
    endloop
  endfacet
  facet normal 0 -0.10452987 0.99452174
    outer loop
      vertex -12 13.1 9.575
      vertex -4.1000004 13.1 9.575
      vertex -12 13.385879 9.605047
    endloop
  endfacet
  facet normal 0 -0.30901632 -0.9510567
    outer loop
      vertex -12 13.385879 -0.90504706
      vertex -12 13.659264 -0.993875
      vertex 8 13.659264 -0.993875
    endloop
  endfacet
  facet normal 0 -0.30901632 -0.9510567
    outer loop
      vertex -12 13.385879 -0.90504706
      vertex 8 13.659264 -0.993875
      vertex 8 13.385879 -0.90504706
    endloop
  endfacet
  facet normal 0 -0.10452823 0.9945219
    outer loop
      vertex -12 13.385879 -3.594953
      vertex 8 13.1 -3.625
      vertex 8 13.385879 -3.594953
    endloop
  endfacet
  facet normal 0 -0.30901667 0.9510566
    outer loop
      vertex -12 13.385879 -3.594953
      vertex 8 13.385879 -3.594953
      vertex -12 13.659264 -3.506125
    endloop
  endfacet
  facet normal 0 -0.30901366 -0.9510576
    outer loop
      vertex -12 13.385879 12.294952
      vertex -12 13.659264 12.206125
      vertex -4.1000004 13.659264 12.206125
    endloop
  endfacet
  facet normal -1 0 0
    outer loop
      vertex -12 13.385879 12.294952
      vertex -12 16.5 12.7
      vertex -12 13.659264 12.206125
    endloop
  endfacet
  facet normal 0 -0.30901366 -0.9510576
    outer loop
      vertex -12 13.385879 12.294952
      vertex -4.1000004 13.659264 12.206125
      vertex -4.1000004 13.385879 12.294952
    endloop
  endfacet
  facet normal 0 -0.10452987 0.99452174
    outer loop
      vertex -12 13.385879 9.605047
      vertex -4.1000004 13.1 9.575
      vertex -4.1000004 13.385879 9.605047
    endloop
  endfacet
  facet normal 0 -0.30901366 0.9510576
    outer loop
      vertex -12 13.385879 9.605047
      vertex -4.1000004 13.385879 9.605047
      vertex -12 13.659264 9.693874
    endloop
  endfacet
  facet normal 0 -0.5000005 -0.8660251
    outer loop
      vertex -12 13.659264 -0.993875
      vertex -12 13.908205 -1.1376016
      vertex 8 13.908205 -1.1376016
    endloop
  endfacet
  facet normal 0 -0.5000005 -0.8660251
    outer loop
      vertex -12 13.659264 -0.993875
      vertex 8 13.908205 -1.1376016
      vertex 8 13.659264 -0.993875
    endloop
  endfacet
  facet normal 0 -0.30901667 0.9510566
    outer loop
      vertex -12 13.659264 -3.506125
      vertex 8 13.385879 -3.594953
      vertex 8 13.659264 -3.506125
    endloop
  endfacet
  facet normal 0 -0.5000005 0.8660251
    outer loop
      vertex -12 13.659264 -3.506125
      vertex 8 13.659264 -3.506125
      vertex -12 13.908205 -3.3623984
    endloop
  endfacet
  facet normal 0 -0.5000024 -0.866024
    outer loop
      vertex -12 13.659264 12.206125
      vertex -12 13.908205 12.062398
      vertex -4.1000004 13.908205 12.062398
    endloop
  endfacet
  facet normal -1 0 0
    outer loop
      vertex -12 13.659264 12.206125
      vertex -12 16.5 12.7
      vertex -12 13.908205 12.062398
    endloop
  endfacet
  facet normal 0 -0.5000024 -0.866024
    outer loop
      vertex -12 13.659264 12.206125
      vertex -4.1000004 13.908205 12.062398
      vertex -4.1000004 13.659264 12.206125
    endloop
  endfacet
  facet normal 0 -0.30901366 0.9510576
    outer loop
      vertex -12 13.659264 9.693874
      vertex -4.1000004 13.385879 9.605047
      vertex -4.1000004 13.659264 9.693874
    endloop
  endfacet
  facet normal 0 -0.5000024 0.866024
    outer loop
      vertex -12 13.659264 9.693874
      vertex -4.1000004 13.659264 9.693874
      vertex -12 13.908205 9.837602
    endloop
  endfacet
  facet normal 0 -0.669131 -0.74314445
    outer loop
      vertex -12 13.908205 -1.1376016
      vertex -12 14.121824 -1.3299454
      vertex 8 14.121824 -1.3299454
    endloop
  endfacet
  facet normal 0 -0.669131 -0.74314445
    outer loop
      vertex -12 13.908205 -1.1376016
      vertex 8 14.121824 -1.3299454
      vertex 8 13.908205 -1.1376016
    endloop
  endfacet
  facet normal 0 -0.5000005 0.8660251
    outer loop
      vertex -12 13.908205 -3.3623984
      vertex 8 13.659264 -3.506125
      vertex 8 13.908205 -3.3623984
    endloop
  endfacet
  facet normal 0 -0.6691312 0.7431443
    outer loop
      vertex -12 13.908205 -3.3623984
      vertex 8 13.908205 -3.3623984
      vertex -12 14.121824 -3.1700544
    endloop
  endfacet
  facet normal 0 -0.6691308 -0.7431447
    outer loop
      vertex -12 13.908205 12.062398
      vertex -12 14.121824 11.870054
      vertex -4.1000004 14.121824 11.870054
    endloop
  endfacet
  facet normal -1 0 0
    outer loop
      vertex -12 13.908205 12.062398
      vertex -12 16.5 12.7
      vertex -12 14.121824 11.870054
    endloop
  endfacet
  facet normal 0 -0.6691308 -0.7431447
    outer loop
      vertex -12 13.908205 12.062398
      vertex -4.1000004 14.121824 11.870054
      vertex -4.1000004 13.908205 12.062398
    endloop
  endfacet
  facet normal 0 -0.5000024 0.866024
    outer loop
      vertex -12 13.908205 9.837602
      vertex -4.1000004 13.659264 9.693874
      vertex -4.1000004 13.908205 9.837602
    endloop
  endfacet
  facet normal 0 -0.6691308 0.7431447
    outer loop
      vertex -12 13.908205 9.837602
      vertex -4.1000004 13.908205 9.837602
      vertex -12 14.121824 10.029945
    endloop
  endfacet
  facet normal 0 -0.8090173 -0.58778477
    outer loop
      vertex -12 14.121824 -1.3299454
      vertex -12 14.290785 -1.5625
      vertex 8 14.290785 -1.5625
    endloop
  endfacet
  facet normal -1 0 0
    outer loop
      vertex -12 14.121824 -1.3299454
      vertex -12 16.5 12.7
      vertex -12 14.290785 -1.5625
    endloop
  endfacet
  facet normal 0 -0.8090173 -0.58778477
    outer loop
      vertex -12 14.121824 -1.3299454
      vertex 8 14.290785 -1.5625
      vertex 8 14.121824 -1.3299454
    endloop
  endfacet
  facet normal -1 0 0
    outer loop
      vertex -12 14.121824 -3.1700544
      vertex -12 14.290785 -2.9375
      vertex -12 16.5 -12.7
    endloop
  endfacet
  facet normal 0 -0.6691312 0.7431443
    outer loop
      vertex -12 14.121824 -3.1700544
      vertex 8 13.908205 -3.3623984
      vertex 8 14.121824 -3.1700544
    endloop
  endfacet
  facet normal 0 -0.8090172 0.587785
    outer loop
      vertex -12 14.121824 -3.1700544
      vertex 8 14.121824 -3.1700544
      vertex -12 14.290785 -2.9375
    endloop
  endfacet
  facet normal 0 -0.6691308 0.7431447
    outer loop
      vertex -12 14.121824 10.029945
      vertex -4.1000004 13.908205 9.837602
      vertex -4.1000004 14.121824 10.029945
    endloop
  endfacet
  facet normal 0 -0.8090172 0.587785
    outer loop
      vertex -12 14.121824 10.029945
      vertex -4.1000004 14.121824 10.029945
      vertex -12 14.290785 10.2625
    endloop
  endfacet
  facet normal 0 -0.8090172 -0.587785
    outer loop
      vertex -12 14.121824 11.870054
      vertex -12 14.290785 11.6375
      vertex -4.1000004 14.290785 11.6375
    endloop
  endfacet
  facet normal -1 0 0
    outer loop
      vertex -12 14.121824 11.870054
      vertex -12 16.5 12.7
      vertex -12 14.290785 11.6375
    endloop
  endfacet
  facet normal 0 -0.8090172 -0.587785
    outer loop
      vertex -12 14.121824 11.870054
      vertex -4.1000004 14.290785 11.6375
      vertex -4.1000004 14.121824 11.870054
    endloop
  endfacet
  facet normal 0 -0.9135444 -0.40673894
    outer loop
      vertex -12 14.290785 -1.5625
      vertex -12 14.407703 -1.8251016
      vertex 8 14.407703 -1.8251016
    endloop
  endfacet
  facet normal -1 0 0
    outer loop
      vertex -12 14.290785 -1.5625
      vertex -12 16.5 12.7
      vertex -12 14.407703 -1.8251016
    endloop
  endfacet
  facet normal 0 -0.9135444 -0.40673894
    outer loop
      vertex -12 14.290785 -1.5625
      vertex 8 14.407703 -1.8251016
      vertex 8 14.290785 -1.5625
    endloop
  endfacet
  facet normal -1 0 0
    outer loop
      vertex -12 14.290785 -2.9375
      vertex -12 14.407703 -2.6748984
      vertex -12 16.5 -12.7
    endloop
  endfacet
  facet normal 0 -0.8090172 0.587785
    outer loop
      vertex -12 14.290785 -2.9375
      vertex 8 14.121824 -3.1700544
      vertex 8 14.290785 -2.9375
    endloop
  endfacet
  facet normal 0 -0.9135444 0.40673894
    outer loop
      vertex -12 14.290785 -2.9375
      vertex 8 14.290785 -2.9375
      vertex -12 14.407703 -2.6748984
    endloop
  endfacet
  facet normal 0 -0.8090172 0.587785
    outer loop
      vertex -12 14.290785 10.2625
      vertex -4.1000004 14.121824 10.029945
      vertex -4.1000004 14.290785 10.2625
    endloop
  endfacet
  facet normal 0 -0.9135446 0.40673864
    outer loop
      vertex -12 14.290785 10.2625
      vertex -4.1000004 14.290785 10.2625
      vertex -12 14.407703 10.525102
    endloop
  endfacet
  facet normal 0 -0.9135446 -0.40673864
    outer loop
      vertex -12 14.290785 11.6375
      vertex -12 14.407703 11.374898
      vertex -4.1000004 14.407703 11.374898
    endloop
  endfacet
  facet normal -1 0 0
    outer loop
      vertex -12 14.290785 11.6375
      vertex -12 16.5 12.7
      vertex -12 14.407703 11.374898
    endloop
  endfacet
  facet normal 0 -0.9135446 -0.40673864
    outer loop
      vertex -12 14.290785 11.6375
      vertex -4.1000004 14.407703 11.374898
      vertex -4.1000004 14.290785 11.6375
    endloop
  endfacet
  facet normal 0 -0.9781476 -0.20791154
    outer loop
      vertex -12 14.407703 -1.8251016
      vertex -12 14.467468 -2.1062734
      vertex 8 14.467468 -2.1062734
    endloop
  endfacet
  facet normal -1 0 0
    outer loop
      vertex -12 14.407703 -1.8251016
      vertex -12 16.5 12.7
      vertex -12 14.467468 -2.1062734
    endloop
  endfacet
  facet normal 0 -0.9781476 -0.20791154
    outer loop
      vertex -12 14.407703 -1.8251016
      vertex 8 14.467468 -2.1062734
      vertex 8 14.407703 -1.8251016
    endloop
  endfacet
  facet normal -1 0 0
    outer loop
      vertex -12 14.407703 -2.6748984
      vertex -12 14.467468 -2.3937266
      vertex -12 16.5 -12.7
    endloop
  endfacet
  facet normal 0 -0.9135444 0.40673894
    outer loop
      vertex -12 14.407703 -2.6748984
      vertex 8 14.290785 -2.9375
      vertex 8 14.407703 -2.6748984
    endloop
  endfacet
  facet normal 0 -0.9781476 0.20791154
    outer loop
      vertex -12 14.407703 -2.6748984
      vertex 8 14.407703 -2.6748984
      vertex -12 14.467468 -2.3937266
    endloop
  endfacet
  facet normal -1 0 0
    outer loop
      vertex -12 14.407703 10.525102
      vertex -12 14.467468 10.806273
      vertex -12 16.5 12.7
    endloop
  endfacet
  facet normal 0 -0.9135446 0.40673864
    outer loop
      vertex -12 14.407703 10.525102
      vertex -4.1000004 14.290785 10.2625
      vertex -4.1000004 14.407703 10.525102
    endloop
  endfacet
  facet normal 0 -0.9781476 0.20791154
    outer loop
      vertex -12 14.407703 10.525102
      vertex -4.1000004 14.407703 10.525102
      vertex -12 14.467468 10.806273
    endloop
  endfacet
  facet normal 0 -0.9781476 -0.20791154
    outer loop
      vertex -12 14.407703 11.374898
      vertex -12 14.467468 11.093726
      vertex -4.1000004 14.467468 11.093726
    endloop
  endfacet
  facet normal -1 0 0
    outer loop
      vertex -12 14.407703 11.374898
      vertex -12 16.5 12.7
      vertex -12 14.467468 11.093726
    endloop
  endfacet
  facet normal 0 -0.9781476 -0.20791154
    outer loop
      vertex -12 14.407703 11.374898
      vertex -4.1000004 14.467468 11.093726
      vertex -4.1000004 14.407703 11.374898
    endloop
  endfacet
  facet normal 0 -1 0
    outer loop
      vertex -12 14.467468 -2.1062734
      vertex 8 14.467468 -2.3937266
      vertex 8 14.467468 -2.1062734
    endloop
  endfacet
  facet normal -1 0 0
    outer loop
      vertex -12 14.467468 -2.3937266
      vertex -12 14.467468 -2.1062734
      vertex -12 16.5 12.7
    endloop
  endfacet
  facet normal -1 0 0
    outer loop
      vertex -12 14.467468 -2.3937266
      vertex -12 16.5 12.7
      vertex -12 16.5 -12.7
    endloop
  endfacet
  facet normal 0 -0.9781476 0.20791154
    outer loop
      vertex -12 14.467468 -2.3937266
      vertex 8 14.407703 -2.6748984
      vertex 8 14.467468 -2.3937266
    endloop
  endfacet
  facet normal 0 -1 0
    outer loop
      vertex -12 14.467468 -2.3937266
      vertex 8 14.467468 -2.3937266
      vertex -12 14.467468 -2.1062734
    endloop
  endfacet
  facet normal -1 0 0
    outer loop
      vertex -12 14.467468 10.806273
      vertex -12 14.467468 11.093726
      vertex -12 16.5 12.7
    endloop
  endfacet
  facet normal 0 -0.9781476 0.20791154
    outer loop
      vertex -12 14.467468 10.806273
      vertex -4.1000004 14.407703 10.525102
      vertex -4.1000004 14.467468 10.806273
    endloop
  endfacet
  facet normal 0 -1 0
    outer loop
      vertex -12 14.467468 10.806273
      vertex -4.1000004 14.467468 10.806273
      vertex -12 14.467468 11.093726
    endloop
  endfacet
  facet normal 0 -1 0
    outer loop
      vertex -12 14.467468 11.093726
      vertex -4.1000004 14.467468 10.806273
      vertex -4.1000004 14.467468 11.093726
    endloop
  endfacet
  facet normal 0 1 0
    outer loop
      vertex -12 16.5 -12.7
      vertex -12 16.5 12.7
      vertex 12 16.5 -12.7
    endloop
  endfacet
  facet normal 0 1 0
    outer loop
      vertex -12 16.5 12.7
      vertex 12 16.5 12.7
      vertex 12 16.5 -12.7
    endloop
  endfacet
  facet normal 0 0 1
    outer loop
      vertex -12 16.5 12.7
      vertex 12 9 12.7
      vertex 12 16.5 12.7
    endloop
  endfacet
  facet normal 0 0 1
    outer loop
      vertex -12 9 -11.625
      vertex 12 9 -11.625
      vertex -12 13 -11.625
    endloop
  endfacet
  facet normal -1 0 0
    outer loop
      vertex -12 9 -12.7
      vertex -12 13 -11.625
      vertex -12 16.5 -12.7
    endloop
  endfacet
  facet normal 0 0 -1
    outer loop
      vertex -12 9 -12.7
      vertex -12 16.5 -12.7
      vertex 12 16.5 -12.7
    endloop
  endfacet
  facet normal -1 0 0
    outer loop
      vertex -12 9 -12.7
      vertex -12 9 -11.625
      vertex -12 13 -11.625
    endloop
  endfacet
  facet normal 0 0 -1
    outer loop
      vertex -12 9 -12.7
      vertex 12 16.5 -12.7
      vertex 12 9 -12.7
    endloop
  endfacet
  facet normal 0 -1 0
    outer loop
      vertex -12 9 -12.7
      vertex 12 9 -11.625
      vertex -12 9 -11.625
    endloop
  endfacet
  facet normal 0 -1 0
    outer loop
      vertex -12 9 -12.7
      vertex 12 9 -12.7
      vertex 12 9 -11.625
    endloop
  endfacet
  facet normal -1 0 0
    outer loop
      vertex -12 9 -5.75
      vertex -12 11.7325325 -2.1062734
      vertex -12 11.7325325 -2.3937266
    endloop
  endfacet
  facet normal -1 0 0
    outer loop
      vertex -12 9 -5.75
      vertex -12 11.7325325 -2.3937266
      vertex -12 11.792297 -2.6748984
    endloop
  endfacet
  facet normal -1 0 0
    outer loop
      vertex -12 9 -5.75
      vertex -12 11.792297 -2.6748984
      vertex -12 11.909216 -2.9375
    endloop
  endfacet
  facet normal -1 0 0
    outer loop
      vertex -12 9 -5.75
      vertex -12 11.909216 -2.9375
      vertex -12 12.0781765 -3.1700544
    endloop
  endfacet
  facet normal -1 0 0
    outer loop
      vertex -12 9 -5.75
      vertex -12 12.0781765 -3.1700544
      vertex -12 12.291796 -3.3623984
    endloop
  endfacet
  facet normal -1 0 0
    outer loop
      vertex -12 9 -5.75
      vertex -12 12.291796 -3.3623984
      vertex -12 13 -5.75
    endloop
  endfacet
  facet normal 0 0 -1
    outer loop
      vertex -12 9 -5.75
      vertex -12 13 -5.75
      vertex 12 13 -5.75
    endloop
  endfacet
  facet normal -1 0 0
    outer loop
      vertex -12 9 -5.75
      vertex -12 9 2.75
      vertex -12 11.7325325 -2.1062734
    endloop
  endfacet
  facet normal 0 0 -1
    outer loop
      vertex -12 9 -5.75
      vertex 12 13 -5.75
      vertex 12 9 -5.75
    endloop
  endfacet
  facet normal 0 -1 0
    outer loop
      vertex -12 9 -5.75
      vertex 12 9 -5.75
      vertex 12 9 2.75
    endloop
  endfacet
  facet normal 0 -1 0
    outer loop
      vertex -12 9 -5.75
      vertex 12 9 2.75
      vertex -12 9 2.75
    endloop
  endfacet
  facet normal 0 0 1
    outer loop
      vertex -12 9 -7.25
      vertex 12 9 -7.25
      vertex -12 13 -7.25
    endloop
  endfacet
  facet normal 0 -1 0
    outer loop
      vertex -12 9 -7.25
      vertex 12 9 -8.375
      vertex 12 9 -7.25
    endloop
  endfacet
  facet normal -1 0 0
    outer loop
      vertex -12 9 -8.375
      vertex -12 13 -7.25
      vertex -12 13 -8.375
    endloop
  endfacet
  facet normal 0 0 -1
    outer loop
      vertex -12 9 -8.375
      vertex -12 13 -8.375
      vertex 12 13 -8.375
    endloop
  endfacet
  facet normal -1 0 0
    outer loop
      vertex -12 9 -8.375
      vertex -12 9 -7.25
      vertex -12 13 -7.25
    endloop
  endfacet
  facet normal 0 0 -1
    outer loop
      vertex -12 9 -8.375
      vertex 12 13 -8.375
      vertex 12 9 -8.375
    endloop
  endfacet
  facet normal 0 -1 0
    outer loop
      vertex -12 9 -8.375
      vertex 12 9 -8.375
      vertex -12 9 -7.25
    endloop
  endfacet
  facet normal -1 0 0
    outer loop
      vertex -12 9 12.7
      vertex -12 11.7325325 10.806273
      vertex -12 11.792297 10.525102
    endloop
  endfacet
  facet normal -1 0 0
    outer loop
      vertex -12 9 12.7
      vertex -12 11.7325325 11.093726
      vertex -12 11.7325325 10.806273
    endloop
  endfacet
  facet normal -1 0 0
    outer loop
      vertex -12 9 12.7
      vertex -12 11.792297 11.374898
      vertex -12 11.7325325 11.093726
    endloop
  endfacet
  facet normal -1 0 0
    outer loop
      vertex -12 9 12.7
      vertex -12 11.909216 11.6375
      vertex -12 11.792297 11.374898
    endloop
  endfacet
  facet normal -1 0 0
    outer loop
      vertex -12 9 12.7
      vertex -12 12.0781765 11.870054
      vertex -12 11.909216 11.6375
    endloop
  endfacet
  facet normal -1 0 0
    outer loop
      vertex -12 9 12.7
      vertex -12 12.291796 12.062398
      vertex -12 12.0781765 11.870054
    endloop
  endfacet
  facet normal -1 0 0
    outer loop
      vertex -12 9 12.7
      vertex -12 12.540737 12.206125
      vertex -12 12.291796 12.062398
    endloop
  endfacet
  facet normal -1 0 0
    outer loop
      vertex -12 9 12.7
      vertex -12 12.814122 12.294952
      vertex -12 12.540737 12.206125
    endloop
  endfacet
  facet normal -1 0 0
    outer loop
      vertex -12 9 12.7
      vertex -12 13.1 12.325
      vertex -12 12.814122 12.294952
    endloop
  endfacet
  facet normal -1 0 0
    outer loop
      vertex -12 9 12.7
      vertex -12 16.5 12.7
      vertex -12 13.1 12.325
    endloop
  endfacet
  facet normal 0 0 1
    outer loop
      vertex -12 9 12.7
      vertex 12 9 12.7
      vertex -12 16.5 12.7
    endloop
  endfacet
  facet normal -1 0 0
    outer loop
      vertex -12 9 2.75
      vertex -12 11.792297 -1.8251016
      vertex -12 11.7325325 -2.1062734
    endloop
  endfacet
  facet normal -1 0 0
    outer loop
      vertex -12 9 2.75
      vertex -12 11.909216 -1.5625
      vertex -12 11.792297 -1.8251016
    endloop
  endfacet
  facet normal -1 0 0
    outer loop
      vertex -12 9 2.75
      vertex -12 12.0781765 -1.3299454
      vertex -12 11.909216 -1.5625
    endloop
  endfacet
  facet normal -1 0 0
    outer loop
      vertex -12 9 2.75
      vertex -12 12.291796 -1.1376016
      vertex -12 12.0781765 -1.3299454
    endloop
  endfacet
  facet normal -1 0 0
    outer loop
      vertex -12 9 2.75
      vertex -12 13 2.75
      vertex -12 12.291796 -1.1376016
    endloop
  endfacet
  facet normal 0 0 1
    outer loop
      vertex -12 9 2.75
      vertex 12 9 2.75
      vertex -12 13 2.75
    endloop
  endfacet
  facet normal 0 0 -1
    outer loop
      vertex -12 9 4.25
      vertex -12 13 4.25
      vertex 12 13 4.25
    endloop
  endfacet
  facet normal -1 0 0
    outer loop
      vertex -12 9 4.25
      vertex -12 13 5.375
      vertex -12 13 4.25
    endloop
  endfacet
  facet normal -1 0 0
    outer loop
      vertex -12 9 4.25
      vertex -12 9 5.375
      vertex -12 13 5.375
    endloop
  endfacet
  facet normal 0 0 -1
    outer loop
      vertex -12 9 4.25
      vertex 12 13 4.25
      vertex 12 9 4.25
    endloop
  endfacet
  facet normal 0 -1 0
    outer loop
      vertex -12 9 4.25
      vertex 12 9 4.25
      vertex -12 9 5.375
    endloop
  endfacet
  facet normal 0 -1 0
    outer loop
      vertex -12 9 5.375
      vertex 12 9 4.25
      vertex 12 9 5.375
    endloop
  endfacet
  facet normal 0 0 1
    outer loop
      vertex -12 9 5.375
      vertex 12 9 5.375
      vertex -12 13 5.375
    endloop
  endfacet
  facet normal -1 0 0
    outer loop
      vertex -12 9 8.625
      vertex -12 11.792297 10.525102
      vertex -12 11.909216 10.2625
    endloop
  endfacet
  facet normal -1 0 0
    outer loop
      vertex -12 9 8.625
      vertex -12 11.909216 10.2625
      vertex -12 12.0781765 10.029945
    endloop
  endfacet
  facet normal -1 0 0
    outer loop
      vertex -12 9 8.625
      vertex -12 12.0781765 10.029945
      vertex -12 12.291796 9.837602
    endloop
  endfacet
  facet normal -1 0 0
    outer loop
      vertex -12 9 8.625
      vertex -12 12.291796 9.837602
      vertex -12 12.540737 9.693874
    endloop
  endfacet
  facet normal -1 0 0
    outer loop
      vertex -12 9 8.625
      vertex -12 12.540737 9.693874
      vertex -12 12.814122 9.605047
    endloop
  endfacet
  facet normal -1 0 0
    outer loop
      vertex -12 9 8.625
      vertex -12 12.814122 9.605047
      vertex -12 13 8.625
    endloop
  endfacet
  facet normal 0 0 -1
    outer loop
      vertex -12 9 8.625
      vertex -12 13 8.625
      vertex 12 13 8.625
    endloop
  endfacet
  facet normal -1 0 0
    outer loop
      vertex -12 9 8.625
      vertex -12 9 12.7
      vertex -12 11.792297 10.525102
    endloop
  endfacet
  facet normal 0 0 -1
    outer loop
      vertex -12 9 8.625
      vertex 12 13 8.625
      vertex 12 9 8.625
    endloop
  endfacet
  facet normal 0 -1 0
    outer loop
      vertex -12 9 8.625
      vertex 12 9 12.7
      vertex -12 9 12.7
    endloop
  endfacet
  facet normal 0 -1 0
    outer loop
      vertex -12 9 8.625
      vertex 12 9 8.625
      vertex 12 9 12.7
    endloop
  endfacet
  facet normal -1 0 0
    outer loop
      vertex -4.1000004 11.7325325 10.806273
      vertex -4.1000004 11.7325325 11.093726
      vertex -4.1000004 14.467468 11.093726
    endloop
  endfacet
  facet normal -1 0 0
    outer loop
      vertex -4.1000004 11.7325325 10.806273
      vertex -4.1000004 14.467468 10.806273
      vertex -4.1000004 11.792297 10.525102
    endloop
  endfacet
  facet normal -1 0 0
    outer loop
      vertex -4.1000004 11.7325325 10.806273
      vertex -4.1000004 14.467468 11.093726
      vertex -4.1000004 14.467468 10.806273
    endloop
  endfacet
  facet normal -1 0 0
    outer loop
      vertex -4.1000004 11.7325325 11.093726
      vertex -4.1000004 11.792297 11.374898
      vertex -4.1000004 14.407703 11.374898
    endloop
  endfacet
  facet normal -1 0 0
    outer loop
      vertex -4.1000004 11.7325325 11.093726
      vertex -4.1000004 14.407703 11.374898
      vertex -4.1000004 14.467468 11.093726
    endloop
  endfacet
  facet normal -1 0 0
    outer loop
      vertex -4.1000004 11.792297 10.525102
      vertex -4.1000004 14.407703 10.525102
      vertex -4.1000004 11.909216 10.2625
    endloop
  endfacet
  facet normal -1 0 0
    outer loop
      vertex -4.1000004 11.792297 10.525102
      vertex -4.1000004 14.467468 10.806273
      vertex -4.1000004 14.407703 10.525102
    endloop
  endfacet
  facet normal -1 0 0
    outer loop
      vertex -4.1000004 11.792297 11.374898
      vertex -4.1000004 11.909216 11.6375
      vertex -4.1000004 14.290785 11.6375
    endloop
  endfacet
  facet normal -1 0 0
    outer loop
      vertex -4.1000004 11.792297 11.374898
      vertex -4.1000004 14.290785 11.6375
      vertex -4.1000004 14.407703 11.374898
    endloop
  endfacet
  facet normal -1 0 0
    outer loop
      vertex -4.1000004 11.909216 10.2625
      vertex -4.1000004 14.290785 10.2625
      vertex -4.1000004 12.0781765 10.029945
    endloop
  endfacet
  facet normal -1 0 0
    outer loop
      vertex -4.1000004 11.909216 10.2625
      vertex -4.1000004 14.407703 10.525102
      vertex -4.1000004 14.290785 10.2625
    endloop
  endfacet
  facet normal -1 0 0
    outer loop
      vertex -4.1000004 11.909216 11.6375
      vertex -4.1000004 12.0781765 11.870054
      vertex -4.1000004 14.121824 11.870054
    endloop
  endfacet
  facet normal -1 0 0
    outer loop
      vertex -4.1000004 11.909216 11.6375
      vertex -4.1000004 14.121824 11.870054
      vertex -4.1000004 14.290785 11.6375
    endloop
  endfacet
  facet normal -1 0 0
    outer loop
      vertex -4.1000004 12.0781765 10.029945
      vertex -4.1000004 14.121824 10.029945
      vertex -4.1000004 12.291796 9.837602
    endloop
  endfacet
  facet normal -1 0 0
    outer loop
      vertex -4.1000004 12.0781765 10.029945
      vertex -4.1000004 14.290785 10.2625
      vertex -4.1000004 14.121824 10.029945
    endloop
  endfacet
  facet normal -1 0 0
    outer loop
      vertex -4.1000004 12.0781765 11.870054
      vertex -4.1000004 12.291796 12.062398
      vertex -4.1000004 13.908205 12.062398
    endloop
  endfacet
  facet normal -1 0 0
    outer loop
      vertex -4.1000004 12.0781765 11.870054
      vertex -4.1000004 13.908205 12.062398
      vertex -4.1000004 14.121824 11.870054
    endloop
  endfacet
  facet normal -1 0 0
    outer loop
      vertex -4.1000004 12.291796 12.062398
      vertex -4.1000004 12.540737 12.206125
      vertex -4.1000004 13.659264 12.206125
    endloop
  endfacet
  facet normal -1 0 0
    outer loop
      vertex -4.1000004 12.291796 12.062398
      vertex -4.1000004 13.659264 12.206125
      vertex -4.1000004 13.908205 12.062398
    endloop
  endfacet
  facet normal -1 0 0
    outer loop
      vertex -4.1000004 12.291796 9.837602
      vertex -4.1000004 13.908205 9.837602
      vertex -4.1000004 12.540737 9.693874
    endloop
  endfacet
  facet normal -1 0 0
    outer loop
      vertex -4.1000004 12.291796 9.837602
      vertex -4.1000004 14.121824 10.029945
      vertex -4.1000004 13.908205 9.837602
    endloop
  endfacet
  facet normal -1 0 0
    outer loop
      vertex -4.1000004 12.540737 12.206125
      vertex -4.1000004 12.814122 12.294952
      vertex -4.1000004 13.385879 12.294952
    endloop
  endfacet
  facet normal -1 0 0
    outer loop
      vertex -4.1000004 12.540737 12.206125
      vertex -4.1000004 13.385879 12.294952
      vertex -4.1000004 13.659264 12.206125
    endloop
  endfacet
  facet normal -1 0 0
    outer loop
      vertex -4.1000004 12.540737 9.693874
      vertex -4.1000004 13.659264 9.693874
      vertex -4.1000004 12.814122 9.605047
    endloop
  endfacet
  facet normal -1 0 0
    outer loop
      vertex -4.1000004 12.540737 9.693874
      vertex -4.1000004 13.908205 9.837602
      vertex -4.1000004 13.659264 9.693874
    endloop
  endfacet
  facet normal -1 0 0
    outer loop
      vertex -4.1000004 12.814122 12.294952
      vertex -4.1000004 13.1 12.325
      vertex -4.1000004 13.385879 12.294952
    endloop
  endfacet
  facet normal -1 0 0
    outer loop
      vertex -4.1000004 12.814122 9.605047
      vertex -4.1000004 13.385879 9.605047
      vertex -4.1000004 13.1 9.575
    endloop
  endfacet
  facet normal -1 0 0
    outer loop
      vertex -4.1000004 12.814122 9.605047
      vertex -4.1000004 13.659264 9.693874
      vertex -4.1000004 13.385879 9.605047
    endloop
  endfacet
  facet normal 1 0 0
    outer loop
      vertex 12 12.021773 -0.1338594
      vertex 12 12.366085 0.00875926
      vertex 12 13 2.75
    endloop
  endfacet
  facet normal 1 0 0
    outer loop
      vertex 12 12.366085 0.00875926
      vertex 12 12.728469 0.09575987
      vertex 12 13 2.75
    endloop
  endfacet
  facet normal 1 0 0
    outer loop
      vertex 12 12.728469 -4.59576
      vertex 12 13 -5.75
      vertex 12 16.5 -12.7
    endloop
  endfacet
  facet normal 1 0 0
    outer loop
      vertex 12 12.728469 -4.59576
      vertex 12 16.5 -12.7
      vertex 12 13.1 -4.625
    endloop
  endfacet
  facet normal 1 0 0
    outer loop
      vertex 12 12.728469 0.09575987
      vertex 12 13.1 0.125
      vertex 12 13 2.75
    endloop
  endfacet
  facet normal 1 0 0
    outer loop
      vertex 12 13 -11.625
      vertex 12 16.5 -12.7
      vertex 12 13 -8.375
    endloop
  endfacet
  facet normal 1 0 0
    outer loop
      vertex 12 13 -7.25
      vertex 12 16.5 -12.7
      vertex 12 13 -5.75
    endloop
  endfacet
  facet normal 1 0 0
    outer loop
      vertex 12 13 -8.375
      vertex 12 16.5 -12.7
      vertex 12 13 -7.25
    endloop
  endfacet
  facet normal 1 0 0
    outer loop
      vertex 12 13 2.75
      vertex 12 13.1 0.125
      vertex 12 13.471532 0.09575987
    endloop
  endfacet
  facet normal 1 0 0
    outer loop
      vertex 12 13 2.75
      vertex 12 13.471532 0.09575987
      vertex 12 13.833916 0.00875926
    endloop
  endfacet
  facet normal 1 0 0
    outer loop
      vertex 12 13 2.75
      vertex 12 13.833916 0.00875926
      vertex 12 14.178227 -0.1338594
    endloop
  endfacet
  facet normal 1 0 0
    outer loop
      vertex 12 13 2.75
      vertex 12 14.178227 -0.1338594
      vertex 12 14.495991 -0.32858467
    endloop
  endfacet
  facet normal 1 0 0
    outer loop
      vertex 12 13 2.75
      vertex 12 14.495991 -0.32858467
      vertex 12 16.5 12.7
    endloop
  endfacet
  facet normal 1 0 0
    outer loop
      vertex 12 13 2.75
      vertex 12 16.5 12.7
      vertex 12 13 4.25
    endloop
  endfacet
  facet normal 1 0 0
    outer loop
      vertex 12 13 4.25
      vertex 12 16.5 12.7
      vertex 12 13 5.375
    endloop
  endfacet
  facet normal 1 0 0
    outer loop
      vertex 12 13 5.375
      vertex 12 16.5 12.7
      vertex 12 13 8.625
    endloop
  endfacet
  facet normal 1 0 0
    outer loop
      vertex 12 13.1 -4.625
      vertex 12 16.5 -12.7
      vertex 12 13.471532 -4.59576
    endloop
  endfacet
  facet normal 1 0 0
    outer loop
      vertex 12 13.471532 -4.59576
      vertex 12 16.5 -12.7
      vertex 12 13.833916 -4.5087595
    endloop
  endfacet
  facet normal 1 0 0
    outer loop
      vertex 12 13.833916 -4.5087595
      vertex 12 16.5 -12.7
      vertex 12 14.178227 -4.3661404
    endloop
  endfacet
  facet normal 1 0 0
    outer loop
      vertex 12 14.178227 -4.3661404
      vertex 12 16.5 -12.7
      vertex 12 14.495991 -4.1714153
    endloop
  endfacet
  facet normal 1 0 0
    outer loop
      vertex 12 14.495991 -0.32858467
      vertex 12 14.779379 -0.5706214
      vertex 12 16.5 12.7
    endloop
  endfacet
  facet normal 1 0 0
    outer loop
      vertex 12 14.495991 -4.1714153
      vertex 12 16.5 -12.7
      vertex 12 14.779379 -3.9293785
    endloop
  endfacet
  facet normal 1 0 0
    outer loop
      vertex 12 14.779379 -0.5706214
      vertex 12 15.021416 -0.85401
      vertex 12 16.5 12.7
    endloop
  endfacet
  facet normal 1 0 0
    outer loop
      vertex 12 14.779379 -3.9293785
      vertex 12 16.5 -12.7
      vertex 12 15.021416 -3.64599
    endloop
  endfacet
  facet normal 1 0 0
    outer loop
      vertex 12 15.021416 -0.85401
      vertex 12 15.216141 -1.1717726
      vertex 12 16.5 12.7
    endloop
  endfacet
  facet normal 1 0 0
    outer loop
      vertex 12 15.021416 -3.64599
      vertex 12 16.5 -12.7
      vertex 12 15.216141 -3.3282275
    endloop
  endfacet
  facet normal 1 0 0
    outer loop
      vertex 12 15.216141 -1.1717726
      vertex 12 15.35876 -1.5160847
      vertex 12 16.5 12.7
    endloop
  endfacet
  facet normal 1 0 0
    outer loop
      vertex 12 15.216141 -3.3282275
      vertex 12 16.5 -12.7
      vertex 12 15.35876 -2.9839153
    endloop
  endfacet
  facet normal 1 0 0
    outer loop
      vertex 12 15.35876 -1.5160847
      vertex 12 15.445761 -1.8784682
      vertex 12 16.5 12.7
    endloop
  endfacet
  facet normal 1 0 0
    outer loop
      vertex 12 15.35876 -2.9839153
      vertex 12 16.5 -12.7
      vertex 12 15.445761 -2.621532
    endloop
  endfacet
  facet normal 1 0 0
    outer loop
      vertex 12 15.445761 -1.8784682
      vertex 12 15.475 -2.25
      vertex 12 16.5 12.7
    endloop
  endfacet
  facet normal 1 0 0
    outer loop
      vertex 12 15.445761 -2.621532
      vertex 12 16.5 -12.7
      vertex 12 15.475 -2.25
    endloop
  endfacet
  facet normal 1 0 0
    outer loop
      vertex 12 15.475 -2.25
      vertex 12 16.5 -12.7
      vertex 12 16.5 12.7
    endloop
  endfacet
  facet normal 1 0 0
    outer loop
      vertex 12 9 -12.7
      vertex 12 13 -11.625
      vertex 12 9 -11.625
    endloop
  endfacet
  facet normal 1 0 0
    outer loop
      vertex 12 9 -12.7
      vertex 12 16.5 -12.7
      vertex 12 13 -11.625
    endloop
  endfacet
  facet normal 1 0 0
    outer loop
      vertex 12 9 -5.75
      vertex 12 10.75424 -2.621532
      vertex 12 9 2.75
    endloop
  endfacet
  facet normal 1 0 0
    outer loop
      vertex 12 9 -5.75
      vertex 12 10.841241 -2.9839153
      vertex 12 10.75424 -2.621532
    endloop
  endfacet
  facet normal 1 0 0
    outer loop
      vertex 12 9 -5.75
      vertex 12 10.98386 -3.3282275
      vertex 12 10.841241 -2.9839153
    endloop
  endfacet
  facet normal 1 0 0
    outer loop
      vertex 12 9 -5.75
      vertex 12 11.178585 -3.64599
      vertex 12 10.98386 -3.3282275
    endloop
  endfacet
  facet normal 1 0 0
    outer loop
      vertex 12 9 -5.75
      vertex 12 11.420622 -3.9293785
      vertex 12 11.178585 -3.64599
    endloop
  endfacet
  facet normal 1 0 0
    outer loop
      vertex 12 9 -5.75
      vertex 12 11.70401 -4.1714153
      vertex 12 11.420622 -3.9293785
    endloop
  endfacet
  facet normal 1 0 0
    outer loop
      vertex 12 9 -5.75
      vertex 12 12.021773 -4.3661404
      vertex 12 11.70401 -4.1714153
    endloop
  endfacet
  facet normal 1 0 0
    outer loop
      vertex 12 9 -5.75
      vertex 12 12.366085 -4.5087595
      vertex 12 12.021773 -4.3661404
    endloop
  endfacet
  facet normal 1 0 0
    outer loop
      vertex 12 9 -5.75
      vertex 12 12.728469 -4.59576
      vertex 12 12.366085 -4.5087595
    endloop
  endfacet
  facet normal 1 0 0
    outer loop
      vertex 12 9 -5.75
      vertex 12 13 -5.75
      vertex 12 12.728469 -4.59576
    endloop
  endfacet
  facet normal 1 0 0
    outer loop
      vertex 12 9 -7.25
      vertex 12 13 -8.375
      vertex 12 13 -7.25
    endloop
  endfacet
  facet normal 1 0 0
    outer loop
      vertex 12 9 -8.375
      vertex 12 13 -8.375
      vertex 12 9 -7.25
    endloop
  endfacet
  facet normal 1 0 0
    outer loop
      vertex 12 9 12.7
      vertex 12 13 8.625
      vertex 12 16.5 12.7
    endloop
  endfacet
  facet normal 1 0 0
    outer loop
      vertex 12 9 2.75
      vertex 12 10.725 -2.25
      vertex 12 10.75424 -1.8784682
    endloop
  endfacet
  facet normal 1 0 0
    outer loop
      vertex 12 9 2.75
      vertex 12 10.75424 -1.8784682
      vertex 12 10.841241 -1.5160847
    endloop
  endfacet
  facet normal 1 0 0
    outer loop
      vertex 12 9 2.75
      vertex 12 10.75424 -2.621532
      vertex 12 10.725 -2.25
    endloop
  endfacet
  facet normal 1 0 0
    outer loop
      vertex 12 9 2.75
      vertex 12 10.841241 -1.5160847
      vertex 12 10.98386 -1.1717726
    endloop
  endfacet
  facet normal 1 0 0
    outer loop
      vertex 12 9 2.75
      vertex 12 10.98386 -1.1717726
      vertex 12 11.178585 -0.85401
    endloop
  endfacet
  facet normal 1 0 0
    outer loop
      vertex 12 9 2.75
      vertex 12 11.178585 -0.85401
      vertex 12 11.420622 -0.5706214
    endloop
  endfacet
  facet normal 1 0 0
    outer loop
      vertex 12 9 2.75
      vertex 12 11.420622 -0.5706214
      vertex 12 11.70401 -0.32858467
    endloop
  endfacet
  facet normal 1 0 0
    outer loop
      vertex 12 9 2.75
      vertex 12 11.70401 -0.32858467
      vertex 12 12.021773 -0.1338594
    endloop
  endfacet
  facet normal 1 0 0
    outer loop
      vertex 12 9 2.75
      vertex 12 12.021773 -0.1338594
      vertex 12 13 2.75
    endloop
  endfacet
  facet normal 1 0 0
    outer loop
      vertex 12 9 4.25
      vertex 12 13 4.25
      vertex 12 9 5.375
    endloop
  endfacet
  facet normal 1 0 0
    outer loop
      vertex 12 9 5.375
      vertex 12 13 4.25
      vertex 12 13 5.375
    endloop
  endfacet
  facet normal 1 0 0
    outer loop
      vertex 12 9 8.625
      vertex 12 13 8.625
      vertex 12 9 12.7
    endloop
  endfacet
  facet normal 0 0.9969174 0.07845764
    outer loop
      vertex 8 10.725 -2.25
      vertex 12 10.725 -2.25
      vertex 8 10.75424 -2.621532
    endloop
  endfacet
  facet normal 0 0.9969174 -0.07845767
    outer loop
      vertex 8 10.725 -2.25
      vertex 12 10.75424 -1.8784682
      vertex 12 10.725 -2.25
    endloop
  endfacet
  facet normal 0 0.9969174 -0.07845767
    outer loop
      vertex 8 10.725 -2.25
      vertex 8 10.75424 -1.8784682
      vertex 12 10.75424 -1.8784682
    endloop
  endfacet
  facet normal 1 0 0
    outer loop
      vertex 8 10.725 -2.25
      vertex 8 10.75424 -2.621532
      vertex 8 11.7325325 -2.3937266
    endloop
  endfacet
  facet normal 1 0 0
    outer loop
      vertex 8 10.725 -2.25
      vertex 8 11.7325325 -2.1062734
      vertex 8 10.75424 -1.8784682
    endloop
  endfacet
  facet normal 1 0 0
    outer loop
      vertex 8 10.725 -2.25
      vertex 8 11.7325325 -2.3937266
      vertex 8 11.7325325 -2.1062734
    endloop
  endfacet
  facet normal 0 0.97236973 -0.23344605
    outer loop
      vertex 8 10.75424 -1.8784682
      vertex 12 10.841241 -1.5160847
      vertex 12 10.75424 -1.8784682
    endloop
  endfacet
  facet normal 0 0.97236973 -0.23344605
    outer loop
      vertex 8 10.75424 -1.8784682
      vertex 8 10.841241 -1.5160847
      vertex 12 10.841241 -1.5160847
    endloop
  endfacet
  facet normal 1 0 0
    outer loop
      vertex 8 10.75424 -1.8784682
      vertex 8 11.7325325 -2.1062734
      vertex 8 10.841241 -1.5160847
    endloop
  endfacet
  facet normal 0 0.9969174 0.07845764
    outer loop
      vertex 8 10.75424 -2.621532
      vertex 12 10.725 -2.25
      vertex 12 10.75424 -2.621532
    endloop
  endfacet
  facet normal 0 0.97236973 0.23344612
    outer loop
      vertex 8 10.75424 -2.621532
      vertex 12 10.75424 -2.621532
      vertex 8 10.841241 -2.9839153
    endloop
  endfacet
  facet normal 1 0 0
    outer loop
      vertex 8 10.75424 -2.621532
      vertex 8 10.841241 -2.9839153
      vertex 8 11.909216 -2.9375
    endloop
  endfacet
  facet normal 1 0 0
    outer loop
      vertex 8 10.75424 -2.621532
      vertex 8 11.792297 -2.6748984
      vertex 8 11.7325325 -2.3937266
    endloop
  endfacet
  facet normal 1 0 0
    outer loop
      vertex 8 10.75424 -2.621532
      vertex 8 11.909216 -2.9375
      vertex 8 11.792297 -2.6748984
    endloop
  endfacet
  facet normal 0 0.92387915 -0.38268435
    outer loop
      vertex 8 10.841241 -1.5160847
      vertex 12 10.98386 -1.1717726
      vertex 12 10.841241 -1.5160847
    endloop
  endfacet
  facet normal 0 0.92387915 -0.38268435
    outer loop
      vertex 8 10.841241 -1.5160847
      vertex 8 10.98386 -1.1717726
      vertex 12 10.98386 -1.1717726
    endloop
  endfacet
  facet normal 1 0 0
    outer loop
      vertex 8 10.841241 -1.5160847
      vertex 8 11.7325325 -2.1062734
      vertex 8 11.792297 -1.8251016
    endloop
  endfacet
  facet normal 1 0 0
    outer loop
      vertex 8 10.841241 -1.5160847
      vertex 8 11.792297 -1.8251016
      vertex 8 11.909216 -1.5625
    endloop
  endfacet
  facet normal 1 0 0
    outer loop
      vertex 8 10.841241 -1.5160847
      vertex 8 11.909216 -1.5625
      vertex 8 10.98386 -1.1717726
    endloop
  endfacet
  facet normal 0 0.97236973 0.23344612
    outer loop
      vertex 8 10.841241 -2.9839153
      vertex 12 10.75424 -2.621532
      vertex 12 10.841241 -2.9839153
    endloop
  endfacet
  facet normal 0 0.9238792 0.38268423
    outer loop
      vertex 8 10.841241 -2.9839153
      vertex 12 10.841241 -2.9839153
      vertex 8 10.98386 -3.3282275
    endloop
  endfacet
  facet normal 1 0 0
    outer loop
      vertex 8 10.841241 -2.9839153
      vertex 8 10.98386 -3.3282275
      vertex 8 12.0781765 -3.1700544
    endloop
  endfacet
  facet normal 1 0 0
    outer loop
      vertex 8 10.841241 -2.9839153
      vertex 8 12.0781765 -3.1700544
      vertex 8 11.909216 -2.9375
    endloop
  endfacet
  facet normal 0 0.85264033 -0.5224983
    outer loop
      vertex 8 10.98386 -1.1717726
      vertex 12 11.178585 -0.85401
      vertex 12 10.98386 -1.1717726
    endloop
  endfacet
  facet normal 0 0.85264033 -0.5224983
    outer loop
      vertex 8 10.98386 -1.1717726
      vertex 8 11.178585 -0.85401
      vertex 12 11.178585 -0.85401
    endloop
  endfacet
  facet normal 1 0 0
    outer loop
      vertex 8 10.98386 -1.1717726
      vertex 8 11.909216 -1.5625
      vertex 8 12.0781765 -1.3299454
    endloop
  endfacet
  facet normal 1 0 0
    outer loop
      vertex 8 10.98386 -1.1717726
      vertex 8 12.0781765 -1.3299454
      vertex 8 11.178585 -0.85401
    endloop
  endfacet
  facet normal 0 0.9238792 0.38268423
    outer loop
      vertex 8 10.98386 -3.3282275
      vertex 12 10.841241 -2.9839153
      vertex 12 10.98386 -3.3282275
    endloop
  endfacet
  facet normal 0 0.85264015 0.52249855
    outer loop
      vertex 8 10.98386 -3.3282275
      vertex 12 10.98386 -3.3282275
      vertex 8 11.178585 -3.64599
    endloop
  endfacet
  facet normal 1 0 0
    outer loop
      vertex 8 10.98386 -3.3282275
      vertex 8 11.178585 -3.64599
      vertex 8 12.540737 -3.506125
    endloop
  endfacet
  facet normal 1 0 0
    outer loop
      vertex 8 10.98386 -3.3282275
      vertex 8 12.291796 -3.3623984
      vertex 8 12.0781765 -3.1700544
    endloop
  endfacet
  facet normal 1 0 0
    outer loop
      vertex 8 10.98386 -3.3282275
      vertex 8 12.540737 -3.506125
      vertex 8 12.291796 -3.3623984
    endloop
  endfacet
  facet normal 0 0.76040584 -0.64944816
    outer loop
      vertex 8 11.178585 -0.85401
      vertex 12 11.420622 -0.5706214
      vertex 12 11.178585 -0.85401
    endloop
  endfacet
  facet normal 0 0.76040584 -0.64944816
    outer loop
      vertex 8 11.178585 -0.85401
      vertex 8 11.420622 -0.5706214
      vertex 12 11.420622 -0.5706214
    endloop
  endfacet
  facet normal 1 0 0
    outer loop
      vertex 8 11.178585 -0.85401
      vertex 8 12.0781765 -1.3299454
      vertex 8 12.291796 -1.1376016
    endloop
  endfacet
  facet normal 1 0 0
    outer loop
      vertex 8 11.178585 -0.85401
      vertex 8 12.291796 -1.1376016
      vertex 8 12.540737 -0.993875
    endloop
  endfacet
  facet normal 1 0 0
    outer loop
      vertex 8 11.178585 -0.85401
      vertex 8 12.540737 -0.993875
      vertex 8 12.814122 -0.90504706
    endloop
  endfacet
  facet normal 1 0 0
    outer loop
      vertex 8 11.178585 -0.85401
      vertex 8 12.814122 -0.90504706
      vertex 8 13.1 -0.875
    endloop
  endfacet
  facet normal 1 0 0
    outer loop
      vertex 8 11.178585 -0.85401
      vertex 8 13.1 -0.875
      vertex 8 15.021416 -0.85401
    endloop
  endfacet
  facet normal 1 0 0
    outer loop
      vertex 8 11.178585 -0.85401
      vertex 8 15.021416 -0.85401
      vertex 8 11.420622 -0.5706214
    endloop
  endfacet
  facet normal 0 0.85264015 0.52249855
    outer loop
      vertex 8 11.178585 -3.64599
      vertex 12 10.98386 -3.3282275
      vertex 12 11.178585 -3.64599
    endloop
  endfacet
  facet normal 0 0.76040584 0.64944816
    outer loop
      vertex 8 11.178585 -3.64599
      vertex 12 11.178585 -3.64599
      vertex 8 11.420622 -3.9293785
    endloop
  endfacet
  facet normal 1 0 0
    outer loop
      vertex 8 11.178585 -3.64599
      vertex 8 11.420622 -3.9293785
      vertex 8 14.779379 -3.9293785
    endloop
  endfacet
  facet normal 1 0 0
    outer loop
      vertex 8 11.178585 -3.64599
      vertex 8 12.814122 -3.594953
      vertex 8 12.540737 -3.506125
    endloop
  endfacet
  facet normal 1 0 0
    outer loop
      vertex 8 11.178585 -3.64599
      vertex 8 13.1 -3.625
      vertex 8 12.814122 -3.594953
    endloop
  endfacet
  facet normal 1 0 0
    outer loop
      vertex 8 11.178585 -3.64599
      vertex 8 14.779379 -3.9293785
      vertex 8 15.021416 -3.64599
    endloop
  endfacet
  facet normal 1 0 0
    outer loop
      vertex 8 11.178585 -3.64599
      vertex 8 15.021416 -3.64599
      vertex 8 13.1 -3.625
    endloop
  endfacet
  facet normal 0 0.64944863 -0.7604055
    outer loop
      vertex 8 11.420622 -0.5706214
      vertex 12 11.70401 -0.32858467
      vertex 12 11.420622 -0.5706214
    endloop
  endfacet
  facet normal 0 0.64944863 -0.7604055
    outer loop
      vertex 8 11.420622 -0.5706214
      vertex 8 11.70401 -0.32858467
      vertex 12 11.70401 -0.32858467
    endloop
  endfacet
  facet normal 1 0 0
    outer loop
      vertex 8 11.420622 -0.5706214
      vertex 8 14.779379 -0.5706214
      vertex 8 11.70401 -0.32858467
    endloop
  endfacet
  facet normal 1 0 0
    outer loop
      vertex 8 11.420622 -0.5706214
      vertex 8 15.021416 -0.85401
      vertex 8 14.779379 -0.5706214
    endloop
  endfacet
  facet normal 0 0.76040584 0.64944816
    outer loop
      vertex 8 11.420622 -3.9293785
      vertex 12 11.178585 -3.64599
      vertex 12 11.420622 -3.9293785
    endloop
  endfacet
  facet normal 0 0.6494488 0.7604053
    outer loop
      vertex 8 11.420622 -3.9293785
      vertex 12 11.420622 -3.9293785
      vertex 8 11.70401 -4.1714153
    endloop
  endfacet
  facet normal 1 0 0
    outer loop
      vertex 8 11.420622 -3.9293785
      vertex 8 11.70401 -4.1714153
      vertex 8 14.495991 -4.1714153
    endloop
  endfacet
  facet normal 1 0 0
    outer loop
      vertex 8 11.420622 -3.9293785
      vertex 8 14.495991 -4.1714153
      vertex 8 14.779379 -3.9293785
    endloop
  endfacet
  facet normal 0 0.5224979 -0.85264057
    outer loop
      vertex 8 11.70401 -0.32858467
      vertex 12 12.021773 -0.1338594
      vertex 12 11.70401 -0.32858467
    endloop
  endfacet
  facet normal 0 0.5224979 -0.85264057
    outer loop
      vertex 8 11.70401 -0.32858467
      vertex 8 12.021773 -0.1338594
      vertex 12 12.021773 -0.1338594
    endloop
  endfacet
  facet normal 1 0 0
    outer loop
      vertex 8 11.70401 -0.32858467
      vertex 8 14.495991 -0.32858467
      vertex 8 12.021773 -0.1338594
    endloop
  endfacet
  facet normal 1 0 0
    outer loop
      vertex 8 11.70401 -0.32858467
      vertex 8 14.779379 -0.5706214
      vertex 8 14.495991 -0.32858467
    endloop
  endfacet
  facet normal 0 0.6494488 0.7604053
    outer loop
      vertex 8 11.70401 -4.1714153
      vertex 12 11.420622 -3.9293785
      vertex 12 11.70401 -4.1714153
    endloop
  endfacet
  facet normal 0 0.5224974 0.85264087
    outer loop
      vertex 8 11.70401 -4.1714153
      vertex 12 11.70401 -4.1714153
      vertex 8 12.021773 -4.3661404
    endloop
  endfacet
  facet normal 1 0 0
    outer loop
      vertex 8 11.70401 -4.1714153
      vertex 8 12.021773 -4.3661404
      vertex 8 14.178227 -4.3661404
    endloop
  endfacet
  facet normal 1 0 0
    outer loop
      vertex 8 11.70401 -4.1714153
      vertex 8 14.178227 -4.3661404
      vertex 8 14.495991 -4.1714153
    endloop
  endfacet
  facet normal 0 0.3826836 -0.92387944
    outer loop
      vertex 8 12.021773 -0.1338594
      vertex 12 12.366085 0.00875926
      vertex 12 12.021773 -0.1338594
    endloop
  endfacet
  facet normal 0 0.3826836 -0.92387944
    outer loop
      vertex 8 12.021773 -0.1338594
      vertex 8 12.366085 0.00875926
      vertex 12 12.366085 0.00875926
    endloop
  endfacet
  facet normal 1 0 0
    outer loop
      vertex 8 12.021773 -0.1338594
      vertex 8 14.178227 -0.1338594
      vertex 8 12.366085 0.00875926
    endloop
  endfacet
  facet normal 1 0 0
    outer loop
      vertex 8 12.021773 -0.1338594
      vertex 8 14.495991 -0.32858467
      vertex 8 14.178227 -0.1338594
    endloop
  endfacet
  facet normal 0 0.5224974 0.85264087
    outer loop
      vertex 8 12.021773 -4.3661404
      vertex 12 11.70401 -4.1714153
      vertex 12 12.021773 -4.3661404
    endloop
  endfacet
  facet normal 0 0.3826847 0.923879
    outer loop
      vertex 8 12.021773 -4.3661404
      vertex 12 12.021773 -4.3661404
      vertex 8 12.366085 -4.5087595
    endloop
  endfacet
  facet normal 1 0 0
    outer loop
      vertex 8 12.021773 -4.3661404
      vertex 8 12.366085 -4.5087595
      vertex 8 13.833916 -4.5087595
    endloop
  endfacet
  facet normal 1 0 0
    outer loop
      vertex 8 12.021773 -4.3661404
      vertex 8 13.833916 -4.5087595
      vertex 8 14.178227 -4.3661404
    endloop
  endfacet
  facet normal 0 0.3826847 0.923879
    outer loop
      vertex 8 12.366085 -4.5087595
      vertex 12 12.021773 -4.3661404
      vertex 12 12.366085 -4.5087595
    endloop
  endfacet
  facet normal 0 0.23344462 0.9723701
    outer loop
      vertex 8 12.366085 -4.5087595
      vertex 12 12.366085 -4.5087595
      vertex 12 12.728469 -4.59576
    endloop
  endfacet
  facet normal 0 0.23344462 0.9723701
    outer loop
      vertex 8 12.366085 -4.5087595
      vertex 12 12.728469 -4.59576
      vertex 8 12.728469 -4.59576
    endloop
  endfacet
  facet normal 1 0 0
    outer loop
      vertex 8 12.366085 -4.5087595
      vertex 8 12.728469 -4.59576
      vertex 8 13.471532 -4.59576
    endloop
  endfacet
  facet normal 1 0 0
    outer loop
      vertex 8 12.366085 -4.5087595
      vertex 8 13.471532 -4.59576
      vertex 8 13.833916 -4.5087595
    endloop
  endfacet
  facet normal 0 0.23344523 -0.97236997
    outer loop
      vertex 8 12.366085 0.00875926
      vertex 12 12.728469 0.09575987
      vertex 12 12.366085 0.00875926
    endloop
  endfacet
  facet normal 0 0.23344523 -0.97236997
    outer loop
      vertex 8 12.366085 0.00875926
      vertex 8 12.728469 0.09575987
      vertex 12 12.728469 0.09575987
    endloop
  endfacet
  facet normal 1 0 0
    outer loop
      vertex 8 12.366085 0.00875926
      vertex 8 13.833916 0.00875926
      vertex 8 12.728469 0.09575987
    endloop
  endfacet
  facet normal 1 0 0
    outer loop
      vertex 8 12.366085 0.00875926
      vertex 8 14.178227 -0.1338594
      vertex 8 13.833916 0.00875926
    endloop
  endfacet
  facet normal 0 0.07845902 0.99691737
    outer loop
      vertex 8 12.728469 -4.59576
      vertex 12 12.728469 -4.59576
      vertex 8 13.1 -4.625
    endloop
  endfacet
  facet normal 1 0 0
    outer loop
      vertex 8 12.728469 -4.59576
      vertex 8 13.1 -4.625
      vertex 8 13.471532 -4.59576
    endloop
  endfacet
  facet normal 0 0.07845902 -0.99691737
    outer loop
      vertex 8 12.728469 0.09575987
      vertex 12 13.1 0.125
      vertex 12 12.728469 0.09575987
    endloop
  endfacet
  facet normal 0 0.07845902 -0.99691737
    outer loop
      vertex 8 12.728469 0.09575987
      vertex 8 13.1 0.125
      vertex 12 13.1 0.125
    endloop
  endfacet
  facet normal 1 0 0
    outer loop
      vertex 8 12.728469 0.09575987
      vertex 8 13.471532 0.09575987
      vertex 8 13.1 0.125
    endloop
  endfacet
  facet normal 1 0 0
    outer loop
      vertex 8 12.728469 0.09575987
      vertex 8 13.833916 0.00875926
      vertex 8 13.471532 0.09575987
    endloop
  endfacet
  facet normal 1 0 0
    outer loop
      vertex 8 13.1 -0.875
      vertex 8 13.385879 -0.90504706
      vertex 8 15.021416 -0.85401
    endloop
  endfacet
  facet normal 1 0 0
    outer loop
      vertex 8 13.1 -3.625
      vertex 8 15.021416 -3.64599
      vertex 8 13.385879 -3.594953
    endloop
  endfacet
  facet normal 0 0.07845902 0.99691737
    outer loop
      vertex 8 13.1 -4.625
      vertex 12 12.728469 -4.59576
      vertex 12 13.1 -4.625
    endloop
  endfacet
  facet normal 0 -0.07845902 0.99691737
    outer loop
      vertex 8 13.1 -4.625
      vertex 12 13.1 -4.625
      vertex 8 13.471532 -4.59576
    endloop
  endfacet
  facet normal 0 -0.07845902 -0.99691737
    outer loop
      vertex 8 13.1 0.125
      vertex 12 13.471532 0.09575987
      vertex 12 13.1 0.125
    endloop
  endfacet
  facet normal 0 -0.07845902 -0.99691737
    outer loop
      vertex 8 13.1 0.125
      vertex 8 13.471532 0.09575987
      vertex 12 13.471532 0.09575987
    endloop
  endfacet
  facet normal 1 0 0
    outer loop
      vertex 8 13.385879 -0.90504706
      vertex 8 13.659264 -0.993875
      vertex 8 15.021416 -0.85401
    endloop
  endfacet
  facet normal 1 0 0
    outer loop
      vertex 8 13.385879 -3.594953
      vertex 8 15.021416 -3.64599
      vertex 8 13.659264 -3.506125
    endloop
  endfacet
  facet normal 0 -0.07845902 0.99691737
    outer loop
      vertex 8 13.471532 -4.59576
      vertex 12 13.1 -4.625
      vertex 12 13.471532 -4.59576
    endloop
  endfacet
  facet normal 0 -0.23344462 0.9723701
    outer loop
      vertex 8 13.471532 -4.59576
      vertex 12 13.471532 -4.59576
      vertex 8 13.833916 -4.5087595
    endloop
  endfacet
  facet normal 0 -0.23344523 -0.97236997
    outer loop
      vertex 8 13.471532 0.09575987
      vertex 12 13.833916 0.00875926
      vertex 12 13.471532 0.09575987
    endloop
  endfacet
  facet normal 0 -0.23344523 -0.97236997
    outer loop
      vertex 8 13.471532 0.09575987
      vertex 8 13.833916 0.00875926
      vertex 12 13.833916 0.00875926
    endloop
  endfacet
  facet normal 1 0 0
    outer loop
      vertex 8 13.659264 -0.993875
      vertex 8 13.908205 -1.1376016
      vertex 8 15.216141 -1.1717726
    endloop
  endfacet
  facet normal 1 0 0
    outer loop
      vertex 8 13.659264 -0.993875
      vertex 8 15.216141 -1.1717726
      vertex 8 15.021416 -0.85401
    endloop
  endfacet
  facet normal 1 0 0
    outer loop
      vertex 8 13.659264 -3.506125
      vertex 8 15.021416 -3.64599
      vertex 8 13.908205 -3.3623984
    endloop
  endfacet
  facet normal 0 -0.23344462 0.9723701
    outer loop
      vertex 8 13.833916 -4.5087595
      vertex 12 13.471532 -4.59576
      vertex 12 13.833916 -4.5087595
    endloop
  endfacet
  facet normal 0 -0.3826847 0.923879
    outer loop
      vertex 8 13.833916 -4.5087595
      vertex 12 13.833916 -4.5087595
      vertex 8 14.178227 -4.3661404
    endloop
  endfacet
  facet normal 0 -0.3826836 -0.92387944
    outer loop
      vertex 8 13.833916 0.00875926
      vertex 12 14.178227 -0.1338594
      vertex 12 13.833916 0.00875926
    endloop
  endfacet
  facet normal 0 -0.3826836 -0.92387944
    outer loop
      vertex 8 13.833916 0.00875926
      vertex 8 14.178227 -0.1338594
      vertex 12 14.178227 -0.1338594
    endloop
  endfacet
  facet normal 1 0 0
    outer loop
      vertex 8 13.908205 -1.1376016
      vertex 8 14.121824 -1.3299454
      vertex 8 15.216141 -1.1717726
    endloop
  endfacet
  facet normal 1 0 0
    outer loop
      vertex 8 13.908205 -3.3623984
      vertex 8 15.021416 -3.64599
      vertex 8 14.121824 -3.1700544
    endloop
  endfacet
  facet normal 1 0 0
    outer loop
      vertex 8 14.121824 -1.3299454
      vertex 8 14.290785 -1.5625
      vertex 8 15.35876 -1.5160847
    endloop
  endfacet
  facet normal 1 0 0
    outer loop
      vertex 8 14.121824 -1.3299454
      vertex 8 15.35876 -1.5160847
      vertex 8 15.216141 -1.1717726
    endloop
  endfacet
  facet normal 1 0 0
    outer loop
      vertex 8 14.121824 -3.1700544
      vertex 8 15.021416 -3.64599
      vertex 8 15.216141 -3.3282275
    endloop
  endfacet
  facet normal 1 0 0
    outer loop
      vertex 8 14.121824 -3.1700544
      vertex 8 15.216141 -3.3282275
      vertex 8 14.290785 -2.9375
    endloop
  endfacet
  facet normal 0 -0.5224979 -0.85264057
    outer loop
      vertex 8 14.178227 -0.1338594
      vertex 12 14.495991 -0.32858467
      vertex 12 14.178227 -0.1338594
    endloop
  endfacet
  facet normal 0 -0.5224979 -0.85264057
    outer loop
      vertex 8 14.178227 -0.1338594
      vertex 8 14.495991 -0.32858467
      vertex 12 14.495991 -0.32858467
    endloop
  endfacet
  facet normal 0 -0.3826847 0.923879
    outer loop
      vertex 8 14.178227 -4.3661404
      vertex 12 13.833916 -4.5087595
      vertex 12 14.178227 -4.3661404
    endloop
  endfacet
  facet normal 0 -0.5224974 0.85264087
    outer loop
      vertex 8 14.178227 -4.3661404
      vertex 12 14.178227 -4.3661404
      vertex 8 14.495991 -4.1714153
    endloop
  endfacet
  facet normal 1 0 0
    outer loop
      vertex 8 14.290785 -1.5625
      vertex 8 14.407703 -1.8251016
      vertex 8 15.445761 -1.8784682
    endloop
  endfacet
  facet normal 1 0 0
    outer loop
      vertex 8 14.290785 -1.5625
      vertex 8 15.445761 -1.8784682
      vertex 8 15.35876 -1.5160847
    endloop
  endfacet
  facet normal 1 0 0
    outer loop
      vertex 8 14.290785 -2.9375
      vertex 8 15.216141 -3.3282275
      vertex 8 15.35876 -2.9839153
    endloop
  endfacet
  facet normal 1 0 0
    outer loop
      vertex 8 14.290785 -2.9375
      vertex 8 15.35876 -2.9839153
      vertex 8 14.407703 -2.6748984
    endloop
  endfacet
  facet normal 1 0 0
    outer loop
      vertex 8 14.407703 -1.8251016
      vertex 8 14.467468 -2.1062734
      vertex 8 15.445761 -1.8784682
    endloop
  endfacet
  facet normal 1 0 0
    outer loop
      vertex 8 14.407703 -2.6748984
      vertex 8 15.35876 -2.9839153
      vertex 8 14.467468 -2.3937266
    endloop
  endfacet
  facet normal 1 0 0
    outer loop
      vertex 8 14.467468 -2.1062734
      vertex 8 15.475 -2.25
      vertex 8 15.445761 -1.8784682
    endloop
  endfacet
  facet normal 1 0 0
    outer loop
      vertex 8 14.467468 -2.3937266
      vertex 8 15.35876 -2.9839153
      vertex 8 15.445761 -2.621532
    endloop
  endfacet
  facet normal 1 0 0
    outer loop
      vertex 8 14.467468 -2.3937266
      vertex 8 15.445761 -2.621532
      vertex 8 15.475 -2.25
    endloop
  endfacet
  facet normal 1 0 0
    outer loop
      vertex 8 14.467468 -2.3937266
      vertex 8 15.475 -2.25
      vertex 8 14.467468 -2.1062734
    endloop
  endfacet
  facet normal 0 -0.64944863 -0.7604055
    outer loop
      vertex 8 14.495991 -0.32858467
      vertex 12 14.779379 -0.5706214
      vertex 12 14.495991 -0.32858467
    endloop
  endfacet
  facet normal 0 -0.64944863 -0.7604055
    outer loop
      vertex 8 14.495991 -0.32858467
      vertex 8 14.779379 -0.5706214
      vertex 12 14.779379 -0.5706214
    endloop
  endfacet
  facet normal 0 -0.5224974 0.85264087
    outer loop
      vertex 8 14.495991 -4.1714153
      vertex 12 14.178227 -4.3661404
      vertex 12 14.495991 -4.1714153
    endloop
  endfacet
  facet normal 0 -0.6494488 0.7604053
    outer loop
      vertex 8 14.495991 -4.1714153
      vertex 12 14.495991 -4.1714153
      vertex 8 14.779379 -3.9293785
    endloop
  endfacet
  facet normal 0 -0.76040584 -0.64944816
    outer loop
      vertex 8 14.779379 -0.5706214
      vertex 12 15.021416 -0.85401
      vertex 12 14.779379 -0.5706214
    endloop
  endfacet
  facet normal 0 -0.76040584 -0.64944816
    outer loop
      vertex 8 14.779379 -0.5706214
      vertex 8 15.021416 -0.85401
      vertex 12 15.021416 -0.85401
    endloop
  endfacet
  facet normal 0 -0.6494488 0.7604053
    outer loop
      vertex 8 14.779379 -3.9293785
      vertex 12 14.495991 -4.1714153
      vertex 12 14.779379 -3.9293785
    endloop
  endfacet
  facet normal 0 -0.76040584 0.64944816
    outer loop
      vertex 8 14.779379 -3.9293785
      vertex 12 14.779379 -3.9293785
      vertex 8 15.021416 -3.64599
    endloop
  endfacet
  facet normal 0 -0.85264033 -0.5224983
    outer loop
      vertex 8 15.021416 -0.85401
      vertex 12 15.216141 -1.1717726
      vertex 12 15.021416 -0.85401
    endloop
  endfacet
  facet normal 0 -0.85264033 -0.5224983
    outer loop
      vertex 8 15.021416 -0.85401
      vertex 8 15.216141 -1.1717726
      vertex 12 15.216141 -1.1717726
    endloop
  endfacet
  facet normal 0 -0.76040584 0.64944816
    outer loop
      vertex 8 15.021416 -3.64599
      vertex 12 14.779379 -3.9293785
      vertex 12 15.021416 -3.64599
    endloop
  endfacet
  facet normal 0 -0.85264015 0.52249855
    outer loop
      vertex 8 15.021416 -3.64599
      vertex 12 15.021416 -3.64599
      vertex 8 15.216141 -3.3282275
    endloop
  endfacet
  facet normal 0 -0.92387915 -0.38268435
    outer loop
      vertex 8 15.216141 -1.1717726
      vertex 12 15.35876 -1.5160847
      vertex 12 15.216141 -1.1717726
    endloop
  endfacet
  facet normal 0 -0.92387915 -0.38268435
    outer loop
      vertex 8 15.216141 -1.1717726
      vertex 8 15.35876 -1.5160847
      vertex 12 15.35876 -1.5160847
    endloop
  endfacet
  facet normal 0 -0.85264015 0.52249855
    outer loop
      vertex 8 15.216141 -3.3282275
      vertex 12 15.021416 -3.64599
      vertex 12 15.216141 -3.3282275
    endloop
  endfacet
  facet normal 0 -0.9238792 0.38268423
    outer loop
      vertex 8 15.216141 -3.3282275
      vertex 12 15.216141 -3.3282275
      vertex 8 15.35876 -2.9839153
    endloop
  endfacet
  facet normal 0 -0.97236973 -0.23344605
    outer loop
      vertex 8 15.35876 -1.5160847
      vertex 12 15.445761 -1.8784682
      vertex 12 15.35876 -1.5160847
    endloop
  endfacet
  facet normal 0 -0.97236973 -0.23344605
    outer loop
      vertex 8 15.35876 -1.5160847
      vertex 8 15.445761 -1.8784682
      vertex 12 15.445761 -1.8784682
    endloop
  endfacet
  facet normal 0 -0.9238792 0.38268423
    outer loop
      vertex 8 15.35876 -2.9839153
      vertex 12 15.216141 -3.3282275
      vertex 12 15.35876 -2.9839153
    endloop
  endfacet
  facet normal 0 -0.97236973 0.23344612
    outer loop
      vertex 8 15.35876 -2.9839153
      vertex 12 15.35876 -2.9839153
      vertex 8 15.445761 -2.621532
    endloop
  endfacet
  facet normal 0 -0.9969174 -0.07845767
    outer loop
      vertex 8 15.445761 -1.8784682
      vertex 12 15.475 -2.25
      vertex 12 15.445761 -1.8784682
    endloop
  endfacet
  facet normal 0 -0.9969174 -0.07845767
    outer loop
      vertex 8 15.445761 -1.8784682
      vertex 8 15.475 -2.25
      vertex 12 15.475 -2.25
    endloop
  endfacet
  facet normal 0 -0.97236973 0.23344612
    outer loop
      vertex 8 15.445761 -2.621532
      vertex 12 15.35876 -2.9839153
      vertex 12 15.445761 -2.621532
    endloop
  endfacet
  facet normal 0 -0.9969174 0.07845764
    outer loop
      vertex 8 15.445761 -2.621532
      vertex 12 15.445761 -2.621532
      vertex 8 15.475 -2.25
    endloop
  endfacet
  facet normal 0 -0.9969174 0.07845764
    outer loop
      vertex 8 15.475 -2.25
      vertex 12 15.445761 -2.621532
      vertex 12 15.475 -2.25
    endloop
  endfacet
endsolid OpenSCAD_Model
