solid OpenSCAD_Model
  facet normal 0 0 -1
    outer loop
      vertex -10 -4 -3.15
      vertex 2 -4 -3.15
      vertex 10 -4.0594406 -3.15
    endloop
  endfacet
  facet normal 0 -1 0
    outer loop
      vertex -10 -4 -3.15
      vertex 2 -4 -3.3
      vertex 2 -4 -3.15
    endloop
  endfacet
  facet normal 0 -1 0
    outer loop
      vertex -10 -4 1.15
      vertex 2 -4 1.15
      vertex 2 -4 1.3
    endloop
  endfacet
  facet normal -1 0 0
    outer loop
      vertex -10 -4.0594406 -3.15
      vertex -10 -4 -3.0905595
      vertex -10 -4 -3.15
    endloop
  endfacet
  facet normal 0 0 -1
    outer loop
      vertex -10 -4.0594406 -3.15
      vertex -10 -4 -3.15
      vertex 10 -4.0594406 -3.15
    endloop
  endfacet
  facet normal -1 0 0
    outer loop
      vertex -10 -4.059441 1.15
      vertex -10 -4 -3.0905595
      vertex -10 -4.0594406 -3.15
    endloop
  endfacet
  facet normal -1 0 0
    outer loop
      vertex -10 -4.059441 1.15
      vertex -10 -4 1.0905589
      vertex -10 -4 -3.0905595
    endloop
  endfacet
  facet normal -1 0 0
    outer loop
      vertex -10 -4.059441 1.15
      vertex -10 -4 1.15
      vertex -10 -4 1.0905589
    endloop
  endfacet
  facet normal 0 0 1
    outer loop
      vertex -10 -4.059441 1.15
      vertex 10 -4.059441 1.15
      vertex 2 -4 1.15
    endloop
  endfacet
  facet normal 0 0 1
    outer loop
      vertex -10 -4.059441 1.15
      vertex 10 -5.840559 1.15
      vertex 10 -4.059441 1.15
    endloop
  endfacet
  facet normal 0 0 1
    outer loop
      vertex -10 -4.059441 1.15
      vertex 2 -4 1.15
      vertex -10 -4 1.15
    endloop
  endfacet
  facet normal 0 0 -1
    outer loop
      vertex -10 -5.840559 -3.15
      vertex -10 -4.0594406 -3.15
      vertex 10 -4.0594406 -3.15
    endloop
  endfacet
  facet normal 0 0 -1
    outer loop
      vertex -10 -5.840559 -3.15
      vertex 10 -4.0594406 -3.15
      vertex 10 -5.840559 -3.15
    endloop
  endfacet
  facet normal 0 0 -1
    outer loop
      vertex -10 -5.840559 -3.15
      vertex 10 -5.840559 -3.15
      vertex 10 -6.45 -3.15
    endloop
  endfacet
  facet normal 0 0 1
    outer loop
      vertex -10 -5.840559 1.15
      vertex 10 -5.840559 1.15
      vertex -10 -4.059441 1.15
    endloop
  endfacet
  facet normal -1 0 0
    outer loop
      vertex -10 -6.45 -2.5405593
      vertex -10 -4.0594406 -3.15
      vertex -10 -5.840559 -3.15
    endloop
  endfacet
  facet normal 0 0 -1
    outer loop
      vertex -10 -6.45 -3.15
      vertex -10 -5.840559 -3.15
      vertex 10 -6.45 -3.15
    endloop
  endfacet
  facet normal -1 0 0
    outer loop
      vertex -10 -6.45 -3.15
      vertex -10 -6.45 -2.5405593
      vertex -10 -5.840559 -3.15
    endloop
  endfacet
  facet normal 0 -1 0
    outer loop
      vertex -10 -6.45 -3.15
      vertex 10 -6.45 -2.5405593
      vertex -10 -6.45 -2.5405593
    endloop
  endfacet
  facet normal 0 -1 0
    outer loop
      vertex -10 -6.45 -3.15
      vertex 10 -6.45 -3.15
      vertex 10 -6.45 -2.5405593
    endloop
  endfacet
  facet normal -1 0 0
    outer loop
      vertex -10 -6.45 0.5405592
      vertex -10 -5.840559 1.15
      vertex -10 -4.059441 1.15
    endloop
  endfacet
  facet normal -1 0 0
    outer loop
      vertex -10 -6.45 0.5405592
      vertex -10 -6.45 1.15
      vertex -10 -5.840559 1.15
    endloop
  endfacet
  facet normal 0 -1 0
    outer loop
      vertex -10 -6.45 0.5405592
      vertex 10 -6.45 0.5405592
      vertex 10 -6.45 1.15
    endloop
  endfacet
  facet normal 0 -1 0
    outer loop
      vertex -10 -6.45 0.5405592
      vertex 10 -6.45 1.15
      vertex -10 -6.45 1.15
    endloop
  endfacet
  facet normal 0 -0.70710677 0.7071068
    outer loop
      vertex -10 -6.45 0.5405592
      vertex 10 -7.990559 -1
      vertex 10 -6.45 0.5405592
    endloop
  endfacet
  facet normal 0 0 1
    outer loop
      vertex -10 -6.45 1.15
      vertex 10 -5.840559 1.15
      vertex -10 -5.840559 1.15
    endloop
  endfacet
  facet normal 0 0 1
    outer loop
      vertex -10 -6.45 1.15
      vertex 10 -6.45 1.15
      vertex 10 -5.840559 1.15
    endloop
  endfacet
  facet normal -1 0 0
    outer loop
      vertex -10 -7.990559 -1
      vertex -10 -4.0594406 -3.15
      vertex -10 -6.45 -2.5405593
    endloop
  endfacet
  facet normal -1 0 0
    outer loop
      vertex -10 -7.990559 -1
      vertex -10 -4.059441 1.15
      vertex -10 -4.0594406 -3.15
    endloop
  endfacet
  facet normal 0 -0.70710677 -0.70710677
    outer loop
      vertex -10 -7.990559 -1
      vertex -10 -6.45 -2.5405593
      vertex 10 -6.45 -2.5405593
    endloop
  endfacet
  facet normal -1 0 0
    outer loop
      vertex -10 -7.990559 -1
      vertex -10 -6.45 0.5405592
      vertex -10 -4.059441 1.15
    endloop
  endfacet
  facet normal 0 -0.70710677 -0.70710677
    outer loop
      vertex -10 -7.990559 -1
      vertex 10 -6.45 -2.5405593
      vertex 10 -7.990559 -1
    endloop
  endfacet
  facet normal 0 -0.70710677 0.7071068
    outer loop
      vertex -10 -7.990559 -1
      vertex 10 -7.990559 -1
      vertex -10 -6.45 0.5405592
    endloop
  endfacet
  facet normal -1 0 0
    outer loop
      vertex -10 4 -3.0905595
      vertex -10 4 1.0905589
      vertex -10 4.0594406 -3.15
    endloop
  endfacet
  facet normal -1 0 0
    outer loop
      vertex -10 4 -3.15
      vertex -10 4 -3.0905595
      vertex -10 4.0594406 -3.15
    endloop
  endfacet
  facet normal 0 0 -1
    outer loop
      vertex -10 4 -3.15
      vertex -10 4.0594406 -3.15
      vertex 2 4 -3.15
    endloop
  endfacet
  facet normal 0 1 0
    outer loop
      vertex -10 4 -3.15
      vertex 2 4 -3.15
      vertex 2 4 -3.3
    endloop
  endfacet
  facet normal -1 0 0
    outer loop
      vertex -10 4 1.0905589
      vertex -10 4 1.15
      vertex -10 4.059441 1.15
    endloop
  endfacet
  facet normal -1 0 0
    outer loop
      vertex -10 4 1.0905589
      vertex -10 4.059441 1.15
      vertex -10 4.0594406 -3.15
    endloop
  endfacet
  facet normal 0 0 1
    outer loop
      vertex -10 4 1.15
      vertex 10 4.059441 1.15
      vertex -10 4.059441 1.15
    endloop
  endfacet
  facet normal 0 0 1
    outer loop
      vertex -10 4 1.15
      vertex 2 4 1.15
      vertex 10 4.059441 1.15
    endloop
  endfacet
  facet normal 0 1 0
    outer loop
      vertex -10 4 1.15
      vertex 2 4 1.3
      vertex 2 4 1.15
    endloop
  endfacet
  facet normal -1 0 0
    outer loop
      vertex -10 4.0594406 -3.15
      vertex -10 4.059441 1.15
      vertex -10 7.990559 -1
    endloop
  endfacet
  facet normal 0 0 -1
    outer loop
      vertex -10 4.0594406 -3.15
      vertex -10 5.840559 -3.15
      vertex 10 5.840559 -3.15
    endloop
  endfacet
  facet normal -1 0 0
    outer loop
      vertex -10 4.0594406 -3.15
      vertex -10 6.45 -2.5405593
      vertex -10 5.840559 -3.15
    endloop
  endfacet
  facet normal -1 0 0
    outer loop
      vertex -10 4.0594406 -3.15
      vertex -10 7.990559 -1
      vertex -10 6.45 -2.5405593
    endloop
  endfacet
  facet normal 0 0 -1
    outer loop
      vertex -10 4.0594406 -3.15
      vertex 10 4.0594406 -3.15
      vertex 2 4 -3.15
    endloop
  endfacet
  facet normal 0 0 -1
    outer loop
      vertex -10 4.0594406 -3.15
      vertex 10 5.840559 -3.15
      vertex 10 4.0594406 -3.15
    endloop
  endfacet
  facet normal -1 0 0
    outer loop
      vertex -10 4.059441 1.15
      vertex -10 5.840559 1.15
      vertex -10 6.45 0.5405592
    endloop
  endfacet
  facet normal -1 0 0
    outer loop
      vertex -10 4.059441 1.15
      vertex -10 6.45 0.5405592
      vertex -10 7.990559 -1
    endloop
  endfacet
  facet normal 0 0 1
    outer loop
      vertex -10 4.059441 1.15
      vertex 10 4.059441 1.15
      vertex -10 5.840559 1.15
    endloop
  endfacet
  facet normal -1 0 0
    outer loop
      vertex -10 5.840559 -3.15
      vertex -10 6.45 -2.5405593
      vertex -10 6.45 -3.15
    endloop
  endfacet
  facet normal 0 0 -1
    outer loop
      vertex -10 5.840559 -3.15
      vertex -10 6.45 -3.15
      vertex 10 5.840559 -3.15
    endloop
  endfacet
  facet normal -1 0 0
    outer loop
      vertex -10 5.840559 1.15
      vertex -10 6.45 1.15
      vertex -10 6.45 0.5405592
    endloop
  endfacet
  facet normal 0 0 1
    outer loop
      vertex -10 5.840559 1.15
      vertex 10 4.059441 1.15
      vertex 10 5.840559 1.15
    endloop
  endfacet
  facet normal 0 0 1
    outer loop
      vertex -10 5.840559 1.15
      vertex 10 5.840559 1.15
      vertex 10 6.45 1.15
    endloop
  endfacet
  facet normal 0 0 1
    outer loop
      vertex -10 5.840559 1.15
      vertex 10 6.45 1.15
      vertex -10 6.45 1.15
    endloop
  endfacet
  facet normal 0 0.70710677 -0.70710677
    outer loop
      vertex -10 6.45 -2.5405593
      vertex -10 7.990559 -1
      vertex 10 7.990559 -1
    endloop
  endfacet
  facet normal 0 1 0
    outer loop
      vertex -10 6.45 -2.5405593
      vertex 10 6.45 -2.5405593
      vertex 10 6.45 -3.15
    endloop
  endfacet
  facet normal 0 0.70710677 -0.70710677
    outer loop
      vertex -10 6.45 -2.5405593
      vertex 10 7.990559 -1
      vertex 10 6.45 -2.5405593
    endloop
  endfacet
  facet normal 0 1 0
    outer loop
      vertex -10 6.45 -3.15
      vertex -10 6.45 -2.5405593
      vertex 10 6.45 -3.15
    endloop
  endfacet
  facet normal 0 0 -1
    outer loop
      vertex -10 6.45 -3.15
      vertex 10 6.45 -3.15
      vertex 10 5.840559 -3.15
    endloop
  endfacet
  facet normal 0 1 0
    outer loop
      vertex -10 6.45 0.5405592
      vertex -10 6.45 1.15
      vertex 10 6.45 0.5405592
    endloop
  endfacet
  facet normal 0 0.70710677 0.7071068
    outer loop
      vertex -10 6.45 0.5405592
      vertex 10 6.45 0.5405592
      vertex -10 7.990559 -1
    endloop
  endfacet
  facet normal 0 1 0
    outer loop
      vertex -10 6.45 1.15
      vertex 10 6.45 1.15
      vertex 10 6.45 0.5405592
    endloop
  endfacet
  facet normal 0 0.70710677 0.7071068
    outer loop
      vertex -10 7.990559 -1
      vertex 10 6.45 0.5405592
      vertex 10 7.990559 -1
    endloop
  endfacet
  facet normal 0 -1 0
    outer loop
      vertex -18 -4 -3.3
      vertex -10 -4 -3.0905595
      vertex -18 -4 1.3
    endloop
  endfacet
  facet normal 0 -1 0
    outer loop
      vertex -18 -4 -3.3
      vertex -10 -4 -3.15
      vertex -10 -4 -3.0905595
    endloop
  endfacet
  facet normal -1 0 0
    outer loop
      vertex -18 -4 -3.3
      vertex -18 -4 1.3
      vertex -18 4 1.3
    endloop
  endfacet
  facet normal 0 0 -1
    outer loop
      vertex -18 -4 -3.3
      vertex -18 4 -3.3
      vertex 2 4 -3.3
    endloop
  endfacet
  facet normal -1 0 0
    outer loop
      vertex -18 -4 -3.3
      vertex -18 4 1.3
      vertex -18 4 -3.3
    endloop
  endfacet
  facet normal 0 -1 0
    outer loop
      vertex -18 -4 -3.3
      vertex 2 -4 -3.3
      vertex -10 -4 -3.15
    endloop
  endfacet
  facet normal 0 0 -1
    outer loop
      vertex -18 -4 -3.3
      vertex 2 4 -3.3
      vertex 2 -4 -3.3
    endloop
  endfacet
  facet normal 0 -1 0
    outer loop
      vertex -18 -4 1.3
      vertex -10 -4 -3.0905595
      vertex -10 -4 1.0905589
    endloop
  endfacet
  facet normal 0 -1 0
    outer loop
      vertex -18 -4 1.3
      vertex -10 -4 1.0905589
      vertex -10 -4 1.15
    endloop
  endfacet
  facet normal 0 -1 0
    outer loop
      vertex -18 -4 1.3
      vertex -10 -4 1.15
      vertex 2 -4 1.3
    endloop
  endfacet
  facet normal 0 0 1
    outer loop
      vertex -18 -4 1.3
      vertex 2 -4 1.3
      vertex -18 4 1.3
    endloop
  endfacet
  facet normal 0 1 0
    outer loop
      vertex -18 4 -3.3
      vertex -10 4 -3.0905595
      vertex -10 4 -3.15
    endloop
  endfacet
  facet normal 0 1 0
    outer loop
      vertex -18 4 -3.3
      vertex -10 4 -3.15
      vertex 2 4 -3.3
    endloop
  endfacet
  facet normal 0 1 0
    outer loop
      vertex -18 4 -3.3
      vertex -10 4 1.0905589
      vertex -10 4 -3.0905595
    endloop
  endfacet
  facet normal 0 1 0
    outer loop
      vertex -18 4 -3.3
      vertex -18 4 1.3
      vertex -10 4 1.0905589
    endloop
  endfacet
  facet normal 0 1 0
    outer loop
      vertex -18 4 1.3
      vertex -10 4 1.15
      vertex -10 4 1.0905589
    endloop
  endfacet
  facet normal 0 0 1
    outer loop
      vertex -18 4 1.3
      vertex 2 -4 1.3
      vertex 2 4 1.3
    endloop
  endfacet
  facet normal 0 1 0
    outer loop
      vertex -18 4 1.3
      vertex 2 4 1.3
      vertex -10 4 1.15
    endloop
  endfacet
  facet normal 1 0 0
    outer loop
      vertex 10 -4.0594406 -3.15
      vertex 10 4.0594406 -3.15
      vertex 10 -1.9094409 -1
    endloop
  endfacet
  facet normal 1 0 0
    outer loop
      vertex 10 -4.059441 1.15
      vertex 10 -1.9094409 -1
      vertex 10 4.0594406 -3.15
    endloop
  endfacet
  facet normal 1 0 0
    outer loop
      vertex 10 -4.059441 1.15
      vertex 10 -4.0594406 -3.15
      vertex 10 -1.9094409 -1
    endloop
  endfacet
  facet normal 1 0 0
    outer loop
      vertex 10 -4.059441 1.15
      vertex 10 1.9094409 -1
      vertex 10 4.059441 1.15
    endloop
  endfacet
  facet normal 1 0 0
    outer loop
      vertex 10 -4.059441 1.15
      vertex 10 4.0594406 -3.15
      vertex 10 1.9094409 -1
    endloop
  endfacet
  facet normal 1 0 0
    outer loop
      vertex 10 -6.45 -2.5405593
      vertex 10 -5.840559 -3.15
      vertex 10 -4.0594406 -3.15
    endloop
  endfacet
  facet normal 1 0 0
    outer loop
      vertex 10 -6.45 -3.15
      vertex 10 -5.840559 -3.15
      vertex 10 -6.45 -2.5405593
    endloop
  endfacet
  facet normal 1 0 0
    outer loop
      vertex 10 -6.45 0.5405592
      vertex 10 -4.059441 1.15
      vertex 10 -5.840559 1.15
    endloop
  endfacet
  facet normal 1 0 0
    outer loop
      vertex 10 -6.45 0.5405592
      vertex 10 -5.840559 1.15
      vertex 10 -6.45 1.15
    endloop
  endfacet
  facet normal 1 0 0
    outer loop
      vertex 10 -7.990559 -1
      vertex 10 -4.0594406 -3.15
      vertex 10 -4.059441 1.15
    endloop
  endfacet
  facet normal 1 0 0
    outer loop
      vertex 10 -7.990559 -1
      vertex 10 -4.059441 1.15
      vertex 10 -6.45 0.5405592
    endloop
  endfacet
  facet normal 1 0 0
    outer loop
      vertex 10 -7.990559 -1
      vertex 10 -6.45 -2.5405593
      vertex 10 -4.0594406 -3.15
    endloop
  endfacet
  facet normal 1 0 0
    outer loop
      vertex 10 1.9094409 -1
      vertex 10 4.0594406 -3.15
      vertex 10 4.059441 1.15
    endloop
  endfacet
  facet normal 1 0 0
    outer loop
      vertex 10 4.0594406 -3.15
      vertex 10 5.840559 -3.15
      vertex 10 6.45 -2.5405593
    endloop
  endfacet
  facet normal 1 0 0
    outer loop
      vertex 10 4.0594406 -3.15
      vertex 10 6.45 -2.5405593
      vertex 10 7.990559 -1
    endloop
  endfacet
  facet normal 1 0 0
    outer loop
      vertex 10 4.0594406 -3.15
      vertex 10 7.990559 -1
      vertex 10 4.059441 1.15
    endloop
  endfacet
  facet normal 1 0 0
    outer loop
      vertex 10 4.059441 1.15
      vertex 10 6.45 0.5405592
      vertex 10 5.840559 1.15
    endloop
  endfacet
  facet normal 1 0 0
    outer loop
      vertex 10 4.059441 1.15
      vertex 10 7.990559 -1
      vertex 10 6.45 0.5405592
    endloop
  endfacet
  facet normal 1 0 0
    outer loop
      vertex 10 5.840559 -3.15
      vertex 10 6.45 -3.15
      vertex 10 6.45 -2.5405593
    endloop
  endfacet
  facet normal 1 0 0
    outer loop
      vertex 10 5.840559 1.15
      vertex 10 6.45 0.5405592
      vertex 10 6.45 1.15
    endloop
  endfacet
  facet normal 0 0 -1
    outer loop
      vertex 2 -4 -3.15
      vertex 10 4.0594406 -3.15
      vertex 10 -4.0594406 -3.15
    endloop
  endfacet
  facet normal 0 0 -1
    outer loop
      vertex 2 -4 -3.15
      vertex 2 4 -3.15
      vertex 10 4.0594406 -3.15
    endloop
  endfacet
  facet normal 1 0 0
    outer loop
      vertex 2 -4 -3.15
      vertex 2 4 -3.3
      vertex 2 4 -3.15
    endloop
  endfacet
  facet normal 1 0 0
    outer loop
      vertex 2 -4 -3.3
      vertex 2 4 -3.3
      vertex 2 -4 -3.15
    endloop
  endfacet
  facet normal 0 0 1
    outer loop
      vertex 2 -4 1.15
      vertex 10 -4.059441 1.15
      vertex 2 4 1.15
    endloop
  endfacet
  facet normal 1 0 0
    outer loop
      vertex 2 -4 1.15
      vertex 2 4 1.15
      vertex 2 -4 1.3
    endloop
  endfacet
  facet normal 1 0 0
    outer loop
      vertex 2 -4 1.3
      vertex 2 4 1.15
      vertex 2 4 1.3
    endloop
  endfacet
  facet normal 0 0 1
    outer loop
      vertex 2 4 1.15
      vertex 10 -4.059441 1.15
      vertex 10 4.059441 1.15
    endloop
  endfacet
endsolid OpenSCAD_Model
