solid OpenSCAD_Model
  facet normal 0 1 0
    outer loop
      vertex -12 11.6330805 10.59582
      vertex -12 11.6330805 10.90418
      vertex 4.8999996 11.6330805 10.90418
    endloop
  endfacet
  facet normal 0 0.9781474 0.20791261
    outer loop
      vertex -12 11.6330805 10.59582
      vertex 4.8999996 11.6330805 10.59582
      vertex -12 11.697192 10.2942
    endloop
  endfacet
  facet normal 0 1 0
    outer loop
      vertex -12 11.6330805 10.59582
      vertex 4.8999996 11.6330805 10.90418
      vertex 4.8999996 11.6330805 10.59582
    endloop
  endfacet
  facet normal 0 0.9781474 -0.20791261
    outer loop
      vertex -12 11.6330805 10.90418
      vertex -12 11.697192 11.2058
      vertex 4.8999996 11.697192 11.2058
    endloop
  endfacet
  facet normal 0 0.9781474 -0.20791261
    outer loop
      vertex -12 11.6330805 10.90418
      vertex 4.8999996 11.697192 11.2058
      vertex 4.8999996 11.6330805 10.90418
    endloop
  endfacet
  facet normal 0 0.9781474 0.20791261
    outer loop
      vertex -12 11.697192 10.2942
      vertex 4.8999996 11.6330805 10.59582
      vertex 4.8999996 11.697192 10.2942
    endloop
  endfacet
  facet normal 0 0.91354597 0.40673554
    outer loop
      vertex -12 11.697192 10.2942
      vertex 4.8999996 11.697192 10.2942
      vertex -12 11.822613 10.0125
    endloop
  endfacet
  facet normal 0 0.91354597 -0.40673554
    outer loop
      vertex -12 11.697192 11.2058
      vertex -12 11.822613 11.4875
      vertex 4.8999996 11.822613 11.4875
    endloop
  endfacet
  facet normal 0 0.91354597 -0.40673554
    outer loop
      vertex -12 11.697192 11.2058
      vertex 4.8999996 11.822613 11.4875
      vertex 4.8999996 11.697192 11.2058
    endloop
  endfacet
  facet normal 0 0.9781476 -0.20791154
    outer loop
      vertex -12 11.7325325 -1.1062734
      vertex -12 11.792297 -0.8251016
      vertex 8 11.792297 -0.8251016
    endloop
  endfacet
  facet normal 0 0.9781476 -0.20791154
    outer loop
      vertex -12 11.7325325 -1.1062734
      vertex 8 11.792297 -0.8251016
      vertex 8 11.7325325 -1.1062734
    endloop
  endfacet
  facet normal 0 1 0
    outer loop
      vertex -12 11.7325325 -1.3937266
      vertex -12 11.7325325 -1.1062734
      vertex 8 11.7325325 -1.1062734
    endloop
  endfacet
  facet normal 0 1 0
    outer loop
      vertex -12 11.7325325 -1.3937266
      vertex 8 11.7325325 -1.1062734
      vertex 8 11.7325325 -1.3937266
    endloop
  endfacet
  facet normal 0 0.9781476 0.20791154
    outer loop
      vertex -12 11.7325325 -1.3937266
      vertex 8 11.7325325 -1.3937266
      vertex -12 11.792297 -1.6748984
    endloop
  endfacet
  facet normal 0 0.9135444 -0.40673894
    outer loop
      vertex -12 11.792297 -0.8251016
      vertex -12 11.909216 -0.5625
      vertex 8 11.909216 -0.5625
    endloop
  endfacet
  facet normal 0 0.9135444 -0.40673894
    outer loop
      vertex -12 11.792297 -0.8251016
      vertex 8 11.909216 -0.5625
      vertex 8 11.792297 -0.8251016
    endloop
  endfacet
  facet normal 0 0.9781476 0.20791154
    outer loop
      vertex -12 11.792297 -1.6748984
      vertex 8 11.7325325 -1.3937266
      vertex 8 11.792297 -1.6748984
    endloop
  endfacet
  facet normal 0 0.9135444 0.40673894
    outer loop
      vertex -12 11.792297 -1.6748984
      vertex 8 11.792297 -1.6748984
      vertex -12 11.909216 -1.9375
    endloop
  endfacet
  facet normal 0 0.91354597 0.40673554
    outer loop
      vertex -12 11.822613 10.0125
      vertex 4.8999996 11.697192 10.2942
      vertex 4.8999996 11.822613 10.0125
    endloop
  endfacet
  facet normal 0 0.80901754 0.5877845
    outer loop
      vertex -12 11.822613 10.0125
      vertex 4.8999996 11.822613 10.0125
      vertex -12 12.003861 9.763032
    endloop
  endfacet
  facet normal 0 0.80901754 -0.5877845
    outer loop
      vertex -12 11.822613 11.4875
      vertex -12 12.003861 11.736968
      vertex 4.8999996 12.003861 11.736968
    endloop
  endfacet
  facet normal 0 0.80901754 -0.5877845
    outer loop
      vertex -12 11.822613 11.4875
      vertex 4.8999996 12.003861 11.736968
      vertex 4.8999996 11.822613 11.4875
    endloop
  endfacet
  facet normal 0 0.8090173 -0.58778477
    outer loop
      vertex -12 11.909216 -0.5625
      vertex -12 12.0781765 -0.32994545
      vertex 8 12.0781765 -0.32994545
    endloop
  endfacet
  facet normal 0 0.8090173 -0.58778477
    outer loop
      vertex -12 11.909216 -0.5625
      vertex 8 12.0781765 -0.32994545
      vertex 8 11.909216 -0.5625
    endloop
  endfacet
  facet normal 0 0.9135444 0.40673894
    outer loop
      vertex -12 11.909216 -1.9375
      vertex 8 11.792297 -1.6748984
      vertex 8 11.909216 -1.9375
    endloop
  endfacet
  facet normal 0 0.8090172 0.587785
    outer loop
      vertex -12 11.909216 -1.9375
      vertex 8 11.909216 -1.9375
      vertex -12 12.0781765 -2.1700544
    endloop
  endfacet
  facet normal 0 0.66912997 -0.7431454
    outer loop
      vertex -12 12.003861 11.736968
      vertex -12 12.233017 11.9433
      vertex 4.8999996 12.233017 11.9433
    endloop
  endfacet
  facet normal 0 0.66912997 -0.7431454
    outer loop
      vertex -12 12.003861 11.736968
      vertex 4.8999996 12.233017 11.9433
      vertex 4.8999996 12.003861 11.736968
    endloop
  endfacet
  facet normal 0 0.80901754 0.5877845
    outer loop
      vertex -12 12.003861 9.763032
      vertex 4.8999996 11.822613 10.0125
      vertex 4.8999996 12.003861 9.763032
    endloop
  endfacet
  facet normal 0 0.66912997 0.7431454
    outer loop
      vertex -12 12.003861 9.763032
      vertex 4.8999996 12.003861 9.763032
      vertex -12 12.233017 9.5567
    endloop
  endfacet
  facet normal 0 0.669131 -0.74314445
    outer loop
      vertex -12 12.0781765 -0.32994545
      vertex -12 12.291796 -0.13760161
      vertex 8 12.291796 -0.13760161
    endloop
  endfacet
  facet normal 0 0.669131 -0.74314445
    outer loop
      vertex -12 12.0781765 -0.32994545
      vertex 8 12.291796 -0.13760161
      vertex 8 12.0781765 -0.32994545
    endloop
  endfacet
  facet normal 0 0.8090172 0.587785
    outer loop
      vertex -12 12.0781765 -2.1700544
      vertex 8 11.909216 -1.9375
      vertex 8 12.0781765 -2.1700544
    endloop
  endfacet
  facet normal 0 0.6691312 0.7431443
    outer loop
      vertex -12 12.0781765 -2.1700544
      vertex 8 12.0781765 -2.1700544
      vertex -12 12.291796 -2.3623984
    endloop
  endfacet
  facet normal 0 0.49999988 -0.86602545
    outer loop
      vertex -12 12.233017 11.9433
      vertex -12 12.500064 12.09748
      vertex 4.8999996 12.500064 12.09748
    endloop
  endfacet
  facet normal 0 0.49999988 -0.86602545
    outer loop
      vertex -12 12.233017 11.9433
      vertex 4.8999996 12.500064 12.09748
      vertex 4.8999996 12.233017 11.9433
    endloop
  endfacet
  facet normal 0 0.66912997 0.7431454
    outer loop
      vertex -12 12.233017 9.5567
      vertex 4.8999996 12.003861 9.763032
      vertex 4.8999996 12.233017 9.5567
    endloop
  endfacet
  facet normal 0 0.49999988 0.86602545
    outer loop
      vertex -12 12.233017 9.5567
      vertex 4.8999996 12.233017 9.5567
      vertex -12 12.500064 9.40252
    endloop
  endfacet
  facet normal 0 0.5000005 -0.8660251
    outer loop
      vertex -12 12.291796 -0.13760161
      vertex -12 12.540737 0.0061249733
      vertex 8 12.540737 0.0061249733
    endloop
  endfacet
  facet normal -1 0 0
    outer loop
      vertex -12 12.291796 -0.13760161
      vertex -12 13 2.75
      vertex -12 12.540737 0.0061249733
    endloop
  endfacet
  facet normal 0 0.5000005 -0.8660251
    outer loop
      vertex -12 12.291796 -0.13760161
      vertex 8 12.540737 0.0061249733
      vertex 8 12.291796 -0.13760161
    endloop
  endfacet
  facet normal 0 0.6691312 0.7431443
    outer loop
      vertex -12 12.291796 -2.3623984
      vertex 8 12.0781765 -2.1700544
      vertex 8 12.291796 -2.3623984
    endloop
  endfacet
  facet normal 0 0.5000005 0.8660251
    outer loop
      vertex -12 12.291796 -2.3623984
      vertex 8 12.291796 -2.3623984
      vertex -12 12.540737 -2.506125
    endloop
  endfacet
  facet normal 0 0.3090178 -0.95105624
    outer loop
      vertex -12 12.500064 12.09748
      vertex -12 12.79333 12.192768
      vertex 4.8999996 12.79333 12.192768
    endloop
  endfacet
  facet normal 0 0.3090178 -0.95105624
    outer loop
      vertex -12 12.500064 12.09748
      vertex 4.8999996 12.79333 12.192768
      vertex 4.8999996 12.500064 12.09748
    endloop
  endfacet
  facet normal -1 0 0
    outer loop
      vertex -12 12.500064 9.40252
      vertex -12 12.79333 9.307232
      vertex -12 13 8.625
    endloop
  endfacet
  facet normal 0 0.49999988 0.86602545
    outer loop
      vertex -12 12.500064 9.40252
      vertex 4.8999996 12.233017 9.5567
      vertex 4.8999996 12.500064 9.40252
    endloop
  endfacet
  facet normal 0 0.3090178 0.95105624
    outer loop
      vertex -12 12.500064 9.40252
      vertex 4.8999996 12.500064 9.40252
      vertex -12 12.79333 9.307232
    endloop
  endfacet
  facet normal -1 0 0
    outer loop
      vertex -12 12.540737 -2.506125
      vertex -12 12.814122 -2.594953
      vertex -12 13 -5.75
    endloop
  endfacet
  facet normal 0 0.5000005 0.8660251
    outer loop
      vertex -12 12.540737 -2.506125
      vertex 8 12.291796 -2.3623984
      vertex 8 12.540737 -2.506125
    endloop
  endfacet
  facet normal 0 0.30901667 0.9510566
    outer loop
      vertex -12 12.540737 -2.506125
      vertex 8 12.540737 -2.506125
      vertex -12 12.814122 -2.594953
    endloop
  endfacet
  facet normal 0 0.30901632 -0.9510567
    outer loop
      vertex -12 12.540737 0.0061249733
      vertex -12 12.814122 0.09495294
      vertex 8 12.814122 0.09495294
    endloop
  endfacet
  facet normal -1 0 0
    outer loop
      vertex -12 12.540737 0.0061249733
      vertex -12 13 2.75
      vertex -12 12.814122 0.09495294
    endloop
  endfacet
  facet normal 0 0.30901632 -0.9510567
    outer loop
      vertex -12 12.540737 0.0061249733
      vertex 8 12.814122 0.09495294
      vertex 8 12.540737 0.0061249733
    endloop
  endfacet
  facet normal 0 0.1045283 -0.9945219
    outer loop
      vertex -12 12.79333 12.192768
      vertex -12 13.1 12.225
      vertex 4.8999996 13.1 12.225
    endloop
  endfacet
  facet normal 0 0.1045283 -0.9945219
    outer loop
      vertex -12 12.79333 12.192768
      vertex 4.8999996 13.1 12.225
      vertex 4.8999996 12.79333 12.192768
    endloop
  endfacet
  facet normal -1 0 0
    outer loop
      vertex -12 12.79333 9.307232
      vertex -12 13.1 9.275
      vertex -12 13 8.625
    endloop
  endfacet
  facet normal 0 0.3090178 0.95105624
    outer loop
      vertex -12 12.79333 9.307232
      vertex 4.8999996 12.500064 9.40252
      vertex 4.8999996 12.79333 9.307232
    endloop
  endfacet
  facet normal 0 0.1045283 0.9945219
    outer loop
      vertex -12 12.79333 9.307232
      vertex 4.8999996 12.79333 9.307232
      vertex -12 13.1 9.275
    endloop
  endfacet
  facet normal -1 0 0
    outer loop
      vertex -12 12.814122 -2.594953
      vertex -12 13.1 -2.625
      vertex -12 13 -5.75
    endloop
  endfacet
  facet normal 0 0.30901667 0.9510566
    outer loop
      vertex -12 12.814122 -2.594953
      vertex 8 12.540737 -2.506125
      vertex 8 12.814122 -2.594953
    endloop
  endfacet
  facet normal 0 0.10452823 0.9945219
    outer loop
      vertex -12 12.814122 -2.594953
      vertex 8 12.814122 -2.594953
      vertex -12 13.1 -2.625
    endloop
  endfacet
  facet normal -1 0 0
    outer loop
      vertex -12 12.814122 0.09495294
      vertex -12 13 2.75
      vertex -12 13.1 0.125
    endloop
  endfacet
  facet normal 0 0.10452864 -0.99452186
    outer loop
      vertex -12 12.814122 0.09495294
      vertex -12 13.1 0.125
      vertex 8 13.1 0.125
    endloop
  endfacet
  facet normal 0 0.10452864 -0.99452186
    outer loop
      vertex -12 12.814122 0.09495294
      vertex 8 13.1 0.125
      vertex 8 12.814122 0.09495294
    endloop
  endfacet
  facet normal -1 0 0
    outer loop
      vertex -12 13 -11.625
      vertex -12 13 -8.375
      vertex -12 16.5 -12.7
    endloop
  endfacet
  facet normal 0 -1 0
    outer loop
      vertex -12 13 -11.625
      vertex 12 13 -11.625
      vertex -12 13 -8.375
    endloop
  endfacet
  facet normal 0 0 1
    outer loop
      vertex -12 13 -11.625
      vertex 12 9 -11.625
      vertex 12 13 -11.625
    endloop
  endfacet
  facet normal -1 0 0
    outer loop
      vertex -12 13 -5.75
      vertex -12 13.1 -2.625
      vertex -12 13.385879 -2.594953
    endloop
  endfacet
  facet normal -1 0 0
    outer loop
      vertex -12 13 -5.75
      vertex -12 13.385879 -2.594953
      vertex -12 13.659264 -2.506125
    endloop
  endfacet
  facet normal -1 0 0
    outer loop
      vertex -12 13 -5.75
      vertex -12 13.659264 -2.506125
      vertex -12 13.908205 -2.3623984
    endloop
  endfacet
  facet normal -1 0 0
    outer loop
      vertex -12 13 -5.75
      vertex -12 13.908205 -2.3623984
      vertex -12 14.121824 -2.1700544
    endloop
  endfacet
  facet normal -1 0 0
    outer loop
      vertex -12 13 -5.75
      vertex -12 14.121824 -2.1700544
      vertex -12 16.5 -12.7
    endloop
  endfacet
  facet normal 0 -1 0
    outer loop
      vertex -12 13 -5.75
      vertex 12 13 -7.25
      vertex 12 13 -5.75
    endloop
  endfacet
  facet normal -1 0 0
    outer loop
      vertex -12 13 -7.25
      vertex -12 13 -5.75
      vertex -12 16.5 -12.7
    endloop
  endfacet
  facet normal 0 -1 0
    outer loop
      vertex -12 13 -7.25
      vertex 12 13 -7.25
      vertex -12 13 -5.75
    endloop
  endfacet
  facet normal 0 0 1
    outer loop
      vertex -12 13 -7.25
      vertex 12 9 -7.25
      vertex 12 13 -7.25
    endloop
  endfacet
  facet normal -1 0 0
    outer loop
      vertex -12 13 -8.375
      vertex -12 13 -7.25
      vertex -12 16.5 -12.7
    endloop
  endfacet
  facet normal 0 -1 0
    outer loop
      vertex -12 13 -8.375
      vertex 12 13 -11.625
      vertex 12 13 -8.375
    endloop
  endfacet
  facet normal -1 0 0
    outer loop
      vertex -12 13 2.75
      vertex -12 13 4.25
      vertex -12 14.502809 10.2942
    endloop
  endfacet
  facet normal -1 0 0
    outer loop
      vertex -12 13 2.75
      vertex -12 13.385879 0.09495294
      vertex -12 13.1 0.125
    endloop
  endfacet
  facet normal -1 0 0
    outer loop
      vertex -12 13 2.75
      vertex -12 13.659264 0.0061249733
      vertex -12 13.385879 0.09495294
    endloop
  endfacet
  facet normal -1 0 0
    outer loop
      vertex -12 13 2.75
      vertex -12 13.908205 -0.13760161
      vertex -12 13.659264 0.0061249733
    endloop
  endfacet
  facet normal -1 0 0
    outer loop
      vertex -12 13 2.75
      vertex -12 14.121824 -0.32994545
      vertex -12 13.908205 -0.13760161
    endloop
  endfacet
  facet normal -1 0 0
    outer loop
      vertex -12 13 2.75
      vertex -12 14.502809 10.2942
      vertex -12 16.5 12.7
    endloop
  endfacet
  facet normal -1 0 0
    outer loop
      vertex -12 13 2.75
      vertex -12 16.5 12.7
      vertex -12 14.121824 -0.32994545
    endloop
  endfacet
  facet normal 0 -1 0
    outer loop
      vertex -12 13 2.75
      vertex 12 13 2.75
      vertex -12 13 4.25
    endloop
  endfacet
  facet normal 0 0 1
    outer loop
      vertex -12 13 2.75
      vertex 12 9 2.75
      vertex 12 13 2.75
    endloop
  endfacet
  facet normal -1 0 0
    outer loop
      vertex -12 13 4.25
      vertex -12 13 5.375
      vertex -12 14.502809 10.2942
    endloop
  endfacet
  facet normal 0 -1 0
    outer loop
      vertex -12 13 4.25
      vertex 12 13 2.75
      vertex 12 13 4.25
    endloop
  endfacet
  facet normal -1 0 0
    outer loop
      vertex -12 13 5.375
      vertex -12 13 8.625
      vertex -12 13.699937 9.40252
    endloop
  endfacet
  facet normal -1 0 0
    outer loop
      vertex -12 13 5.375
      vertex -12 13.699937 9.40252
      vertex -12 13.966984 9.5567
    endloop
  endfacet
  facet normal -1 0 0
    outer loop
      vertex -12 13 5.375
      vertex -12 13.966984 9.5567
      vertex -12 14.196139 9.763032
    endloop
  endfacet
  facet normal -1 0 0
    outer loop
      vertex -12 13 5.375
      vertex -12 14.196139 9.763032
      vertex -12 14.377388 10.0125
    endloop
  endfacet
  facet normal -1 0 0
    outer loop
      vertex -12 13 5.375
      vertex -12 14.377388 10.0125
      vertex -12 14.502809 10.2942
    endloop
  endfacet
  facet normal 0 -1 0
    outer loop
      vertex -12 13 5.375
      vertex 12 13 5.375
      vertex -12 13 8.625
    endloop
  endfacet
  facet normal 0 0 1
    outer loop
      vertex -12 13 5.375
      vertex 12 9 5.375
      vertex 12 13 5.375
    endloop
  endfacet
  facet normal -1 0 0
    outer loop
      vertex -12 13 8.625
      vertex -12 13.1 9.275
      vertex -12 13.406671 9.307232
    endloop
  endfacet
  facet normal -1 0 0
    outer loop
      vertex -12 13 8.625
      vertex -12 13.406671 9.307232
      vertex -12 13.699937 9.40252
    endloop
  endfacet
  facet normal 0 -1 0
    outer loop
      vertex -12 13 8.625
      vertex 12 13 5.375
      vertex 12 13 8.625
    endloop
  endfacet
  facet normal 0 0.10452823 0.9945219
    outer loop
      vertex -12 13.1 -2.625
      vertex 8 12.814122 -2.594953
      vertex 8 13.1 -2.625
    endloop
  endfacet
  facet normal 0 -0.10452823 0.9945219
    outer loop
      vertex -12 13.1 -2.625
      vertex 8 13.1 -2.625
      vertex -12 13.385879 -2.594953
    endloop
  endfacet
  facet normal 0 -0.10452864 -0.99452186
    outer loop
      vertex -12 13.1 0.125
      vertex -12 13.385879 0.09495294
      vertex 8 13.385879 0.09495294
    endloop
  endfacet
  facet normal 0 -0.10452864 -0.99452186
    outer loop
      vertex -12 13.1 0.125
      vertex 8 13.385879 0.09495294
      vertex 8 13.1 0.125
    endloop
  endfacet
  facet normal 0 -0.1045283 -0.9945219
    outer loop
      vertex -12 13.1 12.225
      vertex -12 13.406671 12.192768
      vertex 4.8999996 13.406671 12.192768
    endloop
  endfacet
  facet normal 0 -0.1045283 -0.9945219
    outer loop
      vertex -12 13.1 12.225
      vertex 4.8999996 13.406671 12.192768
      vertex 4.8999996 13.1 12.225
    endloop
  endfacet
  facet normal 0 0.1045283 0.9945219
    outer loop
      vertex -12 13.1 9.275
      vertex 4.8999996 12.79333 9.307232
      vertex 4.8999996 13.1 9.275
    endloop
  endfacet
  facet normal 0 -0.1045283 0.9945219
    outer loop
      vertex -12 13.1 9.275
      vertex 4.8999996 13.1 9.275
      vertex -12 13.406671 9.307232
    endloop
  endfacet
  facet normal 0 -0.10452823 0.9945219
    outer loop
      vertex -12 13.385879 -2.594953
      vertex 8 13.1 -2.625
      vertex 8 13.385879 -2.594953
    endloop
  endfacet
  facet normal 0 -0.30901667 0.9510566
    outer loop
      vertex -12 13.385879 -2.594953
      vertex 8 13.385879 -2.594953
      vertex -12 13.659264 -2.506125
    endloop
  endfacet
  facet normal 0 -0.30901632 -0.9510567
    outer loop
      vertex -12 13.385879 0.09495294
      vertex -12 13.659264 0.0061249733
      vertex 8 13.659264 0.0061249733
    endloop
  endfacet
  facet normal 0 -0.30901632 -0.9510567
    outer loop
      vertex -12 13.385879 0.09495294
      vertex 8 13.659264 0.0061249733
      vertex 8 13.385879 0.09495294
    endloop
  endfacet
  facet normal 0 -0.3090178 -0.95105624
    outer loop
      vertex -12 13.406671 12.192768
      vertex -12 13.699937 12.09748
      vertex 4.8999996 13.699937 12.09748
    endloop
  endfacet
  facet normal -1 0 0
    outer loop
      vertex -12 13.406671 12.192768
      vertex -12 16.5 12.7
      vertex -12 13.699937 12.09748
    endloop
  endfacet
  facet normal 0 -0.3090178 -0.95105624
    outer loop
      vertex -12 13.406671 12.192768
      vertex 4.8999996 13.699937 12.09748
      vertex 4.8999996 13.406671 12.192768
    endloop
  endfacet
  facet normal 0 -0.1045283 0.9945219
    outer loop
      vertex -12 13.406671 9.307232
      vertex 4.8999996 13.1 9.275
      vertex 4.8999996 13.406671 9.307232
    endloop
  endfacet
  facet normal 0 -0.3090178 0.95105624
    outer loop
      vertex -12 13.406671 9.307232
      vertex 4.8999996 13.406671 9.307232
      vertex -12 13.699937 9.40252
    endloop
  endfacet
  facet normal 0 -0.30901667 0.9510566
    outer loop
      vertex -12 13.659264 -2.506125
      vertex 8 13.385879 -2.594953
      vertex 8 13.659264 -2.506125
    endloop
  endfacet
  facet normal 0 -0.5000005 0.8660251
    outer loop
      vertex -12 13.659264 -2.506125
      vertex 8 13.659264 -2.506125
      vertex -12 13.908205 -2.3623984
    endloop
  endfacet
  facet normal 0 -0.5000005 -0.8660251
    outer loop
      vertex -12 13.659264 0.0061249733
      vertex -12 13.908205 -0.13760161
      vertex 8 13.908205 -0.13760161
    endloop
  endfacet
  facet normal 0 -0.5000005 -0.8660251
    outer loop
      vertex -12 13.659264 0.0061249733
      vertex 8 13.908205 -0.13760161
      vertex 8 13.659264 0.0061249733
    endloop
  endfacet
  facet normal 0 -0.49999988 -0.86602545
    outer loop
      vertex -12 13.699937 12.09748
      vertex -12 13.966984 11.9433
      vertex 4.8999996 13.966984 11.9433
    endloop
  endfacet
  facet normal -1 0 0
    outer loop
      vertex -12 13.699937 12.09748
      vertex -12 16.5 12.7
      vertex -12 13.966984 11.9433
    endloop
  endfacet
  facet normal 0 -0.49999988 -0.86602545
    outer loop
      vertex -12 13.699937 12.09748
      vertex 4.8999996 13.966984 11.9433
      vertex 4.8999996 13.699937 12.09748
    endloop
  endfacet
  facet normal 0 -0.3090178 0.95105624
    outer loop
      vertex -12 13.699937 9.40252
      vertex 4.8999996 13.406671 9.307232
      vertex 4.8999996 13.699937 9.40252
    endloop
  endfacet
  facet normal 0 -0.49999988 0.86602545
    outer loop
      vertex -12 13.699937 9.40252
      vertex 4.8999996 13.699937 9.40252
      vertex -12 13.966984 9.5567
    endloop
  endfacet
  facet normal 0 -0.669131 -0.74314445
    outer loop
      vertex -12 13.908205 -0.13760161
      vertex -12 14.121824 -0.32994545
      vertex 8 14.121824 -0.32994545
    endloop
  endfacet
  facet normal 0 -0.669131 -0.74314445
    outer loop
      vertex -12 13.908205 -0.13760161
      vertex 8 14.121824 -0.32994545
      vertex 8 13.908205 -0.13760161
    endloop
  endfacet
  facet normal 0 -0.5000005 0.8660251
    outer loop
      vertex -12 13.908205 -2.3623984
      vertex 8 13.659264 -2.506125
      vertex 8 13.908205 -2.3623984
    endloop
  endfacet
  facet normal 0 -0.6691312 0.7431443
    outer loop
      vertex -12 13.908205 -2.3623984
      vertex 8 13.908205 -2.3623984
      vertex -12 14.121824 -2.1700544
    endloop
  endfacet
  facet normal 0 -0.66912997 -0.7431454
    outer loop
      vertex -12 13.966984 11.9433
      vertex -12 14.196139 11.736968
      vertex 4.8999996 14.196139 11.736968
    endloop
  endfacet
  facet normal -1 0 0
    outer loop
      vertex -12 13.966984 11.9433
      vertex -12 16.5 12.7
      vertex -12 14.196139 11.736968
    endloop
  endfacet
  facet normal 0 -0.66912997 -0.7431454
    outer loop
      vertex -12 13.966984 11.9433
      vertex 4.8999996 14.196139 11.736968
      vertex 4.8999996 13.966984 11.9433
    endloop
  endfacet
  facet normal 0 -0.49999988 0.86602545
    outer loop
      vertex -12 13.966984 9.5567
      vertex 4.8999996 13.699937 9.40252
      vertex 4.8999996 13.966984 9.5567
    endloop
  endfacet
  facet normal 0 -0.66912997 0.7431454
    outer loop
      vertex -12 13.966984 9.5567
      vertex 4.8999996 13.966984 9.5567
      vertex -12 14.196139 9.763032
    endloop
  endfacet
  facet normal 0 -0.8090173 -0.58778477
    outer loop
      vertex -12 14.121824 -0.32994545
      vertex -12 14.290785 -0.5625
      vertex 8 14.290785 -0.5625
    endloop
  endfacet
  facet normal -1 0 0
    outer loop
      vertex -12 14.121824 -0.32994545
      vertex -12 16.5 12.7
      vertex -12 14.290785 -0.5625
    endloop
  endfacet
  facet normal 0 -0.8090173 -0.58778477
    outer loop
      vertex -12 14.121824 -0.32994545
      vertex 8 14.290785 -0.5625
      vertex 8 14.121824 -0.32994545
    endloop
  endfacet
  facet normal -1 0 0
    outer loop
      vertex -12 14.121824 -2.1700544
      vertex -12 14.290785 -1.9375
      vertex -12 16.5 -12.7
    endloop
  endfacet
  facet normal 0 -0.6691312 0.7431443
    outer loop
      vertex -12 14.121824 -2.1700544
      vertex 8 13.908205 -2.3623984
      vertex 8 14.121824 -2.1700544
    endloop
  endfacet
  facet normal 0 -0.8090172 0.587785
    outer loop
      vertex -12 14.121824 -2.1700544
      vertex 8 14.121824 -2.1700544
      vertex -12 14.290785 -1.9375
    endloop
  endfacet
  facet normal 0 -0.80901754 -0.5877845
    outer loop
      vertex -12 14.196139 11.736968
      vertex -12 14.377388 11.4875
      vertex 4.8999996 14.377388 11.4875
    endloop
  endfacet
  facet normal -1 0 0
    outer loop
      vertex -12 14.196139 11.736968
      vertex -12 16.5 12.7
      vertex -12 14.377388 11.4875
    endloop
  endfacet
  facet normal 0 -0.80901754 -0.5877845
    outer loop
      vertex -12 14.196139 11.736968
      vertex 4.8999996 14.377388 11.4875
      vertex 4.8999996 14.196139 11.736968
    endloop
  endfacet
  facet normal 0 -0.66912997 0.7431454
    outer loop
      vertex -12 14.196139 9.763032
      vertex 4.8999996 13.966984 9.5567
      vertex 4.8999996 14.196139 9.763032
    endloop
  endfacet
  facet normal 0 -0.80901754 0.5877845
    outer loop
      vertex -12 14.196139 9.763032
      vertex 4.8999996 14.196139 9.763032
      vertex -12 14.377388 10.0125
    endloop
  endfacet
  facet normal 0 -0.9135444 -0.40673894
    outer loop
      vertex -12 14.290785 -0.5625
      vertex -12 14.407703 -0.8251016
      vertex 8 14.407703 -0.8251016
    endloop
  endfacet
  facet normal -1 0 0
    outer loop
      vertex -12 14.290785 -0.5625
      vertex -12 16.5 12.7
      vertex -12 14.407703 -0.8251016
    endloop
  endfacet
  facet normal 0 -0.9135444 -0.40673894
    outer loop
      vertex -12 14.290785 -0.5625
      vertex 8 14.407703 -0.8251016
      vertex 8 14.290785 -0.5625
    endloop
  endfacet
  facet normal -1 0 0
    outer loop
      vertex -12 14.290785 -1.9375
      vertex -12 14.407703 -1.6748984
      vertex -12 16.5 -12.7
    endloop
  endfacet
  facet normal 0 -0.8090172 0.587785
    outer loop
      vertex -12 14.290785 -1.9375
      vertex 8 14.121824 -2.1700544
      vertex 8 14.290785 -1.9375
    endloop
  endfacet
  facet normal 0 -0.9135444 0.40673894
    outer loop
      vertex -12 14.290785 -1.9375
      vertex 8 14.290785 -1.9375
      vertex -12 14.407703 -1.6748984
    endloop
  endfacet
  facet normal 0 -0.80901754 0.5877845
    outer loop
      vertex -12 14.377388 10.0125
      vertex 4.8999996 14.196139 9.763032
      vertex 4.8999996 14.377388 10.0125
    endloop
  endfacet
  facet normal 0 -0.91354597 0.40673554
    outer loop
      vertex -12 14.377388 10.0125
      vertex 4.8999996 14.377388 10.0125
      vertex -12 14.502809 10.2942
    endloop
  endfacet
  facet normal 0 -0.91354597 -0.40673554
    outer loop
      vertex -12 14.377388 11.4875
      vertex -12 14.502809 11.2058
      vertex 4.8999996 14.502809 11.2058
    endloop
  endfacet
  facet normal -1 0 0
    outer loop
      vertex -12 14.377388 11.4875
      vertex -12 16.5 12.7
      vertex -12 14.502809 11.2058
    endloop
  endfacet
  facet normal 0 -0.91354597 -0.40673554
    outer loop
      vertex -12 14.377388 11.4875
      vertex 4.8999996 14.502809 11.2058
      vertex 4.8999996 14.377388 11.4875
    endloop
  endfacet
  facet normal 0 -0.9781476 -0.20791154
    outer loop
      vertex -12 14.407703 -0.8251016
      vertex -12 14.467468 -1.1062734
      vertex 8 14.467468 -1.1062734
    endloop
  endfacet
  facet normal -1 0 0
    outer loop
      vertex -12 14.407703 -0.8251016
      vertex -12 16.5 12.7
      vertex -12 14.467468 -1.1062734
    endloop
  endfacet
  facet normal 0 -0.9781476 -0.20791154
    outer loop
      vertex -12 14.407703 -0.8251016
      vertex 8 14.467468 -1.1062734
      vertex 8 14.407703 -0.8251016
    endloop
  endfacet
  facet normal -1 0 0
    outer loop
      vertex -12 14.407703 -1.6748984
      vertex -12 14.467468 -1.3937266
      vertex -12 16.5 -12.7
    endloop
  endfacet
  facet normal 0 -0.9135444 0.40673894
    outer loop
      vertex -12 14.407703 -1.6748984
      vertex 8 14.290785 -1.9375
      vertex 8 14.407703 -1.6748984
    endloop
  endfacet
  facet normal 0 -0.9781476 0.20791154
    outer loop
      vertex -12 14.407703 -1.6748984
      vertex 8 14.407703 -1.6748984
      vertex -12 14.467468 -1.3937266
    endloop
  endfacet
  facet normal 0 -1 0
    outer loop
      vertex -12 14.467468 -1.1062734
      vertex 8 14.467468 -1.3937266
      vertex 8 14.467468 -1.1062734
    endloop
  endfacet
  facet normal -1 0 0
    outer loop
      vertex -12 14.467468 -1.3937266
      vertex -12 14.467468 -1.1062734
      vertex -12 16.5 12.7
    endloop
  endfacet
  facet normal -1 0 0
    outer loop
      vertex -12 14.467468 -1.3937266
      vertex -12 16.5 12.7
      vertex -12 16.5 -12.7
    endloop
  endfacet
  facet normal 0 -0.9781476 0.20791154
    outer loop
      vertex -12 14.467468 -1.3937266
      vertex 8 14.407703 -1.6748984
      vertex 8 14.467468 -1.3937266
    endloop
  endfacet
  facet normal 0 -1 0
    outer loop
      vertex -12 14.467468 -1.3937266
      vertex 8 14.467468 -1.3937266
      vertex -12 14.467468 -1.1062734
    endloop
  endfacet
  facet normal -1 0 0
    outer loop
      vertex -12 14.502809 10.2942
      vertex -12 14.56692 10.59582
      vertex -12 16.5 12.7
    endloop
  endfacet
  facet normal 0 -0.91354597 0.40673554
    outer loop
      vertex -12 14.502809 10.2942
      vertex 4.8999996 14.377388 10.0125
      vertex 4.8999996 14.502809 10.2942
    endloop
  endfacet
  facet normal 0 -0.9781474 0.20791261
    outer loop
      vertex -12 14.502809 10.2942
      vertex 4.8999996 14.502809 10.2942
      vertex -12 14.56692 10.59582
    endloop
  endfacet
  facet normal 0 -0.9781474 -0.20791261
    outer loop
      vertex -12 14.502809 11.2058
      vertex -12 14.56692 10.90418
      vertex 4.8999996 14.56692 10.90418
    endloop
  endfacet
  facet normal -1 0 0
    outer loop
      vertex -12 14.502809 11.2058
      vertex -12 16.5 12.7
      vertex -12 14.56692 10.90418
    endloop
  endfacet
  facet normal 0 -0.9781474 -0.20791261
    outer loop
      vertex -12 14.502809 11.2058
      vertex 4.8999996 14.56692 10.90418
      vertex 4.8999996 14.502809 11.2058
    endloop
  endfacet
  facet normal -1 0 0
    outer loop
      vertex -12 14.56692 10.59582
      vertex -12 14.56692 10.90418
      vertex -12 16.5 12.7
    endloop
  endfacet
  facet normal 0 -0.9781474 0.20791261
    outer loop
      vertex -12 14.56692 10.59582
      vertex 4.8999996 14.502809 10.2942
      vertex 4.8999996 14.56692 10.59582
    endloop
  endfacet
  facet normal 0 -1 0
    outer loop
      vertex -12 14.56692 10.59582
      vertex 4.8999996 14.56692 10.59582
      vertex -12 14.56692 10.90418
    endloop
  endfacet
  facet normal 0 -1 0
    outer loop
      vertex -12 14.56692 10.90418
      vertex 4.8999996 14.56692 10.59582
      vertex 4.8999996 14.56692 10.90418
    endloop
  endfacet
  facet normal 0 1 0
    outer loop
      vertex -12 16.5 -12.7
      vertex -12 16.5 12.7
      vertex 12 16.5 -12.7
    endloop
  endfacet
  facet normal 0 1 0
    outer loop
      vertex -12 16.5 12.7
      vertex 12 16.5 12.7
      vertex 12 16.5 -12.7
    endloop
  endfacet
  facet normal 0 0 1
    outer loop
      vertex -12 16.5 12.7
      vertex 12 9 12.7
      vertex 12 16.5 12.7
    endloop
  endfacet
  facet normal 0 0 1
    outer loop
      vertex -12 9 -11.625
      vertex 12 9 -11.625
      vertex -12 13 -11.625
    endloop
  endfacet
  facet normal -1 0 0
    outer loop
      vertex -12 9 -12.7
      vertex -12 13 -11.625
      vertex -12 16.5 -12.7
    endloop
  endfacet
  facet normal 0 0 -1
    outer loop
      vertex -12 9 -12.7
      vertex -12 16.5 -12.7
      vertex 12 16.5 -12.7
    endloop
  endfacet
  facet normal -1 0 0
    outer loop
      vertex -12 9 -12.7
      vertex -12 9 -11.625
      vertex -12 13 -11.625
    endloop
  endfacet
  facet normal 0 0 -1
    outer loop
      vertex -12 9 -12.7
      vertex 12 16.5 -12.7
      vertex 12 9 -12.7
    endloop
  endfacet
  facet normal 0 -1 0
    outer loop
      vertex -12 9 -12.7
      vertex 12 9 -11.625
      vertex -12 9 -11.625
    endloop
  endfacet
  facet normal 0 -1 0
    outer loop
      vertex -12 9 -12.7
      vertex 12 9 -12.7
      vertex 12 9 -11.625
    endloop
  endfacet
  facet normal -1 0 0
    outer loop
      vertex -12 9 -5.75
      vertex -12 11.7325325 -1.1062734
      vertex -12 11.7325325 -1.3937266
    endloop
  endfacet
  facet normal -1 0 0
    outer loop
      vertex -12 9 -5.75
      vertex -12 11.7325325 -1.3937266
      vertex -12 11.792297 -1.6748984
    endloop
  endfacet
  facet normal -1 0 0
    outer loop
      vertex -12 9 -5.75
      vertex -12 11.792297 -1.6748984
      vertex -12 11.909216 -1.9375
    endloop
  endfacet
  facet normal -1 0 0
    outer loop
      vertex -12 9 -5.75
      vertex -12 11.909216 -1.9375
      vertex -12 12.0781765 -2.1700544
    endloop
  endfacet
  facet normal -1 0 0
    outer loop
      vertex -12 9 -5.75
      vertex -12 12.0781765 -2.1700544
      vertex -12 12.291796 -2.3623984
    endloop
  endfacet
  facet normal -1 0 0
    outer loop
      vertex -12 9 -5.75
      vertex -12 12.291796 -2.3623984
      vertex -12 12.540737 -2.506125
    endloop
  endfacet
  facet normal -1 0 0
    outer loop
      vertex -12 9 -5.75
      vertex -12 12.540737 -2.506125
      vertex -12 13 -5.75
    endloop
  endfacet
  facet normal 0 0 -1
    outer loop
      vertex -12 9 -5.75
      vertex -12 13 -5.75
      vertex 12 13 -5.75
    endloop
  endfacet
  facet normal -1 0 0
    outer loop
      vertex -12 9 -5.75
      vertex -12 9 2.75
      vertex -12 11.7325325 -1.1062734
    endloop
  endfacet
  facet normal 0 0 -1
    outer loop
      vertex -12 9 -5.75
      vertex 12 13 -5.75
      vertex 12 9 -5.75
    endloop
  endfacet
  facet normal 0 -1 0
    outer loop
      vertex -12 9 -5.75
      vertex 12 9 -5.75
      vertex 12 9 2.75
    endloop
  endfacet
  facet normal 0 -1 0
    outer loop
      vertex -12 9 -5.75
      vertex 12 9 2.75
      vertex -12 9 2.75
    endloop
  endfacet
  facet normal 0 0 1
    outer loop
      vertex -12 9 -7.25
      vertex 12 9 -7.25
      vertex -12 13 -7.25
    endloop
  endfacet
  facet normal 0 -1 0
    outer loop
      vertex -12 9 -7.25
      vertex 12 9 -8.375
      vertex 12 9 -7.25
    endloop
  endfacet
  facet normal -1 0 0
    outer loop
      vertex -12 9 -8.375
      vertex -12 13 -7.25
      vertex -12 13 -8.375
    endloop
  endfacet
  facet normal 0 0 -1
    outer loop
      vertex -12 9 -8.375
      vertex -12 13 -8.375
      vertex 12 13 -8.375
    endloop
  endfacet
  facet normal -1 0 0
    outer loop
      vertex -12 9 -8.375
      vertex -12 9 -7.25
      vertex -12 13 -7.25
    endloop
  endfacet
  facet normal 0 0 -1
    outer loop
      vertex -12 9 -8.375
      vertex 12 13 -8.375
      vertex 12 9 -8.375
    endloop
  endfacet
  facet normal 0 -1 0
    outer loop
      vertex -12 9 -8.375
      vertex 12 9 -8.375
      vertex -12 9 -7.25
    endloop
  endfacet
  facet normal -1 0 0
    outer loop
      vertex -12 9 12.7
      vertex -12 11.6330805 10.59582
      vertex -12 11.697192 10.2942
    endloop
  endfacet
  facet normal -1 0 0
    outer loop
      vertex -12 9 12.7
      vertex -12 11.6330805 10.90418
      vertex -12 11.6330805 10.59582
    endloop
  endfacet
  facet normal -1 0 0
    outer loop
      vertex -12 9 12.7
      vertex -12 11.697192 11.2058
      vertex -12 11.6330805 10.90418
    endloop
  endfacet
  facet normal -1 0 0
    outer loop
      vertex -12 9 12.7
      vertex -12 11.822613 11.4875
      vertex -12 11.697192 11.2058
    endloop
  endfacet
  facet normal -1 0 0
    outer loop
      vertex -12 9 12.7
      vertex -12 12.003861 11.736968
      vertex -12 11.822613 11.4875
    endloop
  endfacet
  facet normal -1 0 0
    outer loop
      vertex -12 9 12.7
      vertex -12 12.233017 11.9433
      vertex -12 12.003861 11.736968
    endloop
  endfacet
  facet normal -1 0 0
    outer loop
      vertex -12 9 12.7
      vertex -12 12.500064 12.09748
      vertex -12 12.233017 11.9433
    endloop
  endfacet
  facet normal -1 0 0
    outer loop
      vertex -12 9 12.7
      vertex -12 12.79333 12.192768
      vertex -12 12.500064 12.09748
    endloop
  endfacet
  facet normal -1 0 0
    outer loop
      vertex -12 9 12.7
      vertex -12 13.1 12.225
      vertex -12 12.79333 12.192768
    endloop
  endfacet
  facet normal -1 0 0
    outer loop
      vertex -12 9 12.7
      vertex -12 13.406671 12.192768
      vertex -12 13.1 12.225
    endloop
  endfacet
  facet normal -1 0 0
    outer loop
      vertex -12 9 12.7
      vertex -12 16.5 12.7
      vertex -12 13.406671 12.192768
    endloop
  endfacet
  facet normal 0 0 1
    outer loop
      vertex -12 9 12.7
      vertex 12 9 12.7
      vertex -12 16.5 12.7
    endloop
  endfacet
  facet normal -1 0 0
    outer loop
      vertex -12 9 2.75
      vertex -12 11.792297 -0.8251016
      vertex -12 11.7325325 -1.1062734
    endloop
  endfacet
  facet normal -1 0 0
    outer loop
      vertex -12 9 2.75
      vertex -12 11.909216 -0.5625
      vertex -12 11.792297 -0.8251016
    endloop
  endfacet
  facet normal -1 0 0
    outer loop
      vertex -12 9 2.75
      vertex -12 12.0781765 -0.32994545
      vertex -12 11.909216 -0.5625
    endloop
  endfacet
  facet normal -1 0 0
    outer loop
      vertex -12 9 2.75
      vertex -12 12.291796 -0.13760161
      vertex -12 12.0781765 -0.32994545
    endloop
  endfacet
  facet normal -1 0 0
    outer loop
      vertex -12 9 2.75
      vertex -12 13 2.75
      vertex -12 12.291796 -0.13760161
    endloop
  endfacet
  facet normal 0 0 1
    outer loop
      vertex -12 9 2.75
      vertex 12 9 2.75
      vertex -12 13 2.75
    endloop
  endfacet
  facet normal 0 0 -1
    outer loop
      vertex -12 9 4.25
      vertex -12 13 4.25
      vertex 12 13 4.25
    endloop
  endfacet
  facet normal -1 0 0
    outer loop
      vertex -12 9 4.25
      vertex -12 13 5.375
      vertex -12 13 4.25
    endloop
  endfacet
  facet normal -1 0 0
    outer loop
      vertex -12 9 4.25
      vertex -12 9 5.375
      vertex -12 13 5.375
    endloop
  endfacet
  facet normal 0 0 -1
    outer loop
      vertex -12 9 4.25
      vertex 12 13 4.25
      vertex 12 9 4.25
    endloop
  endfacet
  facet normal 0 -1 0
    outer loop
      vertex -12 9 4.25
      vertex 12 9 4.25
      vertex -12 9 5.375
    endloop
  endfacet
  facet normal 0 -1 0
    outer loop
      vertex -12 9 5.375
      vertex 12 9 4.25
      vertex 12 9 5.375
    endloop
  endfacet
  facet normal 0 0 1
    outer loop
      vertex -12 9 5.375
      vertex 12 9 5.375
      vertex -12 13 5.375
    endloop
  endfacet
  facet normal -1 0 0
    outer loop
      vertex -12 9 8.625
      vertex -12 11.697192 10.2942
      vertex -12 11.822613 10.0125
    endloop
  endfacet
  facet normal -1 0 0
    outer loop
      vertex -12 9 8.625
      vertex -12 11.822613 10.0125
      vertex -12 12.003861 9.763032
    endloop
  endfacet
  facet normal -1 0 0
    outer loop
      vertex -12 9 8.625
      vertex -12 12.003861 9.763032
      vertex -12 12.233017 9.5567
    endloop
  endfacet
  facet normal -1 0 0
    outer loop
      vertex -12 9 8.625
      vertex -12 12.233017 9.5567
      vertex -12 12.500064 9.40252
    endloop
  endfacet
  facet normal -1 0 0
    outer loop
      vertex -12 9 8.625
      vertex -12 12.500064 9.40252
      vertex -12 13 8.625
    endloop
  endfacet
  facet normal 0 0 -1
    outer loop
      vertex -12 9 8.625
      vertex -12 13 8.625
      vertex 12 13 8.625
    endloop
  endfacet
  facet normal -1 0 0
    outer loop
      vertex -12 9 8.625
      vertex -12 9 12.7
      vertex -12 11.697192 10.2942
    endloop
  endfacet
  facet normal 0 0 -1
    outer loop
      vertex -12 9 8.625
      vertex 12 13 8.625
      vertex 12 9 8.625
    endloop
  endfacet
  facet normal 0 -1 0
    outer loop
      vertex -12 9 8.625
      vertex 12 9 12.7
      vertex -12 9 12.7
    endloop
  endfacet
  facet normal 0 -1 0
    outer loop
      vertex -12 9 8.625
      vertex 12 9 8.625
      vertex 12 9 12.7
    endloop
  endfacet
  facet normal 1 0 0
    outer loop
      vertex 12 12.021773 0.8661406
      vertex 12 12.366085 1.0087593
      vertex 12 13 2.75
    endloop
  endfacet
  facet normal 1 0 0
    outer loop
      vertex 12 12.366085 -3.5087593
      vertex 12 13 -5.75
      vertex 12 12.728469 -3.5957599
    endloop
  endfacet
  facet normal 1 0 0
    outer loop
      vertex 12 12.366085 1.0087593
      vertex 12 12.728469 1.0957599
      vertex 12 13 2.75
    endloop
  endfacet
  facet normal 1 0 0
    outer loop
      vertex 12 12.728469 -3.5957599
      vertex 12 13 -5.75
      vertex 12 13.1 -3.625
    endloop
  endfacet
  facet normal 1 0 0
    outer loop
      vertex 12 12.728469 1.0957599
      vertex 12 13.1 1.125
      vertex 12 13 2.75
    endloop
  endfacet
  facet normal 1 0 0
    outer loop
      vertex 12 13 -11.625
      vertex 12 16.5 -12.7
      vertex 12 13 -8.375
    endloop
  endfacet
  facet normal 1 0 0
    outer loop
      vertex 12 13 -5.75
      vertex 12 16.5 -12.7
      vertex 12 13.1 -3.625
    endloop
  endfacet
  facet normal 1 0 0
    outer loop
      vertex 12 13 -7.25
      vertex 12 16.5 -12.7
      vertex 12 13 -5.75
    endloop
  endfacet
  facet normal 1 0 0
    outer loop
      vertex 12 13 -8.375
      vertex 12 16.5 -12.7
      vertex 12 13 -7.25
    endloop
  endfacet
  facet normal 1 0 0
    outer loop
      vertex 12 13 2.75
      vertex 12 13.1 1.125
      vertex 12 13.471532 1.0957599
    endloop
  endfacet
  facet normal 1 0 0
    outer loop
      vertex 12 13 2.75
      vertex 12 13.471532 1.0957599
      vertex 12 16.5 12.7
    endloop
  endfacet
  facet normal 1 0 0
    outer loop
      vertex 12 13 2.75
      vertex 12 16.5 12.7
      vertex 12 13 4.25
    endloop
  endfacet
  facet normal 1 0 0
    outer loop
      vertex 12 13 4.25
      vertex 12 16.5 12.7
      vertex 12 13 5.375
    endloop
  endfacet
  facet normal 1 0 0
    outer loop
      vertex 12 13 5.375
      vertex 12 16.5 12.7
      vertex 12 13 8.625
    endloop
  endfacet
  facet normal 1 0 0
    outer loop
      vertex 12 13.1 -3.625
      vertex 12 16.5 -12.7
      vertex 12 13.471532 -3.5957599
    endloop
  endfacet
  facet normal 1 0 0
    outer loop
      vertex 12 13.471532 -3.5957599
      vertex 12 16.5 -12.7
      vertex 12 13.833916 -3.5087593
    endloop
  endfacet
  facet normal 1 0 0
    outer loop
      vertex 12 13.471532 1.0957599
      vertex 12 13.833916 1.0087593
      vertex 12 16.5 12.7
    endloop
  endfacet
  facet normal 1 0 0
    outer loop
      vertex 12 13.833916 -3.5087593
      vertex 12 16.5 -12.7
      vertex 12 14.178227 -3.3661406
    endloop
  endfacet
  facet normal 1 0 0
    outer loop
      vertex 12 13.833916 1.0087593
      vertex 12 14.178227 0.8661406
      vertex 12 16.5 12.7
    endloop
  endfacet
  facet normal 1 0 0
    outer loop
      vertex 12 14.178227 -3.3661406
      vertex 12 16.5 -12.7
      vertex 12 14.495991 -3.1714153
    endloop
  endfacet
  facet normal 1 0 0
    outer loop
      vertex 12 14.178227 0.8661406
      vertex 12 14.495991 0.6714153
      vertex 12 16.5 12.7
    endloop
  endfacet
  facet normal 1 0 0
    outer loop
      vertex 12 14.495991 -3.1714153
      vertex 12 16.5 -12.7
      vertex 12 14.779379 -2.9293785
    endloop
  endfacet
  facet normal 1 0 0
    outer loop
      vertex 12 14.495991 0.6714153
      vertex 12 14.779379 0.42937863
      vertex 12 16.5 12.7
    endloop
  endfacet
  facet normal 1 0 0
    outer loop
      vertex 12 14.779379 -2.9293785
      vertex 12 16.5 -12.7
      vertex 12 15.021416 -2.64599
    endloop
  endfacet
  facet normal 1 0 0
    outer loop
      vertex 12 14.779379 0.42937863
      vertex 12 15.021416 0.14599001
      vertex 12 16.5 12.7
    endloop
  endfacet
  facet normal 1 0 0
    outer loop
      vertex 12 15.021416 -2.64599
      vertex 12 16.5 -12.7
      vertex 12 15.216141 -2.3282275
    endloop
  endfacet
  facet normal 1 0 0
    outer loop
      vertex 12 15.021416 0.14599001
      vertex 12 15.216141 -0.1717726
      vertex 12 16.5 12.7
    endloop
  endfacet
  facet normal 1 0 0
    outer loop
      vertex 12 15.216141 -0.1717726
      vertex 12 15.35876 -0.5160846
      vertex 12 16.5 12.7
    endloop
  endfacet
  facet normal 1 0 0
    outer loop
      vertex 12 15.216141 -2.3282275
      vertex 12 16.5 -12.7
      vertex 12 15.35876 -1.9839153
    endloop
  endfacet
  facet normal 1 0 0
    outer loop
      vertex 12 15.35876 -0.5160846
      vertex 12 15.445761 -0.87846816
      vertex 12 16.5 12.7
    endloop
  endfacet
  facet normal 1 0 0
    outer loop
      vertex 12 15.35876 -1.9839153
      vertex 12 16.5 -12.7
      vertex 12 15.445761 -1.6215318
    endloop
  endfacet
  facet normal 1 0 0
    outer loop
      vertex 12 15.445761 -0.87846816
      vertex 12 15.475 -1.25
      vertex 12 16.5 12.7
    endloop
  endfacet
  facet normal 1 0 0
    outer loop
      vertex 12 15.445761 -1.6215318
      vertex 12 16.5 -12.7
      vertex 12 15.475 -1.25
    endloop
  endfacet
  facet normal 1 0 0
    outer loop
      vertex 12 15.475 -1.25
      vertex 12 16.5 -12.7
      vertex 12 16.5 12.7
    endloop
  endfacet
  facet normal 1 0 0
    outer loop
      vertex 12 9 -12.7
      vertex 12 13 -11.625
      vertex 12 9 -11.625
    endloop
  endfacet
  facet normal 1 0 0
    outer loop
      vertex 12 9 -12.7
      vertex 12 16.5 -12.7
      vertex 12 13 -11.625
    endloop
  endfacet
  facet normal 1 0 0
    outer loop
      vertex 12 9 -5.75
      vertex 12 10.75424 -1.6215318
      vertex 12 9 2.75
    endloop
  endfacet
  facet normal 1 0 0
    outer loop
      vertex 12 9 -5.75
      vertex 12 10.841241 -1.9839153
      vertex 12 10.75424 -1.6215318
    endloop
  endfacet
  facet normal 1 0 0
    outer loop
      vertex 12 9 -5.75
      vertex 12 10.98386 -2.3282275
      vertex 12 10.841241 -1.9839153
    endloop
  endfacet
  facet normal 1 0 0
    outer loop
      vertex 12 9 -5.75
      vertex 12 11.178585 -2.64599
      vertex 12 10.98386 -2.3282275
    endloop
  endfacet
  facet normal 1 0 0
    outer loop
      vertex 12 9 -5.75
      vertex 12 11.420622 -2.9293785
      vertex 12 11.178585 -2.64599
    endloop
  endfacet
  facet normal 1 0 0
    outer loop
      vertex 12 9 -5.75
      vertex 12 11.70401 -3.1714153
      vertex 12 11.420622 -2.9293785
    endloop
  endfacet
  facet normal 1 0 0
    outer loop
      vertex 12 9 -5.75
      vertex 12 12.021773 -3.3661406
      vertex 12 11.70401 -3.1714153
    endloop
  endfacet
  facet normal 1 0 0
    outer loop
      vertex 12 9 -5.75
      vertex 12 12.366085 -3.5087593
      vertex 12 12.021773 -3.3661406
    endloop
  endfacet
  facet normal 1 0 0
    outer loop
      vertex 12 9 -5.75
      vertex 12 13 -5.75
      vertex 12 12.366085 -3.5087593
    endloop
  endfacet
  facet normal 1 0 0
    outer loop
      vertex 12 9 -7.25
      vertex 12 13 -8.375
      vertex 12 13 -7.25
    endloop
  endfacet
  facet normal 1 0 0
    outer loop
      vertex 12 9 -8.375
      vertex 12 13 -8.375
      vertex 12 9 -7.25
    endloop
  endfacet
  facet normal 1 0 0
    outer loop
      vertex 12 9 12.7
      vertex 12 13 8.625
      vertex 12 16.5 12.7
    endloop
  endfacet
  facet normal 1 0 0
    outer loop
      vertex 12 9 2.75
      vertex 12 10.725 -1.25
      vertex 12 10.75424 -0.87846816
    endloop
  endfacet
  facet normal 1 0 0
    outer loop
      vertex 12 9 2.75
      vertex 12 10.75424 -0.87846816
      vertex 12 10.841241 -0.5160846
    endloop
  endfacet
  facet normal 1 0 0
    outer loop
      vertex 12 9 2.75
      vertex 12 10.75424 -1.6215318
      vertex 12 10.725 -1.25
    endloop
  endfacet
  facet normal 1 0 0
    outer loop
      vertex 12 9 2.75
      vertex 12 10.841241 -0.5160846
      vertex 12 10.98386 -0.1717726
    endloop
  endfacet
  facet normal 1 0 0
    outer loop
      vertex 12 9 2.75
      vertex 12 10.98386 -0.1717726
      vertex 12 11.178585 0.14599001
    endloop
  endfacet
  facet normal 1 0 0
    outer loop
      vertex 12 9 2.75
      vertex 12 11.178585 0.14599001
      vertex 12 11.420622 0.42937863
    endloop
  endfacet
  facet normal 1 0 0
    outer loop
      vertex 12 9 2.75
      vertex 12 11.420622 0.42937863
      vertex 12 11.70401 0.6714153
    endloop
  endfacet
  facet normal 1 0 0
    outer loop
      vertex 12 9 2.75
      vertex 12 11.70401 0.6714153
      vertex 12 12.021773 0.8661406
    endloop
  endfacet
  facet normal 1 0 0
    outer loop
      vertex 12 9 2.75
      vertex 12 12.021773 0.8661406
      vertex 12 13 2.75
    endloop
  endfacet
  facet normal 1 0 0
    outer loop
      vertex 12 9 4.25
      vertex 12 13 4.25
      vertex 12 9 5.375
    endloop
  endfacet
  facet normal 1 0 0
    outer loop
      vertex 12 9 5.375
      vertex 12 13 4.25
      vertex 12 13 5.375
    endloop
  endfacet
  facet normal 1 0 0
    outer loop
      vertex 12 9 8.625
      vertex 12 13 8.625
      vertex 12 9 12.7
    endloop
  endfacet
  facet normal -1 0 0
    outer loop
      vertex 4.8999996 11.6330805 10.59582
      vertex 4.8999996 11.6330805 10.90418
      vertex 4.8999996 14.56692 10.90418
    endloop
  endfacet
  facet normal -1 0 0
    outer loop
      vertex 4.8999996 11.6330805 10.59582
      vertex 4.8999996 14.56692 10.59582
      vertex 4.8999996 11.697192 10.2942
    endloop
  endfacet
  facet normal -1 0 0
    outer loop
      vertex 4.8999996 11.6330805 10.59582
      vertex 4.8999996 14.56692 10.90418
      vertex 4.8999996 14.56692 10.59582
    endloop
  endfacet
  facet normal -1 0 0
    outer loop
      vertex 4.8999996 11.6330805 10.90418
      vertex 4.8999996 11.697192 11.2058
      vertex 4.8999996 14.502809 11.2058
    endloop
  endfacet
  facet normal -1 0 0
    outer loop
      vertex 4.8999996 11.6330805 10.90418
      vertex 4.8999996 14.502809 11.2058
      vertex 4.8999996 14.56692 10.90418
    endloop
  endfacet
  facet normal -1 0 0
    outer loop
      vertex 4.8999996 11.697192 10.2942
      vertex 4.8999996 14.502809 10.2942
      vertex 4.8999996 11.822613 10.0125
    endloop
  endfacet
  facet normal -1 0 0
    outer loop
      vertex 4.8999996 11.697192 10.2942
      vertex 4.8999996 14.56692 10.59582
      vertex 4.8999996 14.502809 10.2942
    endloop
  endfacet
  facet normal -1 0 0
    outer loop
      vertex 4.8999996 11.697192 11.2058
      vertex 4.8999996 11.822613 11.4875
      vertex 4.8999996 14.377388 11.4875
    endloop
  endfacet
  facet normal -1 0 0
    outer loop
      vertex 4.8999996 11.697192 11.2058
      vertex 4.8999996 14.377388 11.4875
      vertex 4.8999996 14.502809 11.2058
    endloop
  endfacet
  facet normal -1 0 0
    outer loop
      vertex 4.8999996 11.822613 10.0125
      vertex 4.8999996 14.377388 10.0125
      vertex 4.8999996 12.003861 9.763032
    endloop
  endfacet
  facet normal -1 0 0
    outer loop
      vertex 4.8999996 11.822613 10.0125
      vertex 4.8999996 14.502809 10.2942
      vertex 4.8999996 14.377388 10.0125
    endloop
  endfacet
  facet normal -1 0 0
    outer loop
      vertex 4.8999996 11.822613 11.4875
      vertex 4.8999996 12.003861 11.736968
      vertex 4.8999996 14.196139 11.736968
    endloop
  endfacet
  facet normal -1 0 0
    outer loop
      vertex 4.8999996 11.822613 11.4875
      vertex 4.8999996 14.196139 11.736968
      vertex 4.8999996 14.377388 11.4875
    endloop
  endfacet
  facet normal -1 0 0
    outer loop
      vertex 4.8999996 12.003861 11.736968
      vertex 4.8999996 12.233017 11.9433
      vertex 4.8999996 13.966984 11.9433
    endloop
  endfacet
  facet normal -1 0 0
    outer loop
      vertex 4.8999996 12.003861 11.736968
      vertex 4.8999996 13.966984 11.9433
      vertex 4.8999996 14.196139 11.736968
    endloop
  endfacet
  facet normal -1 0 0
    outer loop
      vertex 4.8999996 12.003861 9.763032
      vertex 4.8999996 14.196139 9.763032
      vertex 4.8999996 12.233017 9.5567
    endloop
  endfacet
  facet normal -1 0 0
    outer loop
      vertex 4.8999996 12.003861 9.763032
      vertex 4.8999996 14.377388 10.0125
      vertex 4.8999996 14.196139 9.763032
    endloop
  endfacet
  facet normal -1 0 0
    outer loop
      vertex 4.8999996 12.233017 11.9433
      vertex 4.8999996 12.500064 12.09748
      vertex 4.8999996 13.699937 12.09748
    endloop
  endfacet
  facet normal -1 0 0
    outer loop
      vertex 4.8999996 12.233017 11.9433
      vertex 4.8999996 13.699937 12.09748
      vertex 4.8999996 13.966984 11.9433
    endloop
  endfacet
  facet normal -1 0 0
    outer loop
      vertex 4.8999996 12.233017 9.5567
      vertex 4.8999996 13.966984 9.5567
      vertex 4.8999996 12.500064 9.40252
    endloop
  endfacet
  facet normal -1 0 0
    outer loop
      vertex 4.8999996 12.233017 9.5567
      vertex 4.8999996 14.196139 9.763032
      vertex 4.8999996 13.966984 9.5567
    endloop
  endfacet
  facet normal -1 0 0
    outer loop
      vertex 4.8999996 12.500064 12.09748
      vertex 4.8999996 12.79333 12.192768
      vertex 4.8999996 13.406671 12.192768
    endloop
  endfacet
  facet normal -1 0 0
    outer loop
      vertex 4.8999996 12.500064 12.09748
      vertex 4.8999996 13.406671 12.192768
      vertex 4.8999996 13.699937 12.09748
    endloop
  endfacet
  facet normal -1 0 0
    outer loop
      vertex 4.8999996 12.500064 9.40252
      vertex 4.8999996 13.699937 9.40252
      vertex 4.8999996 12.79333 9.307232
    endloop
  endfacet
  facet normal -1 0 0
    outer loop
      vertex 4.8999996 12.500064 9.40252
      vertex 4.8999996 13.966984 9.5567
      vertex 4.8999996 13.699937 9.40252
    endloop
  endfacet
  facet normal -1 0 0
    outer loop
      vertex 4.8999996 12.79333 12.192768
      vertex 4.8999996 13.1 12.225
      vertex 4.8999996 13.406671 12.192768
    endloop
  endfacet
  facet normal -1 0 0
    outer loop
      vertex 4.8999996 12.79333 9.307232
      vertex 4.8999996 13.406671 9.307232
      vertex 4.8999996 13.1 9.275
    endloop
  endfacet
  facet normal -1 0 0
    outer loop
      vertex 4.8999996 12.79333 9.307232
      vertex 4.8999996 13.699937 9.40252
      vertex 4.8999996 13.406671 9.307232
    endloop
  endfacet
  facet normal 0 0.9969174 0.07845767
    outer loop
      vertex 8 10.725 -1.25
      vertex 12 10.725 -1.25
      vertex 8 10.75424 -1.6215318
    endloop
  endfacet
  facet normal 0 0.9969174 -0.07845767
    outer loop
      vertex 8 10.725 -1.25
      vertex 12 10.75424 -0.87846816
      vertex 12 10.725 -1.25
    endloop
  endfacet
  facet normal 0 0.9969174 -0.07845767
    outer loop
      vertex 8 10.725 -1.25
      vertex 8 10.75424 -0.87846816
      vertex 12 10.75424 -0.87846816
    endloop
  endfacet
  facet normal 1 0 0
    outer loop
      vertex 8 10.725 -1.25
      vertex 8 10.75424 -1.6215318
      vertex 8 11.7325325 -1.3937266
    endloop
  endfacet
  facet normal 1 0 0
    outer loop
      vertex 8 10.725 -1.25
      vertex 8 11.7325325 -1.1062734
      vertex 8 10.75424 -0.87846816
    endloop
  endfacet
  facet normal 1 0 0
    outer loop
      vertex 8 10.725 -1.25
      vertex 8 11.7325325 -1.3937266
      vertex 8 11.7325325 -1.1062734
    endloop
  endfacet
  facet normal 0 0.9723698 -0.23344602
    outer loop
      vertex 8 10.75424 -0.87846816
      vertex 12 10.841241 -0.5160846
      vertex 12 10.75424 -0.87846816
    endloop
  endfacet
  facet normal 0 0.9723698 -0.23344602
    outer loop
      vertex 8 10.75424 -0.87846816
      vertex 8 10.841241 -0.5160846
      vertex 12 10.841241 -0.5160846
    endloop
  endfacet
  facet normal 1 0 0
    outer loop
      vertex 8 10.75424 -0.87846816
      vertex 8 11.7325325 -1.1062734
      vertex 8 10.841241 -0.5160846
    endloop
  endfacet
  facet normal 0 0.9969174 0.07845767
    outer loop
      vertex 8 10.75424 -1.6215318
      vertex 12 10.725 -1.25
      vertex 12 10.75424 -1.6215318
    endloop
  endfacet
  facet normal 0 0.97236973 0.23344605
    outer loop
      vertex 8 10.75424 -1.6215318
      vertex 12 10.75424 -1.6215318
      vertex 8 10.841241 -1.9839153
    endloop
  endfacet
  facet normal 1 0 0
    outer loop
      vertex 8 10.75424 -1.6215318
      vertex 8 10.841241 -1.9839153
      vertex 8 11.909216 -1.9375
    endloop
  endfacet
  facet normal 1 0 0
    outer loop
      vertex 8 10.75424 -1.6215318
      vertex 8 11.792297 -1.6748984
      vertex 8 11.7325325 -1.3937266
    endloop
  endfacet
  facet normal 1 0 0
    outer loop
      vertex 8 10.75424 -1.6215318
      vertex 8 11.909216 -1.9375
      vertex 8 11.792297 -1.6748984
    endloop
  endfacet
  facet normal 0 0.92387915 -0.3826844
    outer loop
      vertex 8 10.841241 -0.5160846
      vertex 12 10.98386 -0.1717726
      vertex 12 10.841241 -0.5160846
    endloop
  endfacet
  facet normal 0 0.92387915 -0.3826844
    outer loop
      vertex 8 10.841241 -0.5160846
      vertex 8 10.98386 -0.1717726
      vertex 12 10.98386 -0.1717726
    endloop
  endfacet
  facet normal 1 0 0
    outer loop
      vertex 8 10.841241 -0.5160846
      vertex 8 11.7325325 -1.1062734
      vertex 8 11.792297 -0.8251016
    endloop
  endfacet
  facet normal 1 0 0
    outer loop
      vertex 8 10.841241 -0.5160846
      vertex 8 11.792297 -0.8251016
      vertex 8 11.909216 -0.5625
    endloop
  endfacet
  facet normal 1 0 0
    outer loop
      vertex 8 10.841241 -0.5160846
      vertex 8 11.909216 -0.5625
      vertex 8 10.98386 -0.1717726
    endloop
  endfacet
  facet normal 0 0.97236973 0.23344605
    outer loop
      vertex 8 10.841241 -1.9839153
      vertex 12 10.75424 -1.6215318
      vertex 12 10.841241 -1.9839153
    endloop
  endfacet
  facet normal 0 0.9238792 0.38268423
    outer loop
      vertex 8 10.841241 -1.9839153
      vertex 12 10.841241 -1.9839153
      vertex 8 10.98386 -2.3282275
    endloop
  endfacet
  facet normal 1 0 0
    outer loop
      vertex 8 10.841241 -1.9839153
      vertex 8 10.98386 -2.3282275
      vertex 8 12.0781765 -2.1700544
    endloop
  endfacet
  facet normal 1 0 0
    outer loop
      vertex 8 10.841241 -1.9839153
      vertex 8 12.0781765 -2.1700544
      vertex 8 11.909216 -1.9375
    endloop
  endfacet
  facet normal 0 0.85264033 -0.5224983
    outer loop
      vertex 8 10.98386 -0.1717726
      vertex 12 11.178585 0.14599001
      vertex 12 10.98386 -0.1717726
    endloop
  endfacet
  facet normal 0 0.85264033 -0.5224983
    outer loop
      vertex 8 10.98386 -0.1717726
      vertex 8 11.178585 0.14599001
      vertex 12 11.178585 0.14599001
    endloop
  endfacet
  facet normal 1 0 0
    outer loop
      vertex 8 10.98386 -0.1717726
      vertex 8 11.909216 -0.5625
      vertex 8 12.0781765 -0.32994545
    endloop
  endfacet
  facet normal 1 0 0
    outer loop
      vertex 8 10.98386 -0.1717726
      vertex 8 12.0781765 -0.32994545
      vertex 8 11.178585 0.14599001
    endloop
  endfacet
  facet normal 0 0.9238792 0.38268423
    outer loop
      vertex 8 10.98386 -2.3282275
      vertex 12 10.841241 -1.9839153
      vertex 12 10.98386 -2.3282275
    endloop
  endfacet
  facet normal 0 0.85264015 0.52249855
    outer loop
      vertex 8 10.98386 -2.3282275
      vertex 12 10.98386 -2.3282275
      vertex 8 11.178585 -2.64599
    endloop
  endfacet
  facet normal 1 0 0
    outer loop
      vertex 8 10.98386 -2.3282275
      vertex 8 11.178585 -2.64599
      vertex 8 12.540737 -2.506125
    endloop
  endfacet
  facet normal 1 0 0
    outer loop
      vertex 8 10.98386 -2.3282275
      vertex 8 12.291796 -2.3623984
      vertex 8 12.0781765 -2.1700544
    endloop
  endfacet
  facet normal 1 0 0
    outer loop
      vertex 8 10.98386 -2.3282275
      vertex 8 12.540737 -2.506125
      vertex 8 12.291796 -2.3623984
    endloop
  endfacet
  facet normal 0 0.85264015 0.52249855
    outer loop
      vertex 8 11.178585 -2.64599
      vertex 12 10.98386 -2.3282275
      vertex 12 11.178585 -2.64599
    endloop
  endfacet
  facet normal 0 0.76040584 0.64944816
    outer loop
      vertex 8 11.178585 -2.64599
      vertex 12 11.178585 -2.64599
      vertex 8 11.420622 -2.9293785
    endloop
  endfacet
  facet normal 1 0 0
    outer loop
      vertex 8 11.178585 -2.64599
      vertex 8 11.420622 -2.9293785
      vertex 8 14.779379 -2.9293785
    endloop
  endfacet
  facet normal 1 0 0
    outer loop
      vertex 8 11.178585 -2.64599
      vertex 8 12.814122 -2.594953
      vertex 8 12.540737 -2.506125
    endloop
  endfacet
  facet normal 1 0 0
    outer loop
      vertex 8 11.178585 -2.64599
      vertex 8 13.1 -2.625
      vertex 8 12.814122 -2.594953
    endloop
  endfacet
  facet normal 1 0 0
    outer loop
      vertex 8 11.178585 -2.64599
      vertex 8 14.779379 -2.9293785
      vertex 8 15.021416 -2.64599
    endloop
  endfacet
  facet normal 1 0 0
    outer loop
      vertex 8 11.178585 -2.64599
      vertex 8 15.021416 -2.64599
      vertex 8 13.1 -2.625
    endloop
  endfacet
  facet normal 0 0.76040584 -0.64944816
    outer loop
      vertex 8 11.178585 0.14599001
      vertex 12 11.420622 0.42937863
      vertex 12 11.178585 0.14599001
    endloop
  endfacet
  facet normal 0 0.76040584 -0.64944816
    outer loop
      vertex 8 11.178585 0.14599001
      vertex 8 11.420622 0.42937863
      vertex 12 11.420622 0.42937863
    endloop
  endfacet
  facet normal 1 0 0
    outer loop
      vertex 8 11.178585 0.14599001
      vertex 8 12.0781765 -0.32994545
      vertex 8 12.291796 -0.13760161
    endloop
  endfacet
  facet normal 1 0 0
    outer loop
      vertex 8 11.178585 0.14599001
      vertex 8 12.291796 -0.13760161
      vertex 8 12.540737 0.0061249733
    endloop
  endfacet
  facet normal 1 0 0
    outer loop
      vertex 8 11.178585 0.14599001
      vertex 8 12.540737 0.0061249733
      vertex 8 12.814122 0.09495294
    endloop
  endfacet
  facet normal 1 0 0
    outer loop
      vertex 8 11.178585 0.14599001
      vertex 8 12.814122 0.09495294
      vertex 8 13.1 0.125
    endloop
  endfacet
  facet normal 1 0 0
    outer loop
      vertex 8 11.178585 0.14599001
      vertex 8 13.1 0.125
      vertex 8 15.021416 0.14599001
    endloop
  endfacet
  facet normal 1 0 0
    outer loop
      vertex 8 11.178585 0.14599001
      vertex 8 15.021416 0.14599001
      vertex 8 11.420622 0.42937863
    endloop
  endfacet
  facet normal 0 0.76040584 0.64944816
    outer loop
      vertex 8 11.420622 -2.9293785
      vertex 12 11.178585 -2.64599
      vertex 12 11.420622 -2.9293785
    endloop
  endfacet
  facet normal 0 0.6494488 0.7604053
    outer loop
      vertex 8 11.420622 -2.9293785
      vertex 12 11.420622 -2.9293785
      vertex 8 11.70401 -3.1714153
    endloop
  endfacet
  facet normal 1 0 0
    outer loop
      vertex 8 11.420622 -2.9293785
      vertex 8 11.70401 -3.1714153
      vertex 8 14.495991 -3.1714153
    endloop
  endfacet
  facet normal 1 0 0
    outer loop
      vertex 8 11.420622 -2.9293785
      vertex 8 14.495991 -3.1714153
      vertex 8 14.779379 -2.9293785
    endloop
  endfacet
  facet normal 0 0.64944863 -0.7604055
    outer loop
      vertex 8 11.420622 0.42937863
      vertex 12 11.70401 0.6714153
      vertex 12 11.420622 0.42937863
    endloop
  endfacet
  facet normal 0 0.64944863 -0.7604055
    outer loop
      vertex 8 11.420622 0.42937863
      vertex 8 11.70401 0.6714153
      vertex 12 11.70401 0.6714153
    endloop
  endfacet
  facet normal 1 0 0
    outer loop
      vertex 8 11.420622 0.42937863
      vertex 8 14.779379 0.42937863
      vertex 8 11.70401 0.6714153
    endloop
  endfacet
  facet normal 1 0 0
    outer loop
      vertex 8 11.420622 0.42937863
      vertex 8 15.021416 0.14599001
      vertex 8 14.779379 0.42937863
    endloop
  endfacet
  facet normal 0 0.6494488 0.7604053
    outer loop
      vertex 8 11.70401 -3.1714153
      vertex 12 11.420622 -2.9293785
      vertex 12 11.70401 -3.1714153
    endloop
  endfacet
  facet normal 0 0.5224979 0.85264057
    outer loop
      vertex 8 11.70401 -3.1714153
      vertex 12 11.70401 -3.1714153
      vertex 8 12.021773 -3.3661406
    endloop
  endfacet
  facet normal 1 0 0
    outer loop
      vertex 8 11.70401 -3.1714153
      vertex 8 12.021773 -3.3661406
      vertex 8 14.178227 -3.3661406
    endloop
  endfacet
  facet normal 1 0 0
    outer loop
      vertex 8 11.70401 -3.1714153
      vertex 8 14.178227 -3.3661406
      vertex 8 14.495991 -3.1714153
    endloop
  endfacet
  facet normal 0 0.5224979 -0.85264057
    outer loop
      vertex 8 11.70401 0.6714153
      vertex 12 12.021773 0.8661406
      vertex 12 11.70401 0.6714153
    endloop
  endfacet
  facet normal 0 0.5224979 -0.85264057
    outer loop
      vertex 8 11.70401 0.6714153
      vertex 8 12.021773 0.8661406
      vertex 12 12.021773 0.8661406
    endloop
  endfacet
  facet normal 1 0 0
    outer loop
      vertex 8 11.70401 0.6714153
      vertex 8 14.495991 0.6714153
      vertex 8 12.021773 0.8661406
    endloop
  endfacet
  facet normal 1 0 0
    outer loop
      vertex 8 11.70401 0.6714153
      vertex 8 14.779379 0.42937863
      vertex 8 14.495991 0.6714153
    endloop
  endfacet
  facet normal 0 0.5224979 0.85264057
    outer loop
      vertex 8 12.021773 -3.3661406
      vertex 12 11.70401 -3.1714153
      vertex 12 12.021773 -3.3661406
    endloop
  endfacet
  facet normal 0 0.3826836 0.92387944
    outer loop
      vertex 8 12.021773 -3.3661406
      vertex 12 12.021773 -3.3661406
      vertex 8 12.366085 -3.5087593
    endloop
  endfacet
  facet normal 1 0 0
    outer loop
      vertex 8 12.021773 -3.3661406
      vertex 8 12.366085 -3.5087593
      vertex 8 13.833916 -3.5087593
    endloop
  endfacet
  facet normal 1 0 0
    outer loop
      vertex 8 12.021773 -3.3661406
      vertex 8 13.833916 -3.5087593
      vertex 8 14.178227 -3.3661406
    endloop
  endfacet
  facet normal 0 0.3826836 -0.92387944
    outer loop
      vertex 8 12.021773 0.8661406
      vertex 12 12.366085 1.0087593
      vertex 12 12.021773 0.8661406
    endloop
  endfacet
  facet normal 0 0.3826836 -0.92387944
    outer loop
      vertex 8 12.021773 0.8661406
      vertex 8 12.366085 1.0087593
      vertex 12 12.366085 1.0087593
    endloop
  endfacet
  facet normal 1 0 0
    outer loop
      vertex 8 12.021773 0.8661406
      vertex 8 14.178227 0.8661406
      vertex 8 12.366085 1.0087593
    endloop
  endfacet
  facet normal 1 0 0
    outer loop
      vertex 8 12.021773 0.8661406
      vertex 8 14.495991 0.6714153
      vertex 8 14.178227 0.8661406
    endloop
  endfacet
  facet normal 0 0.3826836 0.92387944
    outer loop
      vertex 8 12.366085 -3.5087593
      vertex 12 12.021773 -3.3661406
      vertex 12 12.366085 -3.5087593
    endloop
  endfacet
  facet normal 0 0.23344523 0.97236997
    outer loop
      vertex 8 12.366085 -3.5087593
      vertex 12 12.366085 -3.5087593
      vertex 8 12.728469 -3.5957599
    endloop
  endfacet
  facet normal 1 0 0
    outer loop
      vertex 8 12.366085 -3.5087593
      vertex 8 12.728469 -3.5957599
      vertex 8 13.471532 -3.5957599
    endloop
  endfacet
  facet normal 1 0 0
    outer loop
      vertex 8 12.366085 -3.5087593
      vertex 8 13.471532 -3.5957599
      vertex 8 13.833916 -3.5087593
    endloop
  endfacet
  facet normal 0 0.23344523 -0.97236997
    outer loop
      vertex 8 12.366085 1.0087593
      vertex 12 12.728469 1.0957599
      vertex 12 12.366085 1.0087593
    endloop
  endfacet
  facet normal 0 0.23344523 -0.97236997
    outer loop
      vertex 8 12.366085 1.0087593
      vertex 8 12.728469 1.0957599
      vertex 12 12.728469 1.0957599
    endloop
  endfacet
  facet normal 1 0 0
    outer loop
      vertex 8 12.366085 1.0087593
      vertex 8 13.833916 1.0087593
      vertex 8 12.728469 1.0957599
    endloop
  endfacet
  facet normal 1 0 0
    outer loop
      vertex 8 12.366085 1.0087593
      vertex 8 14.178227 0.8661406
      vertex 8 13.833916 1.0087593
    endloop
  endfacet
  facet normal 0 0.23344523 0.97236997
    outer loop
      vertex 8 12.728469 -3.5957599
      vertex 12 12.366085 -3.5087593
      vertex 12 12.728469 -3.5957599
    endloop
  endfacet
  facet normal 0 0.07845902 0.99691737
    outer loop
      vertex 8 12.728469 -3.5957599
      vertex 12 12.728469 -3.5957599
      vertex 8 13.1 -3.625
    endloop
  endfacet
  facet normal 1 0 0
    outer loop
      vertex 8 12.728469 -3.5957599
      vertex 8 13.1 -3.625
      vertex 8 13.471532 -3.5957599
    endloop
  endfacet
  facet normal 0 0.07845902 -0.99691737
    outer loop
      vertex 8 12.728469 1.0957599
      vertex 12 13.1 1.125
      vertex 12 12.728469 1.0957599
    endloop
  endfacet
  facet normal 0 0.07845902 -0.99691737
    outer loop
      vertex 8 12.728469 1.0957599
      vertex 8 13.1 1.125
      vertex 12 13.1 1.125
    endloop
  endfacet
  facet normal 1 0 0
    outer loop
      vertex 8 12.728469 1.0957599
      vertex 8 13.471532 1.0957599
      vertex 8 13.1 1.125
    endloop
  endfacet
  facet normal 1 0 0
    outer loop
      vertex 8 12.728469 1.0957599
      vertex 8 13.833916 1.0087593
      vertex 8 13.471532 1.0957599
    endloop
  endfacet
  facet normal 1 0 0
    outer loop
      vertex 8 13.1 -2.625
      vertex 8 15.021416 -2.64599
      vertex 8 13.385879 -2.594953
    endloop
  endfacet
  facet normal 0 0.07845902 0.99691737
    outer loop
      vertex 8 13.1 -3.625
      vertex 12 12.728469 -3.5957599
      vertex 12 13.1 -3.625
    endloop
  endfacet
  facet normal 0 -0.07845902 0.99691737
    outer loop
      vertex 8 13.1 -3.625
      vertex 12 13.1 -3.625
      vertex 8 13.471532 -3.5957599
    endloop
  endfacet
  facet normal 1 0 0
    outer loop
      vertex 8 13.1 0.125
      vertex 8 13.385879 0.09495294
      vertex 8 15.021416 0.14599001
    endloop
  endfacet
  facet normal 0 -0.07845902 -0.99691737
    outer loop
      vertex 8 13.1 1.125
      vertex 12 13.471532 1.0957599
      vertex 12 13.1 1.125
    endloop
  endfacet
  facet normal 0 -0.07845902 -0.99691737
    outer loop
      vertex 8 13.1 1.125
      vertex 8 13.471532 1.0957599
      vertex 12 13.471532 1.0957599
    endloop
  endfacet
  facet normal 1 0 0
    outer loop
      vertex 8 13.385879 -2.594953
      vertex 8 15.021416 -2.64599
      vertex 8 13.659264 -2.506125
    endloop
  endfacet
  facet normal 1 0 0
    outer loop
      vertex 8 13.385879 0.09495294
      vertex 8 13.659264 0.0061249733
      vertex 8 15.021416 0.14599001
    endloop
  endfacet
  facet normal 0 -0.07845902 0.99691737
    outer loop
      vertex 8 13.471532 -3.5957599
      vertex 12 13.1 -3.625
      vertex 12 13.471532 -3.5957599
    endloop
  endfacet
  facet normal 0 -0.23344523 0.97236997
    outer loop
      vertex 8 13.471532 -3.5957599
      vertex 12 13.471532 -3.5957599
      vertex 8 13.833916 -3.5087593
    endloop
  endfacet
  facet normal 0 -0.23344523 -0.97236997
    outer loop
      vertex 8 13.471532 1.0957599
      vertex 12 13.833916 1.0087593
      vertex 12 13.471532 1.0957599
    endloop
  endfacet
  facet normal 0 -0.23344523 -0.97236997
    outer loop
      vertex 8 13.471532 1.0957599
      vertex 8 13.833916 1.0087593
      vertex 12 13.833916 1.0087593
    endloop
  endfacet
  facet normal 1 0 0
    outer loop
      vertex 8 13.659264 -2.506125
      vertex 8 15.021416 -2.64599
      vertex 8 13.908205 -2.3623984
    endloop
  endfacet
  facet normal 1 0 0
    outer loop
      vertex 8 13.659264 0.0061249733
      vertex 8 13.908205 -0.13760161
      vertex 8 15.216141 -0.1717726
    endloop
  endfacet
  facet normal 1 0 0
    outer loop
      vertex 8 13.659264 0.0061249733
      vertex 8 15.216141 -0.1717726
      vertex 8 15.021416 0.14599001
    endloop
  endfacet
  facet normal 0 -0.23344523 0.97236997
    outer loop
      vertex 8 13.833916 -3.5087593
      vertex 12 13.471532 -3.5957599
      vertex 12 13.833916 -3.5087593
    endloop
  endfacet
  facet normal 0 -0.3826836 0.92387944
    outer loop
      vertex 8 13.833916 -3.5087593
      vertex 12 13.833916 -3.5087593
      vertex 8 14.178227 -3.3661406
    endloop
  endfacet
  facet normal 0 -0.3826836 -0.92387944
    outer loop
      vertex 8 13.833916 1.0087593
      vertex 12 14.178227 0.8661406
      vertex 12 13.833916 1.0087593
    endloop
  endfacet
  facet normal 0 -0.3826836 -0.92387944
    outer loop
      vertex 8 13.833916 1.0087593
      vertex 8 14.178227 0.8661406
      vertex 12 14.178227 0.8661406
    endloop
  endfacet
  facet normal 1 0 0
    outer loop
      vertex 8 13.908205 -0.13760161
      vertex 8 14.121824 -0.32994545
      vertex 8 15.216141 -0.1717726
    endloop
  endfacet
  facet normal 1 0 0
    outer loop
      vertex 8 13.908205 -2.3623984
      vertex 8 15.021416 -2.64599
      vertex 8 14.121824 -2.1700544
    endloop
  endfacet
  facet normal 1 0 0
    outer loop
      vertex 8 14.121824 -0.32994545
      vertex 8 14.290785 -0.5625
      vertex 8 15.35876 -0.5160846
    endloop
  endfacet
  facet normal 1 0 0
    outer loop
      vertex 8 14.121824 -0.32994545
      vertex 8 15.35876 -0.5160846
      vertex 8 15.216141 -0.1717726
    endloop
  endfacet
  facet normal 1 0 0
    outer loop
      vertex 8 14.121824 -2.1700544
      vertex 8 15.021416 -2.64599
      vertex 8 15.216141 -2.3282275
    endloop
  endfacet
  facet normal 1 0 0
    outer loop
      vertex 8 14.121824 -2.1700544
      vertex 8 15.216141 -2.3282275
      vertex 8 14.290785 -1.9375
    endloop
  endfacet
  facet normal 0 -0.3826836 0.92387944
    outer loop
      vertex 8 14.178227 -3.3661406
      vertex 12 13.833916 -3.5087593
      vertex 12 14.178227 -3.3661406
    endloop
  endfacet
  facet normal 0 -0.5224979 0.85264057
    outer loop
      vertex 8 14.178227 -3.3661406
      vertex 12 14.178227 -3.3661406
      vertex 8 14.495991 -3.1714153
    endloop
  endfacet
  facet normal 0 -0.5224979 -0.85264057
    outer loop
      vertex 8 14.178227 0.8661406
      vertex 12 14.495991 0.6714153
      vertex 12 14.178227 0.8661406
    endloop
  endfacet
  facet normal 0 -0.5224979 -0.85264057
    outer loop
      vertex 8 14.178227 0.8661406
      vertex 8 14.495991 0.6714153
      vertex 12 14.495991 0.6714153
    endloop
  endfacet
  facet normal 1 0 0
    outer loop
      vertex 8 14.290785 -0.5625
      vertex 8 14.407703 -0.8251016
      vertex 8 15.445761 -0.87846816
    endloop
  endfacet
  facet normal 1 0 0
    outer loop
      vertex 8 14.290785 -0.5625
      vertex 8 15.445761 -0.87846816
      vertex 8 15.35876 -0.5160846
    endloop
  endfacet
  facet normal 1 0 0
    outer loop
      vertex 8 14.290785 -1.9375
      vertex 8 15.216141 -2.3282275
      vertex 8 15.35876 -1.9839153
    endloop
  endfacet
  facet normal 1 0 0
    outer loop
      vertex 8 14.290785 -1.9375
      vertex 8 15.35876 -1.9839153
      vertex 8 14.407703 -1.6748984
    endloop
  endfacet
  facet normal 1 0 0
    outer loop
      vertex 8 14.407703 -0.8251016
      vertex 8 14.467468 -1.1062734
      vertex 8 15.445761 -0.87846816
    endloop
  endfacet
  facet normal 1 0 0
    outer loop
      vertex 8 14.407703 -1.6748984
      vertex 8 15.35876 -1.9839153
      vertex 8 14.467468 -1.3937266
    endloop
  endfacet
  facet normal 1 0 0
    outer loop
      vertex 8 14.467468 -1.1062734
      vertex 8 15.475 -1.25
      vertex 8 15.445761 -0.87846816
    endloop
  endfacet
  facet normal 1 0 0
    outer loop
      vertex 8 14.467468 -1.3937266
      vertex 8 15.35876 -1.9839153
      vertex 8 15.445761 -1.6215318
    endloop
  endfacet
  facet normal 1 0 0
    outer loop
      vertex 8 14.467468 -1.3937266
      vertex 8 15.445761 -1.6215318
      vertex 8 15.475 -1.25
    endloop
  endfacet
  facet normal 1 0 0
    outer loop
      vertex 8 14.467468 -1.3937266
      vertex 8 15.475 -1.25
      vertex 8 14.467468 -1.1062734
    endloop
  endfacet
  facet normal 0 -0.5224979 0.85264057
    outer loop
      vertex 8 14.495991 -3.1714153
      vertex 12 14.178227 -3.3661406
      vertex 12 14.495991 -3.1714153
    endloop
  endfacet
  facet normal 0 -0.6494488 0.7604053
    outer loop
      vertex 8 14.495991 -3.1714153
      vertex 12 14.495991 -3.1714153
      vertex 8 14.779379 -2.9293785
    endloop
  endfacet
  facet normal 0 -0.64944863 -0.7604055
    outer loop
      vertex 8 14.495991 0.6714153
      vertex 12 14.779379 0.42937863
      vertex 12 14.495991 0.6714153
    endloop
  endfacet
  facet normal 0 -0.64944863 -0.7604055
    outer loop
      vertex 8 14.495991 0.6714153
      vertex 8 14.779379 0.42937863
      vertex 12 14.779379 0.42937863
    endloop
  endfacet
  facet normal 0 -0.6494488 0.7604053
    outer loop
      vertex 8 14.779379 -2.9293785
      vertex 12 14.495991 -3.1714153
      vertex 12 14.779379 -2.9293785
    endloop
  endfacet
  facet normal 0 -0.76040584 0.64944816
    outer loop
      vertex 8 14.779379 -2.9293785
      vertex 12 14.779379 -2.9293785
      vertex 8 15.021416 -2.64599
    endloop
  endfacet
  facet normal 0 -0.76040584 -0.64944816
    outer loop
      vertex 8 14.779379 0.42937863
      vertex 12 15.021416 0.14599001
      vertex 12 14.779379 0.42937863
    endloop
  endfacet
  facet normal 0 -0.76040584 -0.64944816
    outer loop
      vertex 8 14.779379 0.42937863
      vertex 8 15.021416 0.14599001
      vertex 12 15.021416 0.14599001
    endloop
  endfacet
  facet normal 0 -0.76040584 0.64944816
    outer loop
      vertex 8 15.021416 -2.64599
      vertex 12 14.779379 -2.9293785
      vertex 12 15.021416 -2.64599
    endloop
  endfacet
  facet normal 0 -0.85264015 0.52249855
    outer loop
      vertex 8 15.021416 -2.64599
      vertex 12 15.021416 -2.64599
      vertex 8 15.216141 -2.3282275
    endloop
  endfacet
  facet normal 0 -0.85264033 -0.5224983
    outer loop
      vertex 8 15.021416 0.14599001
      vertex 12 15.216141 -0.1717726
      vertex 12 15.021416 0.14599001
    endloop
  endfacet
  facet normal 0 -0.85264033 -0.5224983
    outer loop
      vertex 8 15.021416 0.14599001
      vertex 8 15.216141 -0.1717726
      vertex 12 15.216141 -0.1717726
    endloop
  endfacet
  facet normal 0 -0.92387915 -0.3826844
    outer loop
      vertex 8 15.216141 -0.1717726
      vertex 12 15.35876 -0.5160846
      vertex 12 15.216141 -0.1717726
    endloop
  endfacet
  facet normal 0 -0.92387915 -0.3826844
    outer loop
      vertex 8 15.216141 -0.1717726
      vertex 8 15.35876 -0.5160846
      vertex 12 15.35876 -0.5160846
    endloop
  endfacet
  facet normal 0 -0.85264015 0.52249855
    outer loop
      vertex 8 15.216141 -2.3282275
      vertex 12 15.021416 -2.64599
      vertex 12 15.216141 -2.3282275
    endloop
  endfacet
  facet normal 0 -0.9238792 0.38268423
    outer loop
      vertex 8 15.216141 -2.3282275
      vertex 12 15.216141 -2.3282275
      vertex 8 15.35876 -1.9839153
    endloop
  endfacet
  facet normal 0 -0.9723698 -0.23344602
    outer loop
      vertex 8 15.35876 -0.5160846
      vertex 12 15.445761 -0.87846816
      vertex 12 15.35876 -0.5160846
    endloop
  endfacet
  facet normal 0 -0.9723698 -0.23344602
    outer loop
      vertex 8 15.35876 -0.5160846
      vertex 8 15.445761 -0.87846816
      vertex 12 15.445761 -0.87846816
    endloop
  endfacet
  facet normal 0 -0.9238792 0.38268423
    outer loop
      vertex 8 15.35876 -1.9839153
      vertex 12 15.216141 -2.3282275
      vertex 12 15.35876 -1.9839153
    endloop
  endfacet
  facet normal 0 -0.97236973 0.23344605
    outer loop
      vertex 8 15.35876 -1.9839153
      vertex 12 15.35876 -1.9839153
      vertex 8 15.445761 -1.6215318
    endloop
  endfacet
  facet normal 0 -0.9969174 -0.07845767
    outer loop
      vertex 8 15.445761 -0.87846816
      vertex 12 15.475 -1.25
      vertex 12 15.445761 -0.87846816
    endloop
  endfacet
  facet normal 0 -0.9969174 -0.07845767
    outer loop
      vertex 8 15.445761 -0.87846816
      vertex 8 15.475 -1.25
      vertex 12 15.475 -1.25
    endloop
  endfacet
  facet normal 0 -0.97236973 0.23344605
    outer loop
      vertex 8 15.445761 -1.6215318
      vertex 12 15.35876 -1.9839153
      vertex 12 15.445761 -1.6215318
    endloop
  endfacet
  facet normal 0 -0.9969174 0.07845767
    outer loop
      vertex 8 15.445761 -1.6215318
      vertex 12 15.445761 -1.6215318
      vertex 8 15.475 -1.25
    endloop
  endfacet
  facet normal 0 -0.9969174 0.07845767
    outer loop
      vertex 8 15.475 -1.25
      vertex 12 15.445761 -1.6215318
      vertex 12 15.475 -1.25
    endloop
  endfacet
endsolid OpenSCAD_Model
